<svg viewBox="0 0 120 120" xmlns="http://www.w3.org/2000/svg"><circle cx="60" cy="60" fill="none" r="57" stroke="#fff" stroke-linecap="round" stroke-linejoin="round" stroke-width="5"/><g fill="#fff"><path d="m66.83 55.56-1.5-1.5a2.52 2.52 0 0 0 -3.5 0 2.49 2.49 0 0 0 -.72 1.75 2.45 2.45 0 0 0 .72 1.74l1.5 1.51a8.47 8.47 0 0 1 -12 12l-13.9-13.94a8.47 8.47 0 0 1 12-12l2.26 2.25a2.47 2.47 0 0 0 3.49-3.5l-2.25-2.25a13.42 13.42 0 0 0 -19 19l13.92 13.92a13.42 13.42 0 0 0 19-19z"/><path d="m89.65 62.89-13.92-13.89a13.42 13.42 0 0 0 -19 19l1.5 1.5a2.47 2.47 0 0 0 3.52-3.5l-1.51-1.5a8.48 8.48 0 1 1 12-12l13.91 13.89a8.48 8.48 0 0 1 -12 12l-2.25-2.25a2.51 2.51 0 0 0 -3.49 0 2.46 2.46 0 0 0 0 3.49l2.25 2.25a13.42 13.42 0 0 0 19-19z"/></g></svg>