<svg viewBox="0 0 119.95 119.95" xmlns="http://www.w3.org/2000/svg"><g fill="none" stroke="#56a0d3" stroke-linecap="round" stroke-linejoin="round" stroke-width="5"><circle cx="60" cy="60" r="57"/><path d="m76.2 47.24h8.8a7.44 7.44 0 0 1 2.44.41l8 2.78a7.44 7.44 0 0 1 4.88 5.72l2.37 13.33a7.44 7.44 0 0 1 -2.82 7.22l-6.87 5.23"/><path d="m80.62 40.59c-4.44 0-7.54-5.46-7.54-10.36a7.54 7.54 0 0 1 15.07 0c.01 6-3.15 10.36-7.53 10.36z"/><path d="m25.26 86.92-6-4.58a6.51 6.51 0 0 1 -2.49-6.34l2.07-11.67a6.51 6.51 0 0 1 4.27-5l7-2.44a6.51 6.51 0 0 1 2.14-.36h7a4.37 4.37 0 0 1 1.46.25l3.74 1.33"/><path d="m29.49 39.12a6.6 6.6 0 0 1 13.2 0c0 4.29-2.71 9.07-6.6 9.07s-6.6-3.82-6.6-9.07z"/><path d="m40.4 94.15a4.89 4.89 0 0 1 -4.6-6.52l4.75-13.41a4.89 4.89 0 0 1 3.05-3l10.57-3.54a4.89 4.89 0 0 1 1.55-.25h9.66a4.89 4.89 0 0 1 1.6.27l10.34 3.6a4.89 4.89 0 0 1 3 2.93l4.92 13.35a4.89 4.89 0 0 1 -4.58 6.57"/><path d="m60.54 60.79c-4.44 0-7.54-5.47-7.54-10.37a7.54 7.54 0 0 1 15.07 0c.01 6.01-3.16 10.37-7.53 10.37z"/></g></svg>