<svg viewBox="0 0 120 120" xmlns="http://www.w3.org/2000/svg"><g fill="none" stroke-linecap="round" stroke-linejoin="round"><circle cx="60" cy="60" r="57" stroke="#ff4000" stroke-width="5"/><path d="m69.74 35.23c-9.48 9.48-40.27 10.25-40.27 10.25a8.58 8.58 0 0 0 -7.28 8.46v8.12a8.58 8.58 0 0 0 7.23 8.47s28.88-1.15 40.27 10.25c8.11 8.1 8.11-53.62.05-45.55z" stroke="#000" stroke-width="4.25"/><path d="m45.2 71.81 2 9.71a5.7 5.7 0 0 1 -4.49 6.69 5.7 5.7 0 0 1 -6.71-4.5l-2.32-13.19" stroke="#000" stroke-width="4.25"/><path d="m76.33 52.33a6.65 6.65 0 0 1 0 13.31" stroke="#000" stroke-width="4.25"/><g stroke="#ff4000" stroke-width="5"><path d="m69.74 35.23c-9.48 9.48-40.27 10.25-40.27 10.25a8.58 8.58 0 0 0 -7.28 8.46v8.12a8.58 8.58 0 0 0 7.23 8.47s28.88-1.15 40.27 10.25c8.11 8.1 8.11-53.62.05-45.55z"/><path d="m45.2 71.81 2 9.71a5.7 5.7 0 0 1 -4.49 6.69 5.7 5.7 0 0 1 -6.71-4.5l-2.32-13.19"/><path d="m76.33 52.33a6.65 6.65 0 0 1 0 13.31"/><path d="m92.18 58.98h11.49"/><path d="m86.55 45.63 10.92-7.07"/><path d="m86.55 72.34 10.92 7.06"/></g></g></svg>