<svg viewBox="0 0 120 120" xmlns="http://www.w3.org/2000/svg"><g fill="none" stroke="#ff4000" stroke-linecap="round" stroke-linejoin="round" stroke-width="5"><circle cx="60" cy="60" r="57"/><path d="m30.49 38.53h15.02"/><path d="m30.49 46.37h10.01"/><path d="m40.5 40.27h63.61v41.03h-63.61z"/><path d="m72.31 81.3v11.13"/><path d="m83.83 93.39h-23.05"/><path d="m53.26 81.3v12.32h-30.11v-64.3h30.11v10.95"/><path d="m53.26 81.3v12.32h-30.11v-64.3h30.11v10.95"/><circle cx="32.31" cy="83.25" r=".51"/><path d="m30.49 38.53h15.02"/><path d="m30.49 38.53h15.02"/><path d="m30.49 46.37h10.01"/><path d="m30.49 46.37h10.01"/><path d="m40.5 40.27h63.61v41.03h-63.61z"/><path d="m40.5 40.27h63.61v41.03h-63.61z"/><path d="m72.31 81.3v11.13"/><path d="m72.31 81.3v11.13"/><path d="m83.83 93.39h-23.05"/><path d="m83.83 93.39h-23.05"/></g></svg>