<svg viewBox="0 0 120 120" xmlns="http://www.w3.org/2000/svg"><circle cx="60" cy="60" fill="none" r="57" stroke="#fff" stroke-linecap="round" stroke-linejoin="round" stroke-width="5"/><g fill="#fff"><path d="m49.88 70.52a2.68 2.68 0 0 0 -2.67 2.67v1.68a19.91 19.91 0 0 1 12.79-35.13 2.67 2.67 0 0 0 0-5.34 25.23 25.23 0 0 0 -16.85 44h-1.15a2.67 2.67 0 1 0 0 5.34h7.9a2.67 2.67 0 0 0 2.66-2.67v-7.9a2.67 2.67 0 0 0 -2.68-2.65z"/><path d="m76.88 40.87h1.22a2.67 2.67 0 0 0 0-5.34h-7.91a2.67 2.67 0 0 0 -2.66 2.67v7.9a2.67 2.67 0 1 0 5.33 0v-1.67a19.9 19.9 0 0 1 -12.86 35.12 2.67 2.67 0 0 0 0 5.34 25.23 25.23 0 0 0 16.84-44z"/></g></svg>