<svg viewBox="0 0 120 120" xmlns="http://www.w3.org/2000/svg"><circle cx="60" cy="60" fill="none" r="57" stroke="#fff" stroke-linecap="round" stroke-linejoin="round" stroke-width="5"/><path d="m78.94 54.75c10.07 0 15.71-8.41 16-8.76a2 2 0 0 0 .28-1.47 2 2 0 0 0 -.85-1.23c-5.37-3.43-10.37-5.17-15.03-5.17a16.59 16.59 0 0 0 -12.34 5.32 20.05 20.05 0 0 0 -7-9.81c-5.73-4.27-13.78-5.29-23.93-3a2 2 0 0 0 -1.48 2.3c.09.39 2.15 9.62 10.47 14.81 5.19 3.23 11.57 4.15 19 2.73v10.62a16.63 16.63 0 0 0 -5.43 3.09 23.91 23.91 0 0 1 -5.63 2.82c-2.5-1.38-5.44-2.29-10.24-2.29a18.91 18.91 0 0 0 -5.87 1.18 18.56 18.56 0 0 1 -5.78 1.15 4.28 4.28 0 0 0 -4.28 4.27v10.89a4.28 4.28 0 0 0 4.28 4.27c4.06 0 10.41.21 11.81.68 2.52.84 8.44 4.35 10.51 5.63h.08a5 5 0 0 0 2.45.64h19.77c2.09 0 4.41-1.93 5.22-3.27 2.59-4.3 11.87-16 12-16.1a1.79 1.79 0 0 0 .22-.34 5.12 5.12 0 0 0 -2.17-6.71c-3.55-2.07-6.53 1-7.65 2.17l-.74.74c-2.41-1-5.81-2.55-6.69-3.33-.3-.26-.58-.53-.88-.8a22.67 22.67 0 0 0 -5.75-4.14 8.25 8.25 0 0 0 -1.26-.5v-9.61a21.84 21.84 0 0 0 10.91 3.22zm4.13-10.1c-3.63-1.36-8-.88-11.47-.1a12.65 12.65 0 0 1 7.74-2.55c3.34 0 7 1.15 11 3.42-1.92 2.07-5.89 5.44-11.42 5.44a17.28 17.28 0 0 1 -8-2.15c3-.84 7.48-1.65 10.76-.42a1.94 1.94 0 0 0 1.36-3.64zm-35.84-.21a20.9 20.9 0 0 1 -8.17-10.44c8-1.44 14.25-.51 18.66 2.75a15.29 15.29 0 0 1 4 4.53c-3.33-2.25-7.7-4.49-12-4.49a1.95 1.95 0 1 0 0 3.89c4.72 0 10 3.74 12.83 6.1-6.01.98-11.18.22-15.32-2.34zm27.3 34.26h.1a1.15 1.15 0 0 1 1.08.78 1 1 0 0 1 .08.39 1.16 1.16 0 0 1 -1.16 1.13h-.1l-14.7.78c-.9 0-2.74-1.2-4.38-2.33l-1.38-1-1.4-1a23.75 23.75 0 0 0 -2.8-1.74 2 2 0 0 0 -2.61.87 1.94 1.94 0 0 0 .87 2.6 33.07 33.07 0 0 1 3.69 2.41c2.92 2.06 5.67 4 8 4h.18l14.71-.77a5.06 5.06 0 0 0 5-5c0-.13 0-.26 0-.39a5 5 0 0 0 -.29-1.39c1.19-1 3.08-2.6 5-4.41.6-.58 1.21-1.18 1.79-1.78 1.66-1.72 2.31-1.85 2.9-1.51a1.3 1.3 0 0 1 .69 1.48c-1.29 1.63-9.54 12.07-12.09 16.32a4.09 4.09 0 0 1 -1.9 1.39h-19.81a1.26 1.26 0 0 1 -.54-.13c-.73-.45-7.91-4.87-11.27-6-2.51-.83-11.31-.87-13-.87a.39.39 0 0 1 -.39-.39v-10.82a.38.38 0 0 1 .39-.38 22 22 0 0 0 7-1.34 15.71 15.71 0 0 1 4.7-1 18.32 18.32 0 0 1 6.57 1 22.63 22.63 0 0 1 5.34 3.19c1.38 1 2.94 2.13 4.95 3.33a15.81 15.81 0 0 0 4.56 1.44 83.88 83.88 0 0 0 10.22 1.14z" fill="#fff"/></svg>