<svg viewBox="0 0 120 120" xmlns="http://www.w3.org/2000/svg"><circle cx="60" cy="60" fill="none" r="57" stroke="#7daed3" stroke-linecap="round" stroke-linejoin="round" stroke-width="5"/><path d="m94.77 60.78a2.08 2.08 0 0 1 -4.16 0 31.21 31.21 0 0 0 -31.21-31.21 2.08 2.08 0 1 1 0-4.16 35.37 35.37 0 0 1 35.37 35.37zm-12.48 0a2.08 2.08 0 0 1 -4.16 0 18.72 18.72 0 0 0 -18.73-18.73 2.08 2.08 0 1 1 0-4.16 22.88 22.88 0 0 1 22.89 22.89zm1 26.2-7 7c-6.24 6.24-26.24-2-37.15-12.87s-19.14-30.92-12.86-37.11l7-7a4.85 4.85 0 0 1 7.27.37l9.28 11.34a5.6 5.6 0 0 1 -.36 7.42l-4.47 4.37a2.17 2.17 0 0 0 -.32 2.37c.12.23.21.4.36.66.26.45.58 1 1 1.53a35.09 35.09 0 0 0 9.17 9.16c.57.38 1.08.7 1.53 1l.5.27a2.25 2.25 0 0 0 2.51-.24l4.42-4.42a5.61 5.61 0 0 1 7.42-.36l11.34 9.28a4.85 4.85 0 0 1 .36 7.25zm-41.2-29.42 4.42-4.42a1.45 1.45 0 0 0 .08-1.84l-9.27-11.3a.69.69 0 0 0 -1.1-.07l-7 7c-3.91 3.91 3.43 21.82 12.87 31.26s27.35 16.75 31.27 12.81l7-7a.69.69 0 0 0 -.07-1.1l-11.34-9.25a1.45 1.45 0 0 0 -1.84.08l-4.42 4.42a6.34 6.34 0 0 1 -7.35 1 23.58 23.58 0 0 1 -2.47-1.49 39.25 39.25 0 0 1 -10.29-10.28 23.59 23.59 0 0 1 -1.48-2.45 6.32 6.32 0 0 1 .99-7.37z" fill="#7daed3"/></svg>