<svg id="Layer_1" data-name="Layer 1" xmlns="http://www.w3.org/2000/svg" viewBox="0 0 120 120"><defs><style>.cls-1{fill:none;stroke:#fff;stroke-linecap:round;stroke-linejoin:round;stroke-width:5px}.cls-2{fill:#fff}</style></defs><title>icon</title><circle class="cls-1" cx="60" cy="60" r="57"/><path class="cls-1" d="M64.38 80.1h-28a9 9 0 0 1-9-9V46.69a9 9 0 0 1 9-9H83.8a9 9 0 0 1 9 9V71.1a9 9 0 0 1-9 9h-4.28L62.38 95.27z"/><path class="cls-2" d="M48 62.33a5.78 5.78 0 0 1-4.74-2.06 8.51 8.51 0 0 1-1.63-5.48 10.23 10.23 0 0 1 2.71-6.51 17.46 17.46 0 0 1 6.43-4.85.56.56 0 0 1 .7.22l1.12 1.8a.56.56 0 0 1-.23.8 13.65 13.65 0 0 0-4.34 3.12 7.1 7.1 0 0 0-1.67 3.57h.79a8.36 8.36 0 0 1 2.76.39 4.68 4.68 0 0 1 1.82 1.13 4.08 4.08 0 0 1 1 1.56A5.43 5.43 0 0 1 53 57.7a4.33 4.33 0 0 1-1.49 3.3A5 5 0 0 1 48 62.33zm24.89-6.41A5.78 5.78 0 0 1 77.63 58a8.51 8.51 0 0 1 1.63 5.48A10.23 10.23 0 0 1 76.55 70a17.46 17.46 0 0 1-6.43 4.85.56.56 0 0 1-.7-.22l-1.12-1.8a.56.56 0 0 1 .23-.8 13.65 13.65 0 0 0 4.34-3.12 7.1 7.1 0 0 0 1.67-3.57h-.79a8.36 8.36 0 0 1-2.75-.4 4.68 4.68 0 0 1-1.82-1.13 4.08 4.08 0 0 1-1-1.56 5.43 5.43 0 0 1-.27-1.7 4.33 4.33 0 0 1 1.49-3.26 5 5 0 0 1 3.49-1.37z"/></svg>