<svg viewBox="0 0 120 120" xmlns="http://www.w3.org/2000/svg"><g fill="none" stroke="#ff4000" stroke-linecap="round" stroke-linejoin="round" stroke-width="5"><circle cx="60" cy="60" r="57"/><path d="m36.32 76.88h-6.07a8 8 0 0 1 -8-8v-13.38a8 8 0 0 1 8-8h32a8 8 0 0 1 8 8v13.43a8 8 0 0 1 -8 8h-15.65l-11.85 10.07z"/><path d="m42.22 35.76c4-3.88 9.53-7.38 18.78-7.38 13 0 25.25 9.29 26.61 26.83-1.32 1.13-4.18 2.53-4.18 6v9.18a9 9 0 0 0 2.57 6.13s-6.21 13.62-15.1 13.62h-1.8a4.58 4.58 0 0 0 -3.77-2.08h-7.68a4.27 4.27 0 0 0 -4.25 4.25v4.25a4.3 4.3 0 0 0 4.28 4.22h7.68a4.34 4.34 0 0 0 3.75-2h1.73c11 0 22.41-13 23.75-22.23 0 0 4.88-1.14 4.88-5.84 0-3.3 0-9.65 0-9.65a6.35 6.35 0 0 0 -3.33-5.78c-.76-17-12-35.31-35.13-35.31-14.76 0-26.34 9.9-29.92 16.07"/><circle cx="35" cy="62.2" r=".66"/><circle cx="46" cy="62.2" r=".66"/><circle cx="57" cy="62.2" r=".66"/></g></svg>