<svg viewBox="0 0 120 120" xmlns="http://www.w3.org/2000/svg"><circle cx="60" cy="60" fill="none" r="57" stroke="#fff" stroke-linecap="round" stroke-linejoin="round" stroke-width="5"/><path d="m92 71.05a7.88 7.88 0 0 0 -5.9-7.68v-6.17a2.22 2.22 0 0 0 -1-1.93 2.1 2.1 0 0 0 -2.16-.12l-6.71 3.26a31.05 31.05 0 0 0 -4.42-2.41 19.71 19.71 0 0 0 6-14c0-10.34-7.95-18.74-17.72-18.74s-17.71 8.38-17.71 18.74a19.32 19.32 0 0 0 5.79 13.87 26.49 26.49 0 0 0 -4.48 2.53l-6.64-3.23a2.1 2.1 0 0 0 -2.16.12 2.5 2.5 0 0 0 -1 1.93v6.23a7.89 7.89 0 0 0 -5.68 7.62 8 8 0 0 0 5.68 7.62v3.4a2.14 2.14 0 0 0 1.24 2l22.42 10.91v.1h.22l1.31.64a3.42 3.42 0 0 0 1 .23 2.21 2.21 0 0 0 .92-.27l1.3-.64h.34v-.16l22.22-10.79a2.15 2.15 0 0 0 1.25-2v-3.39a8 8 0 0 0 5.89-7.67zm-31.9-43.27a13.27 13.27 0 0 1 12.11 8.77l-.23.13a13.4 13.4 0 0 1 -6.88 2 12.93 12.93 0 0 1 -10.34-5.11 2.62 2.62 0 0 0 -2.16-1 2.41 2.41 0 0 0 -2.22 1.58 5.32 5.32 0 0 1 -2.55 2.75 13.25 13.25 0 0 1 12.27-9.12zm-13.16 14.6h.18a9.67 9.67 0 0 0 6-3.13 18.22 18.22 0 0 0 20.14 2.55 1.09 1.09 0 0 1 0 .18c0 7.84-5.9 14.2-13.17 14.2s-12.95-6.18-13.15-13.8zm5.55 16.75a17.19 17.19 0 0 0 7.51 1.7h.06a16.3 16.3 0 0 0 3.58-.4 16.57 16.57 0 0 0 3.8-1.3 22.32 22.32 0 0 1 3.92 1.62l-11.36 5.53-11.38-5.51a20.91 20.91 0 0 1 3.87-1.64zm-19.76 11.92a3.41 3.41 0 1 1 3.41 3.41 3.35 3.35 0 0 1 -3.41-3.41zm5.68 9.54h.11v-1.93a7.94 7.94 0 0 0 0-15.22v-2.61l19 9.2v19.79zm24.24 9.23v-19.73l19.14-9.26v2.6a7.87 7.87 0 0 0 -5.22 4.95v.13s-.09.27-.13.41-.05.22-.08.33 0 .22-.07.34 0 .3-.07.45v.26.75s0 .52 0 .77v.18q0 .3.09.6v.14c0 .23.1.45.17.67a8 8 0 0 0 1 2.07l.42.56.08.09c.12.14.25.28.38.41l.14.15.3.26a8.07 8.07 0 0 0 3 1.68v1.92zm21.41-15.36a3.34 3.34 0 0 1 -3.4-3.41 3.41 3.41 0 0 1 6.81 0 3.35 3.35 0 0 1 -3.41 3.41z" fill="#fff"/></svg>