<svg id="Layer_1" data-name="Layer 1" xmlns="http://www.w3.org/2000/svg" viewBox="0 0 120 120"><defs><style>.cls-1{fill:none;stroke:#fff;stroke-linecap:round;stroke-linejoin:round;stroke-width:5px}.cls-2{fill:#fff}</style></defs><title>icon-sprite</title><circle class="cls-1" cx="60" cy="60" r="57"/><path class="cls-2" d="M46.94 71.91H38.7A2.06 2.06 0 0 0 36.65 74v8.2a2.06 2.06 0 0 0 2.05 2.06h8.24A2.06 2.06 0 0 0 49 82.2V74a2.06 2.06 0 0 0-2.06-2.09zm-2.06 8.23h-4.12V76h4.12zm18.52-8.23h-8.23A2.07 2.07 0 0 0 53.11 74v8.2a2.07 2.07 0 0 0 2.06 2.06h8.23a2.07 2.07 0 0 0 2.06-2.06V74a2.07 2.07 0 0 0-2.06-2.09zm-2.06 8.23h-4.11V76h4.11zm18.52-8.23h-8.23A2.07 2.07 0 0 0 69.57 74v8.2a2.07 2.07 0 0 0 2.06 2.06h8.23a2.06 2.06 0 0 0 2.06-2.06V74a2.06 2.06 0 0 0-2.06-2.09zm-2 8.23h-4.17V76h4.12zM46.94 55.45H38.7a2.05 2.05 0 0 0-2.05 2v8.24a2.05 2.05 0 0 0 2.05 2.05h8.24a2.05 2.05 0 0 0 2.06-2V57.5a2.05 2.05 0 0 0-2.06-2.05zm-2.06 8.23h-4.12v-4.12h4.12zm18.52-8.23h-8.23a2.06 2.06 0 0 0-2.06 2v8.24a2.06 2.06 0 0 0 2.06 2.05h8.23a2.06 2.06 0 0 0 2.06-2.05V57.5a2.06 2.06 0 0 0-2.06-2.05zm-2.06 8.23h-4.11v-4.12h4.11zm23.75-.62l-3.15-7.61a2.08 2.08 0 0 0-2.69-1.11l-7.61 3.15a2.08 2.08 0 0 0-1.11 2.69l3.15 7.61a2.07 2.07 0 0 0 2.69 1.11L84 65.75a2.06 2.06 0 0 0 1.09-2.69zm-8.4 1.25l-1.57-3.8 3.8-1.58 1.58 3.8zM46.94 39H38.7a2.06 2.06 0 0 0-2.05 2v8.23a2.06 2.06 0 0 0 2.05 2.06h8.24A2.06 2.06 0 0 0 49 49.27V41a2.06 2.06 0 0 0-2.06-2zm-2.06 8.23h-4.12V43.1h4.12zM65.45 41l-7.61-3.15A2.06 2.06 0 0 0 55.15 39L52 46.59a2.06 2.06 0 0 0 1.12 2.69l7.6 3.15a2.05 2.05 0 0 0 2.69-1.11l3.15-7.61A2 2 0 0 0 65.45 41zm-5.05 6.84l-3.8-1.57 1.57-3.8L62 44zm25.04-6.55l-5.82-5.83a2.06 2.06 0 0 0-2.91 0l-5.82 5.83a2.06 2.06 0 0 0 0 2.91l5.82 5.8a2.06 2.06 0 0 0 2.91 0l5.82-5.82a2.06 2.06 0 0 0 0-2.89zm-7.28 4.36l-2.91-2.91 2.91-2.91 2.91 2.91z"/></svg>