<svg xmlns="http://www.w3.org/2000/svg" class="svg-obj" viewBox="0 0 120 120"><title>icon-team</title><path d="M60 120a60 60 0 1 1 60-60 60.07 60.07 0 0 1-60 60zM60 5a55 55 0 1 0 55 55A55.06 55.06 0 0 0 60 5z"/><path d="M93 84.43a2.5 2.5 0 0 1-1.51-4.49l6.88-5.23a4.92 4.92 0 0 0 1.87-4.79l-2.37-13.33a4.94 4.94 0 0 0-3.24-3.8l-8-2.78a4.92 4.92 0 0 0-1.63-.27h-8.8a2.5 2.5 0 0 1 0-5H85a9.9 9.9 0 0 1 3.26.55l8 2.78a10 10 0 0 1 6.52 7.65L105.16 69a9.9 9.9 0 0 1-3.77 9.65l-6.89 5.27a2.49 2.49 0 0 1-1.5.51zM80.63 43.09c-6 0-10-6.65-10-12.86a10 10 0 0 1 20.07 0c-.04 7.45-4.26 12.86-10.07 12.86zm0-17.9a5 5 0 0 0-5 5c0 3.64 2.2 7.86 5 7.86s5-3.31 5-7.86a5 5 0 0 0-5-5zM25.26 89.42a2.49 2.49 0 0 1-1.51-.51l-6-4.58a9 9 0 0 1-3.42-8.75l2.07-11.67A9 9 0 0 1 22.29 57l7-2.44a9 9 0 0 1 3-.5h7a6.84 6.84 0 0 1 2.3.4l3.74 1.33a2.5 2.5 0 0 1-1.67 4.71l-3.74-1.33a1.86 1.86 0 0 0-.63-.11h-7a4 4 0 0 0-1.32.22l-7 2.44a4 4 0 0 0-2.63 3.09l-2.11 11.64a4 4 0 0 0 1.52 3.89l6 4.58a2.5 2.5 0 0 1-1.51 4.49zm10.83-38.73c-5.27 0-9.1-4.87-9.1-11.57a9.1 9.1 0 0 1 18.2 0c0 5.59-3.65 11.57-9.1 11.57zm0-15.67a4.1 4.1 0 0 0-4.1 4.1c0 3.81 1.72 6.57 4.1 6.57 2.07 0 4.1-3.26 4.1-6.57a4.1 4.1 0 0 0-4.1-4.12zm44.53 61.63a2.5 2.5 0 0 1 0-5 2.39 2.39 0 0 0 2.24-3.21l-4.92-13.35a2.38 2.38 0 0 0-1.46-1.43l-10.34-3.6a2.39 2.39 0 0 0-.78-.13H55.7a2.39 2.39 0 0 0-.76.12l-10.56 3.54a2.37 2.37 0 0 0-1.49 1.46l-4.76 13.42a2.39 2.39 0 0 0 2.25 3.18 2.5 2.5 0 1 1 0 5 7.39 7.39 0 0 1-7-9.85l4.76-13.41a7.34 7.34 0 0 1 4.62-4.54l10.57-3.54a7.39 7.39 0 0 1 2.34-.38h9.66a7.35 7.35 0 0 1 2.43.41l10.34 3.59a7.36 7.36 0 0 1 4.5 4.42l4.92 13.35a7.39 7.39 0 0 1-6.93 9.94zM60.54 63.29c-6 0-10-6.65-10-12.86a10 10 0 0 1 20.07 0c-.03 7.45-4.25 12.86-10.07 12.86zm0-17.9a5 5 0 0 0-5 5c0 3.64 2.2 7.86 5 7.86s5-3.31 5-7.86a5 5 0 0 0-5-5z"/></svg>