<svg viewBox="0 0 120 120" xmlns="http://www.w3.org/2000/svg"><circle cx="60" cy="60" fill="none" r="57" stroke="#56a0d3" stroke-linecap="round" stroke-linejoin="round" stroke-width="5"/><path d="m111.42 56a2.14 2.14 0 0 0 -2.61-1.51l-12.4 3.3a2.11 2.11 0 0 0 -1 .61l-7 7.56h-.07l-25.78-16.7a5 5 0 0 0 -5-.24l-12 6.26a.69.69 0 0 1 -.73-.07.65.65 0 0 1 -.27-.46.66.66 0 0 1 .13-.51l5.63-7.33a5.84 5.84 0 0 1 3.57-2.18l6.61-1.23a27.5 27.5 0 0 1 10.77.12l7 1.48a5 5 0 0 0 2.88-.26 1.66 1.66 0 0 0 .45-.25l14-10.1a2.14 2.14 0 0 0 .85-1.39 2.09 2.09 0 0 0 -.38-1.59 2.07 2.07 0 0 0 -1.39-.86 2.1 2.1 0 0 0 -1.59.38l-13.68 9.9a.91.91 0 0 1 -.23 0l-7-1.48a31.9 31.9 0 0 0 -12.43-.14l-6.61 1.23a10 10 0 0 0 -4.86 2.38l-5.91-.92h-.08l-13.37-10.9a2.14 2.14 0 1 0 -2.69 3.32l13.6 11a2.25 2.25 0 0 0 .36.24 5.26 5.26 0 0 0 1.51.5l3.41.54-3.77 4.9a5 5 0 0 0 .94 7 5 5 0 0 0 5.29.44l12-6.25a.68.68 0 0 1 .7 0l25.73 16.73a2 2 0 0 1 .88 1.29 2 2 0 0 1 -3 2.15l-13.97-8.33a2.13 2.13 0 0 0 -2.19 3.66l12.48 7.47a1.13 1.13 0 0 1 .51.7 1.06 1.06 0 0 1 -.16.85 2.47 2.47 0 0 1 -3.23.81l-10.88-5.93a2.14 2.14 0 0 0 -2 3.75l7.84 4.27 1.93 1.19a1 1 0 0 1 .46.65 1 1 0 0 1 -.21.83l-.06.09a2.17 2.17 0 0 1 -2.82.76l-8.42-4.27a2.1 2.1 0 0 0 -1.63-.13 2.13 2.13 0 0 0 -1.24 1.06 2.1 2.1 0 0 0 -.18 1.61 2.14 2.14 0 0 0 1.07 1.25l6.15 3.12a6.74 6.74 0 0 1 -3.71.5l-5.54-.87a5.38 5.38 0 0 0 -.92-7l-.08-.07a5.17 5.17 0 0 0 -1.77-.93 5.75 5.75 0 0 0 -5-6.9 5.42 5.42 0 0 0 -.1-.94 5.77 5.77 0 0 0 -2.53-3.73 5.87 5.87 0 0 0 -7.51 1 5.77 5.77 0 0 0 -8-.81l-5.64-7.43a2.07 2.07 0 0 0 -1-.75l-12.17-3.9a2.1 2.1 0 0 0 -1.63.13 2.15 2.15 0 0 0 -1.05 1.26 2.06 2.06 0 0 0 .14 1.63 2.1 2.1 0 0 0 1.25 1l11.5 3.65 5.91 7.79-1.48 2.23a5.78 5.78 0 0 0 1.37 8l.1.06a5.69 5.69 0 0 0 2.76 1 5.81 5.81 0 0 0 6.77 5.3c.17 0 .34-.08.49-.12a5.79 5.79 0 0 0 2.51 2.61 5.89 5.89 0 0 0 4.89.28 5.3 5.3 0 0 0 8.46.58l7.65 1.17a10.88 10.88 0 0 0 9.18-2.88 6.36 6.36 0 0 0 5.76-2.89 5.28 5.28 0 0 0 1-2.67 6.71 6.71 0 0 0 5.24-3 5.07 5.07 0 0 0 .81-2.14 6.3 6.3 0 0 0 6.01-7.6 3.31 3.31 0 0 0 -.12-.42l7.18-7.73 11.81-3.14a2.14 2.14 0 0 0 1.55-2.64zm-56.86 27.61-2.39 3.44a1.05 1.05 0 0 1 -1.27.37 1 1 0 0 1 -.62-.68 1.13 1.13 0 0 1 0-.63l2.62-3.8a1 1 0 0 1 .63-.35 1.12 1.12 0 0 1 .83.23 1.06 1.06 0 0 1 .2 1.42zm-3.65-5.93-4 5.72a1.69 1.69 0 0 0 -.17.29l-.74 1.14a1.53 1.53 0 0 1 -2 .48 1.53 1.53 0 0 1 -.72-1.88l5.15-7.56a1.53 1.53 0 0 1 2.19-.26 1.55 1.55 0 0 1 .29 2.07zm-5.1-5.56-5.88 8.54a1.87 1.87 0 0 0 -.17.31l-.51.77a1.51 1.51 0 0 1 -1 .64 1.47 1.47 0 0 1 -1.17-.26 1.55 1.55 0 0 1 -.38-2.12l.69-1 .12-.14 3.08-4.53a.6.6 0 0 0 .06-.11l2.62-3.83a1.54 1.54 0 0 1 2.11-.39 1.5 1.5 0 0 1 .67 1 1.52 1.52 0 0 1 -.24 1.12zm-8.7-.31-3.23 4.74a1.47 1.47 0 0 1 -2 .25l-.09-.06a1.48 1.48 0 0 1 -.35-2.06l3.11-4.45a1.53 1.53 0 0 1 2-.39 1.43 1.43 0 0 1 .67 1 1.38 1.38 0 0 1 -.11.97z" fill="#56a0d3"/></svg>