<svg viewBox="0 0 120 120" xmlns="http://www.w3.org/2000/svg"><g fill="none" stroke="#56a0d3" stroke-linecap="round" stroke-linejoin="round" stroke-width="5"><circle cx="60" cy="60" r="57"/><path d="m76.05 47.35h8.74a7.37 7.37 0 0 1 2.42.41l7.93 2.76a7.37 7.37 0 0 1 4.86 5.67l2.35 13.21a7.37 7.37 0 0 1 -2.8 7.16l-6.82 5.19"/><path d="m80.45 40.76c-4.45 0-7.45-5.42-7.45-10.28a7.47 7.47 0 0 1 14.94 0c-.02 5.96-3.17 10.28-7.49 10.28z"/><path d="m25.57 86.68-6-4.54a6.45 6.45 0 0 1 -2.45-6.27l2.08-11.56a6.45 6.45 0 0 1 4.24-5l6.94-2.41a6.45 6.45 0 0 1 2.12-.36h6.9a4.33 4.33 0 0 1 1.45.25l3.71 1.31"/><path d="m29.76 39.3a6.54 6.54 0 0 1 13.08 0c0 4.25-2.69 9-6.54 9s-6.54-3.79-6.54-9z"/><path d="m40.58 93.86a4.84 4.84 0 0 1 -4.58-6.47l4.7-13.29a4.84 4.84 0 0 1 3-3l10.47-3.5a4.84 4.84 0 0 1 1.54-.25h9.58a4.84 4.84 0 0 1 1.59.27l10.28 3.58a4.84 4.84 0 0 1 3 2.9l4.84 13.24a4.84 4.84 0 0 1 -4.54 6.52"/><path d="m60.54 60.78c-4.4 0-7.47-5.41-7.47-10.27a7.47 7.47 0 0 1 14.94 0c-.01 5.95-3.14 10.27-7.47 10.27z"/></g></svg>