<svg viewBox="0 0 120 120" xmlns="http://www.w3.org/2000/svg"><circle cx="60" cy="60" fill="none" r="57" stroke="#7daed3" stroke-linecap="round" stroke-linejoin="round" stroke-width="5"/><g fill="#7daed3"><path d="m60.4 45.52a9.1 9.1 0 1 0 9.06 9.14 9.1 9.1 0 0 0 -9.06-9.14zm0 14a4.85 4.85 0 1 1 4.81-4.9 4.85 4.85 0 0 1 -4.81 4.86z"/><path d="m60.4 34.54a21.26 21.26 0 0 0 -20.91 20 21.7 21.7 0 0 0 4.43 14.37l14.78 19.85a2.12 2.12 0 0 0 3.4 0l14.79-19.76a21.71 21.71 0 0 0 4.43-14.37 21.26 21.26 0 0 0 -20.92-20.09zm13.08 31.87-13.08 17.5-13.08-17.5a17.46 17.46 0 0 1 -3.59-11.53c.53-7.89 6.91-16.07 16.68-16.07s16.14 8.19 16.66 16.05a17.46 17.46 0 0 1 -3.59 11.55z"/></g></svg>