<svg viewBox="0 0 120 120" xmlns="http://www.w3.org/2000/svg"><circle cx="60" cy="60" fill="none" r="57" stroke="#fff" stroke-linecap="round" stroke-linejoin="round" stroke-width="5"/><path d="m86.44 42.4-2.55-3.17a5.45 5.45 0 0 1 -1-2.9l.18-4a5.13 5.13 0 0 0 -3.52-4.93l-3.85-1.1a4.94 4.94 0 0 1 -2.46-1.76l-2.24-3.35a5 5 0 0 0 -4.1-2.19 5.53 5.53 0 0 0 -1.67.26l-3.7 1.67a3.89 3.89 0 0 1 -1.5.18 3.51 3.51 0 0 1 -1.5-.26l-3.78-1.41a5 5 0 0 0 -1.58-.26 4.83 4.83 0 0 0 -4.17 2.19l-2.2 3.34a4.94 4.94 0 0 1 -2.46 1.76l-3.87 1.06a4.85 4.85 0 0 0 -3.47 4.93l.18 4a5.72 5.72 0 0 1 -1 2.9l-2.55 3a4.89 4.89 0 0 0 0 6.07l2.55 3.17a5.45 5.45 0 0 1 1 2.9l-.18 4a5.13 5.13 0 0 0 3.52 4.93l3.87 1.06a5.34 5.34 0 0 1 1.23.62l-5.55 36.09a3.53 3.53 0 0 0 .7 3 2.86 2.86 0 0 0 2.2 1 3.83 3.83 0 0 0 2-.62l9.03-5.14a2.09 2.09 0 0 1 1.06-.26 2.81 2.81 0 0 1 1.58.44l7.92 6.6a4 4 0 0 0 2.46 1c1.41 0 3-1.06 3-3.52l.09-8.36a1.27 1.27 0 0 1 .62.18l5.28 2.64a3.25 3.25 0 0 0 4.14-.62 3.51 3.51 0 0 0 .53-3.08l-6.48-29.26a3.89 3.89 0 0 1 1.32-.7l3.87-1.06a4.85 4.85 0 0 0 3.52-4.93v-4a5.72 5.72 0 0 1 1-2.9l2.55-3.17a5.15 5.15 0 0 0 -.02-6.04zm-27.29 54.31a6.14 6.14 0 0 0 -4-1.32 6.81 6.81 0 0 0 -3 .7l-8.15 4.67 4.84-31.51.26.35a5 5 0 0 0 4.14 2.2 5.53 5.53 0 0 0 1.67-.26l3.78-1.41a4.37 4.37 0 0 1 3 0l3.78 1.41a4 4 0 0 0 1.41.26l-.44 30.81zm13.38-4.71a4.77 4.77 0 0 0 -2.2-.53l.26-21.3a1.58 1.58 0 0 0 .41-.57l.26-.44 5.55 25zm10.92-45.9-2.55 3.17a8.8 8.8 0 0 0 -1.76 5.46l.18 4a1.45 1.45 0 0 1 -.7 1.06l-3.87 1.06a9.4 9.4 0 0 0 -4.67 3.34l-2.2 3.34a1.14 1.14 0 0 1 -1 .44.32.32 0 0 1 -.26-.09l-3.78-1.41a9.81 9.81 0 0 0 -5.81 0l-3.78 1.41c-.09 0-.18.09-.26.09a1.26 1.26 0 0 1 -1-.44l-2.2-3.34a8.9 8.9 0 0 0 -4.67-3.34l-3.87-1.06a1.06 1.06 0 0 1 -.7-1.06l.18-4a9.18 9.18 0 0 0 -1.73-5.46l-2.56-3.17a1.06 1.06 0 0 1 0-1.23l2.56-3.17a8.8 8.8 0 0 0 1.76-5.46l-.18-4a1.45 1.45 0 0 1 .7-1.06l3.87-1.06a9.4 9.4 0 0 0 4.67-3.34l2.18-3.39a1.14 1.14 0 0 1 1-.39.32.32 0 0 1 .26.09l3.74 1.36a9.6 9.6 0 0 0 2.9.44 9.6 9.6 0 0 0 2.9-.44l3.83-1.45c.09 0 .18-.09.26-.09a1.26 1.26 0 0 1 1 .44l2.2 3.34a8.9 8.9 0 0 0 4.67 3.34l3.87 1.06a1.06 1.06 0 0 1 .7 1.06l-.18 4a9.18 9.18 0 0 0 1.76 5.46l2.55 3.17a1.06 1.06 0 0 1 -.01 1.32z" fill="#fff"/><path d="m69.87 49.2a11.28 11.28 0 0 1 -10 5.88 10.89 10.89 0 0 1 -9.94-5.87" fill="none" stroke="#fff" stroke-linecap="round" stroke-linejoin="round" stroke-width="5"/><g fill="#fff"><ellipse cx="53.5" cy="39.74" rx="2.35" ry="2.3"/><ellipse cx="66.44" cy="39.74" rx="2.35" ry="2.3"/></g></svg>