<svg viewBox="0 0 120 120" xmlns="http://www.w3.org/2000/svg"><circle cx="60" cy="60" fill="none" r="57" stroke="#ff4000" stroke-linecap="round" stroke-linejoin="round" stroke-width="5"/><path d="m87.48 76.19a8.9 8.9 0 0 0 -8.61 6.67h-1.77a.74.74 0 0 1 -.74-.74v-14.7a14.33 14.33 0 0 0 4.62-26v-.09a15.31 15.31 0 0 0 -26.64-10.33 11.24 11.24 0 0 0 -3.09-.43 11.44 11.44 0 0 0 -11.25 9.71 14.33 14.33 0 0 0 5.19 27.48v14.36a.74.74 0 0 1 -.74.74h-1.75a8.9 8.9 0 1 0 0 4.45h1.77a5.19 5.19 0 0 0 5.19-5.19v-14.33h8.9v8.7a8.9 8.9 0 1 0 4.45 0v-8.7h8.9v14.33a5.19 5.19 0 0 0 5.19 5.19h1.77a8.9 8.9 0 1 0 8.61-11.12zm-53.39 13.35a4.45 4.45 0 1 1 4.45-4.45 4.45 4.45 0 0 1 -4.45 4.45zm31.14-4.45a4.45 4.45 0 1 1 -4.45-4.45 4.45 4.45 0 0 1 4.45 4.45zm-29.43-31.64a9.84 9.84 0 0 1 7-9.45 2.22 2.22 0 0 0 1.56-2.1 7 7 0 0 1 6.9-6.9 6.88 6.88 0 0 1 2.85.64 2.22 2.22 0 0 0 2.73-.74 10.86 10.86 0 0 1 19.67 6.37 11 11 0 0 1 -.06 1.1 2.22 2.22 0 0 0 1.2 2.22 9.88 9.88 0 0 1 -4.46 18.7h-27.51a9.9 9.9 0 0 1 -9.88-9.84zm51.68 36.09a4.45 4.45 0 1 1 4.45-4.45 4.45 4.45 0 0 1 -4.45 4.45z" fill="#ff4000"/></svg>