<svg id="Layer_1" data-name="Layer 1" xmlns="http://www.w3.org/2000/svg" viewBox="0 0 120 120"><defs><style>.cls-1,.cls-2{fill:none}.cls-1{stroke:#ff4000;stroke-linecap:round;stroke-linejoin:round;stroke-width:5px}</style></defs><title>icon-sprite</title><circle class="cls-1" cx="60" cy="60" r="57"/><path class="cls-2" d="M55.54 88.69A3.7 3.7 0 0 1 50.93 91l-1.82-.59a3.68 3.68 0 0 1-2.37-4.57v-.12a5.42 5.42 0 0 0-1.87-5.59l.61.45a5.42 5.42 0 0 0-5.89-.05l-.11.07a3.7 3.7 0 0 1-5.08-.84l-1.08-1.56a3.69 3.69 0 0 1 .77-5.09l.1-.08A5.41 5.41 0 0 0 36 67.41l.23.72a5.43 5.43 0 0 0-4.73-3.5h-.13A3.7 3.7 0 0 1 27.72 61v-2a3.69 3.69 0 0 1 3.62-3.67h.13a5.41 5.41 0 0 0 4.73-3.5l-.23.72A5.43 5.43 0 0 0 34.19 47l-.1-.08a3.69 3.69 0 0 1-.77-5.09l1.13-1.55a3.7 3.7 0 0 1 5.08-.84l.11.07a5.41 5.41 0 0 0 5.89-.05l-.61.45a5.41 5.41 0 0 0 1.87-5.59v-.12a3.7 3.7 0 0 1 2.37-4.57l1.77-.63a3.68 3.68 0 0 1 4.61 2.31v.12a5.41 5.41 0 0 0 4.79 3.42h-.76a5.41 5.41 0 0 0 4.79-3.42v-.12A3.7 3.7 0 0 1 69.07 29l1.82.59a3.68 3.68 0 0 1 2.37 4.57v.12a5.42 5.42 0 0 0 1.87 5.59l-.61-.45a5.42 5.42 0 0 0 5.89.05l.11-.07a3.7 3.7 0 0 1 5.08.84l1.13 1.55a3.69 3.69 0 0 1-.77 5.09l-.1.08A5.41 5.41 0 0 0 84 52.59l-.23-.72a5.43 5.43 0 0 0 4.73 3.5h.13A3.7 3.7 0 0 1 92.28 59v2a3.69 3.69 0 0 1-3.62 3.67h-.13a5.41 5.41 0 0 0-4.73 3.5l.23-.72A5.43 5.43 0 0 0 85.81 73l.1.08a3.69 3.69 0 0 1 .77 5.09l-1.13 1.55a3.7 3.7 0 0 1-5.08.84l-.11-.07a5.41 5.41 0 0 0-5.89.05l.61-.45a5.41 5.41 0 0 0-1.87 5.59v.12a3.7 3.7 0 0 1-2.37 4.57l-1.77.63a3.68 3.68 0 0 1-4.61-2.31v-.12a5.41 5.41 0 0 0-4.79-3.42h.76a5.41 5.41 0 0 0-4.79 3.42zM60 75.7A15.7 15.7 0 1 0 44.3 60 15.7 15.7 0 0 0 60 75.7z"/><path class="cls-1" d="M55.54 88.69A3.7 3.7 0 0 1 50.93 91l-1.82-.59a3.68 3.68 0 0 1-2.37-4.57v-.12a5.42 5.42 0 0 0-1.87-5.59l.61.45a5.42 5.42 0 0 0-5.89-.05l-.11.07a3.7 3.7 0 0 1-5.08-.84l-1.08-1.56a3.69 3.69 0 0 1 .77-5.09l.1-.08A5.41 5.41 0 0 0 36 67.41l.23.72a5.43 5.43 0 0 0-4.73-3.5h-.13A3.7 3.7 0 0 1 27.72 61v-2a3.69 3.69 0 0 1 3.62-3.67h.13a5.41 5.41 0 0 0 4.73-3.5l-.23.72A5.43 5.43 0 0 0 34.19 47l-.1-.08a3.69 3.69 0 0 1-.77-5.09l1.13-1.55a3.7 3.7 0 0 1 5.08-.84l.11.07a5.41 5.41 0 0 0 5.89-.05l-.61.45a5.41 5.41 0 0 0 1.87-5.59v-.12a3.7 3.7 0 0 1 2.37-4.57l1.77-.63a3.68 3.68 0 0 1 4.61 2.31v.12a5.41 5.41 0 0 0 4.79 3.42h-.76a5.41 5.41 0 0 0 4.79-3.42v-.12A3.7 3.7 0 0 1 69.07 29l1.82.59a3.68 3.68 0 0 1 2.37 4.57v.12a5.42 5.42 0 0 0 1.87 5.59l-.61-.45a5.42 5.42 0 0 0 5.89.05l.11-.07a3.7 3.7 0 0 1 5.08.84l1.13 1.55a3.69 3.69 0 0 1-.77 5.09l-.1.08A5.41 5.41 0 0 0 84 52.59l-.23-.72a5.43 5.43 0 0 0 4.73 3.5h.13A3.7 3.7 0 0 1 92.28 59v2a3.69 3.69 0 0 1-3.62 3.67h-.13a5.41 5.41 0 0 0-4.73 3.5l.23-.72A5.43 5.43 0 0 0 85.81 73l.1.08a3.69 3.69 0 0 1 .77 5.09l-1.13 1.55a3.7 3.7 0 0 1-5.08.84l-.11-.07a5.41 5.41 0 0 0-5.89.05l.61-.45a5.41 5.41 0 0 0-1.87 5.59v.12a3.7 3.7 0 0 1-2.37 4.57l-1.77.63a3.68 3.68 0 0 1-4.61-2.31v-.12a5.41 5.41 0 0 0-4.79-3.42h.76a5.41 5.41 0 0 0-4.79 3.42zM60 75.7A15.7 15.7 0 1 0 44.3 60 15.7 15.7 0 0 0 60 75.7z"/></svg>