<svg viewBox="0 0 120 120" xmlns="http://www.w3.org/2000/svg"><circle cx="60" cy="60" fill="none" r="57" stroke="#fff" stroke-linecap="round" stroke-linejoin="round" stroke-width="5"/><path d="m85.64 26.48a2.23 2.23 0 0 0 -3.11.3l-12.36 15.22h-35.53a2.22 2.22 0 0 0 -2.2 2.24 2.19 2.19 0 0 0 .5 1.39l24.2 30.28.1 15.32h-10.06a2.22 2.22 0 0 0 0 4.44h24.57a2.22 2.22 0 0 0 0-4.44h-10.06l-.1-15.25 24.27-30.4a2.23 2.23 0 0 0 -1.7-3.58h-8.16l9.92-12.36a2.22 2.22 0 0 0 -.28-3.16zm-19.09 19.92-5.48 6.73h-16.43l-5.41-6.73zm4 11.17-11.17 14-11.18-14zm8.88-11.17-5.43 6.73h-7.16l5.48-6.73z" fill="#fff"/></svg>