<svg viewBox="0 0 120 120" xmlns="http://www.w3.org/2000/svg"><g fill="none" stroke="#ff4000" stroke-linecap="round" stroke-linejoin="round" stroke-width="5"><circle cx="60" cy="60" r="57"/><path d="m34.56 83h-6.75a9 9 0 0 1 -9-9v-14.93a9 9 0 0 1 9-9h35.7a9 9 0 0 1 9 9v14.93a9 9 0 0 1 -9 9h-17.45l-13.5 11.28z"/><path d="m72.51 68.05h4.49l13.5 11.28-1.99-11.33h6.75a9 9 0 0 0 9-9v-14.88a9 9 0 0 0 -9-9h-35.7a9 9 0 0 0 -9 9v6"/><circle cx="45.49" cy="66.52" r=".74"/><circle cx="55.49" cy="66.52" r=".74"/><circle cx="35.49" cy="66.52" r=".74"/></g></svg>