<svg viewBox="0 0 120 57.35" xmlns="http://www.w3.org/2000/svg"><path d="m90.18 40.84a2.23 2.23 0 0 1 -.29 3 2.42 2.42 0 0 1 -3.19-.29l-5.07-6.52-4.93 6.42a2.27 2.27 0 0 1 -3.19.29 2.12 2.12 0 0 1 -.43-3l5.8-7.54-5.8-7.54a2.28 2.28 0 1 1 3.62-2.75l4.93 6.52 5.07-6.23a2.22 2.22 0 1 1 3.48 2.75l-5.65 7.35zm-26.38-.84a6.68 6.68 0 0 1 -6.8-6.7 6.81 6.81 0 0 1 13.63 0 6.87 6.87 0 0 1 -6.83 6.7zm-20 0a6.68 6.68 0 0 1 -6.8-6.7 6.81 6.81 0 0 1 13.63 0 6.68 6.68 0 0 1 -6.84 6.7zm20-17.69a11.22 11.22 0 0 0 -9.86 5.8 11.28 11.28 0 0 0 -10-5.8 11.92 11.92 0 0 0 -6.81 2.17v-9.3a2.23 2.23 0 0 0 -2.13-2.18 2.26 2.26 0 0 0 -2.32 2.17v18.28a11.11 11.11 0 0 0 11.11 10.87 11.41 11.41 0 0 0 10-5.94 11.35 11.35 0 0 0 9.86 5.94 11.2 11.2 0 0 0 11.35-11.16c.11-5.95-5-10.88-11.2-10.88z" fill="#262626"/></svg>