<svg viewBox="0 0 120 57.35" xmlns="http://www.w3.org/2000/svg"><path d="m53.41 31.55a8.58 8.58 0 1 1 -8.58-8.55 8.45 8.45 0 0 1 8.58 8.55zm-3.76 0a4.84 4.84 0 1 0 -9.65 0 4.84 4.84 0 1 0 9.65 0z" fill="#ea4335"/><path d="m71.92 31.55a8.58 8.58 0 1 1 -8.58-8.55 8.45 8.45 0 0 1 8.58 8.55zm-3.76 0a4.84 4.84 0 1 0 -9.65 0 4.84 4.84 0 1 0 9.65 0z" fill="#fbbc05"/><path d="m89.66 23.51v15.36c0 6.32-3.73 8.9-8.13 8.9a8.14 8.14 0 0 1 -7.58-5l3.27-1.36a4.72 4.72 0 0 0 4.31 3c2.82 0 4.57-1.74 4.57-5v-1.26h-.1a5.82 5.82 0 0 1 -4.5 1.94 8.56 8.56 0 0 1 0-17.1 5.93 5.93 0 0 1 4.5 1.92h.13v-1.4h3.57zm-3.3 8.07c0-3-2-5.21-4.57-5.21a5 5 0 0 0 -4.79 5.21 4.91 4.91 0 0 0 4.76 5.15c2.59 0 4.6-2.17 4.6-5.15z" fill="#4285f4"/><path d="m95.54 14.51v25.07h-3.67v-25.07z" fill="#34a853"/><path d="m109.81 34.36 2.92 1.94a8.51 8.51 0 0 1 -7.13 3.79 8.37 8.37 0 0 1 -8.49-8.55c0-5.09 3.66-8.55 8.07-8.55s6.61 3.53 7.32 5.44l.39 1-11.43 4.74a4.35 4.35 0 0 0 4.15 2.59 4.88 4.88 0 0 0 4.21-2.37zm-9-3.08 7.64-3.17a3.31 3.31 0 0 0 -3.17-1.81 4.69 4.69 0 0 0 -4.44 4.98z" fill="#ea4335"/><path d="m22.38 29.32v-3.63h12.23a12 12 0 0 1 .18 2.19 12 12 0 0 1 -3.14 8.49 12.14 12.14 0 0 1 -9.26 3.73 13.47 13.47 0 0 1 -13.48-13.28 13.47 13.47 0 0 1 13.48-13.28 12.65 12.65 0 0 1 9.1 3.66l-2.56 2.56a9.25 9.25 0 0 0 -6.54-2.59 9.65 9.65 0 0 0 0 19.3 8.88 8.88 0 0 0 6.71-2.66 7.52 7.52 0 0 0 2-4.49z" fill="#4285f4"/></svg>