<svg viewBox="0 0 120 57.35" xmlns="http://www.w3.org/2000/svg"><g fill="#b0b0b0"><path d="m74.14 36.1a1.5 1.5 0 0 0 .34 1.9c.63.42 1.59.22 2.46.28v-2.79c-1.21.01-2.38-.07-2.8.61z"/><path d="m56.6 37.56c.41-1.37.9-2.68 1.24-4.07h-2.59q.63 2.07 1.35 4.07z"/><path d="m65.48 35.65a1.59 1.59 0 0 0 .22 2.46 4.88 4.88 0 0 0 2.25.11v-3a3.45 3.45 0 0 0 -2.47.43z"/><path d="m31.69 22.91v2.85c1.69.16 3.37-.18 3.3-1.57s-1.69-1.35-3.3-1.28z"/><path d="m43.08 21.28a1.59 1.59 0 0 0 -.22-2.41 4.88 4.88 0 0 0 -2.25-.11v2.91a3.45 3.45 0 0 0 2.47-.39z"/><path d="m34.65 19.58c-.23-1-1.58-.95-3-.95v2.79c1.78.11 3.35-.12 3-1.84z"/><path d="m46.46 35.65a1.59 1.59 0 0 0 .22 2.46 4.88 4.88 0 0 0 2.25.11v-3a3.45 3.45 0 0 0 -2.47.43z"/><path d="m23.87 9.5.11 38h72.27v-38zm38.2 7.76h1.79v10.06h-1.79zm-9.44 0h7.43v1.5h-2.76v8.56h-1.88v-8.56h-2.79zm-3.8 0h1.84v10.06h-1.84zm-10 0c3.19-.16 7.07-.25 6.53 3.45a2.29 2.29 0 0 1 -1.9 1.9c1.62 1 2.12 3.09 3.13 4.7h-1.92a21.76 21.76 0 0 1 -1.13-2.17c-.6-1.15-1.21-2.08-2.93-2v4.13h-1.77zm-8.83 10.05v-10c3-.31 6.68-.31 6.49 2.86a2.09 2.09 0 0 1 -1.28 1.9c1.41.26 2.13 2.3 1.23 3.83s-3.9 1.41-6.44 1.41zm12 12.42-2.26-4.3-2.4 4.3h-1.66l3.16-6.14v-3.89h1.79v3.88l3.18 6.14zm8.74 0c-3.19.16-7.07.25-6.53-3.45a2.29 2.29 0 0 1 1.9-1.9c-1.65-1-2.15-3.09-3.15-4.71h1.92a21.74 21.74 0 0 1 1.12 2.13c.6 1.15 1.21 2.08 2.93 2v-4.14h1.79zm6.7 0h-1.86l-3.58-10.03h1.84l.88 2.3h3.61l.78-2.26h1.89zm12.26 0c-3.19.16-7.07.25-6.53-3.45a2.29 2.29 0 0 1 1.9-1.9c-1.59-1-2.09-3.09-3.09-4.71h1.92a21.75 21.75 0 0 1 1.1 2.13c.6 1.15 1.21 2.08 2.93 2v-4.14h1.73zm-3.6-13.45a10.64 10.64 0 0 1 .78-1.28c1 .94 4.44 1.42 4-.78a1.43 1.43 0 0 0 -.67-.86c-1.47-.92-4.09-1.2-3.8-3.85s4.46-3.28 6.26-1.4a9.29 9.29 0 0 1 -.78 1.23c-.59-.84-3.78-1.33-3.69.45.07 1.22 2.48 1.54 3.58 2.4l.23.24a3.12 3.12 0 0 1 -.34 4.4 4.8 4.8 0 0 1 -5.57-.55zm12.59 13.45c-2.49 0-5.42.26-6.29-1.51-.53-1.12-.14-3 1-3.35-2.16-.51-1.84-3.89-.16-4.75 1.48-.79 5.44-.22 5.44-.22zm4.22 0h-1.85v-10.07h1.84zm-.06-12.42h-1.85v-4.4l-4-.05v4.46h-1.75v-10.06h1.82v4h4v-4h1.83zm7.24 12.41h-1.83v-8.45h-4v-1.61h5.81z"/><path d="m73.69 32.4c-.2 1.6 1.45 1.74 3.24 1.6v-2.83c-1.59-.06-3.06-.01-3.24 1.23z"/></g></svg>