<svg id="Calque_1" data-name="Calque 1" xmlns="http://www.w3.org/2000/svg" viewBox="0 0 571.9 169.8"><defs><style>.cls-1{fill:#fefefe;opacity:0}.cls-2{fill:#f34e24}.cls-3{fill:#01a3ee}.cls-4{fill:#80b800}.cls-5{fill:#feb802}.cls-6{fill:#737373}.cls-7{fill:#d4a61a}.cls-8{fill:#d5a61b}.cls-9{fill:#d4a519}.cls-10{fill:#747474}</style></defs><title>Microsoft-gold-partner</title><path class="cls-1" d="M0 0H571.9V169.8H0z"/><path class="cls-2" d="M81.53 79.69V16.33c0-.71-.17-.86-.86-.85H16.48v65h64.19c.69.06.86-.09.86-.79z"/><path class="cls-3" d="M80.59 87.32H16.47v64.62h64.19c.68 0 .87-.14.87-.85V88.22c-.02-.9-.02-.9-.94-.9z"/><path class="cls-4" d="M152.15 15.47H89.07c-.64 0-.79.16-.78.79v63.5c0 .64.17.78.79.78h63.08c.64 0 .78-.17.78-.79v-63.5c0-.64-.17-.78-.79-.78z"/><path class="cls-5" d="M152.16 87.3H89.07c-.63 0-.79.16-.79.79v63.09c0 .59.12.77.74.76h63.15c.61 0 .75-.15.75-.75V88.1c.02-.6-.11-.8-.76-.8z"/><path class="cls-6" d="M173.62 85.68c0 .92 0 .92.94.92h9.08c.71 0 .88-.18.88-.88V42.53q0-3.67-.21-7.34c-.06-1-.1-2-.15-3.07a1.88 1.88 0 0 1 .27.63 50.09 50.09 0 0 0 1.45 4.83q9.92 24.24 19.9 48.46a.78.78 0 0 0 .87.56h6.24a.94.94 0 0 0 1.05-.71c5.42-13.41 10.88-26.8 16.28-40.22 1.59-4 3.47-7.8 4.49-12 .14-.58.31-1.15.47-1.72h.08c-.12 2.86-.34 5.72-.35 8.58 0 15.11 0 30.23-.06 45.34 0 .52.13.67.65.66h10.19c.64 0 .75-.2.75-.79V19.88c0-.61-.15-.77-.77-.77h-14.14a1.22 1.22 0 0 0-1.36.89Q225 32.8 219.79 45.5c-2.27 5.55-4.56 11.1-6.77 16.67-1 2.61-1.92 5.28-2.87 7.94-.28-.18-.28-.46-.36-.69-.75-2.16-1.4-4.35-2.24-6.47Q199 41.37 190.39 19.8a.81.81 0 0 0-.9-.61h-15c-.66 0-.84.15-.84.83v32.86q0 16.43-.03 32.8zm365 1.03c5 1.76 9.9 1.3 14.78-.45.34-.12.38-.34.38-.64v-8.53c0-.15.08-.36-.1-.44s-.29.1-.42.19a8.61 8.61 0 0 1-5.52 1.44 5 5 0 0 1-4.84-3.48 12.27 12.27 0 0 1-.58-4V48.06c0-.53.15-.65.66-.65h10.12c.53 0 .72-.11.71-.69v-7.83c0-.54-.14-.71-.7-.7h-10c-.69 0-.82-.2-.82-.85V24.45c0-.56-.09-.71-.69-.52q-5.05 1.57-10.13 3.05a.77.77 0 0 0-.67.89v9.64c0 .35.06.67-.5.67h-16.08c-.4 0-.52-.13-.51-.52v-4.37a17.71 17.71 0 0 1 .41-4.33c.64-2.61 2-4.53 4.79-5.19a10.77 10.77 0 0 1 6.88.88c.46.2.64.19.63-.39v-8.73c0-.46-.17-.64-.59-.76a23.14 23.14 0 0 0-4.09-.68h-3.33l-1.37.17a16.35 16.35 0 0 0-14.71 16.08c-.08 2.31 0 4.62 0 6.93 0 .91 0 .91-.88.91H495c-.52 0-.66.15-.66.67v7.9c0 .54.17.66.68.65h6.45c.7 0 .88.16.88.87v37.5c0 .61.15.78.77.77h9.7c1.12 0 1 .14 1-.94V48.24c0-.69.2-.83.85-.82h15.46c.62 0 .81.14.81.79v23.57a26.54 26.54 0 0 0 .66 6.25c.87 4.08 2.97 7.24 7.02 8.68zm-57.81-47.32a27.29 27.29 0 0 0-12-2.3 29.26 29.26 0 0 0-7.42.87c-8.08 2-13.74 6.8-16.35 14.81a31.52 31.52 0 0 0-.3 18.83A20.82 20.82 0 0 0 460 86.68a29.77 29.77 0 0 0 16.87-.19 21.13 21.13 0 0 0 14-12.44 31.35 31.35 0 0 0 1-21.88 20 20 0 0 0-11.06-12.78zM480 70.83a11 11 0 0 1-10.67 7.48 12.23 12.23 0 0 1-13.31-10.22 20.84 20.84 0 0 1-.6-5.31A21.86 21.86 0 0 1 457 54c2.43-5.76 7.47-7.88 12.95-7.38a11.81 11.81 0 0 1 6.69 2.54 12 12 0 0 1 4 6.81 25.67 25.67 0 0 1-.64 14.86zm-94.29-32.56a30.69 30.69 0 0 0-19.27.58 21 21 0 0 0-12.69 11.83 30.72 30.72 0 0 0-2.27 12.62 28.93 28.93 0 0 0 .85 7c2 8 6.73 13.48 14.62 16.06a29.57 29.57 0 0 0 15.25.78c8.27-1.67 14.16-6.33 17.13-14.31a31.43 31.43 0 0 0 .78-19.8c-2.11-7.48-6.89-12.55-14.4-14.76zm2.41 32.22a11 11 0 0 1-10.85 7.82 13.12 13.12 0 0 1-8.61-2.46A13.35 13.35 0 0 1 364 68a20.77 20.77 0 0 1-.59-5 22.75 22.75 0 0 1 1.5-8.92c2.39-5.78 7.39-7.94 12.9-7.47a11.32 11.32 0 0 1 10.75 9.27 26 26 0 0 1-.44 14.61zm19.19 14.89a33 33 0 0 0 15.12 2.31 21.54 21.54 0 0 0 9.69-3A14.16 14.16 0 0 0 437 65.76a15.19 15.19 0 0 0-6-5.34c-2.53-1.39-5.23-2.43-7.86-3.61A12.79 12.79 0 0 1 420 55a5 5 0 0 1-1.7-4.73 4.32 4.32 0 0 1 3.19-3.56 10.5 10.5 0 0 1 4.1-.5 21.25 21.25 0 0 1 10.16 3.3c.14.09.26.28.5.17V39.56c0-.42-.19-.53-.54-.64a39.33 39.33 0 0 0-7-1.56 25.23 25.23 0 0 0-12.54 1.34c-7 2.77-10.59 9-9.29 16.41a12.71 12.71 0 0 0 6.37 8.88 53.76 53.76 0 0 0 7.27 3.4 18.84 18.84 0 0 1 5 2.7 4.71 4.71 0 0 1 1.7 4.77 4.2 4.2 0 0 1-3.47 3.36 17.72 17.72 0 0 1-10-.63 24 24 0 0 1-7-3.72 1.24 1.24 0 0 0-.11.75v9.71a1 1 0 0 0 .67 1.05zM313.39 39a30.61 30.61 0 0 0-20.11-.62A22 22 0 0 0 278.61 52a29.72 29.72 0 0 0-.88 19.76 20.89 20.89 0 0 0 13.7 14.52 30.35 30.35 0 0 0 16.13.8 20.26 20.26 0 0 0 6.28-2.29c.28-.16.54-.3.54-.72v-10a1.42 1.42 0 0 0-.67.36c-4 2.65-8.27 4.32-13.15 3.75S292 75.22 290 70.71a18.86 18.86 0 0 1 .41-16.85 12.85 12.85 0 0 1 9.37-7 17 17 0 0 1 11 1.54 18.14 18.14 0 0 1 3.53 2.3 1.35 1.35 0 0 0 .1-.79v-9.36a1.32 1.32 0 0 0-1.02-1.55z"/><path class="cls-7" d="M214.07 135.44v-10.75c0-.36 0-.65-.51-.65h-15.81c-.39 0-.52.12-.51.51v4.09c0 .54.13.7.68.69h9.57c.58 0 .73.16.73.73v12.41a1.2 1.2 0 0 1-.81 1.3 22.54 22.54 0 0 1-12.87 1.65c-6-.88-10.43-4-12.88-9.53a24.7 24.7 0 0 1-.38-19.81c2.47-6.16 7.08-10.13 13.73-11.22a25.62 25.62 0 0 1 17.42 3.14c.51.29.65.27.64-.35v-4.44c0-1.44 0-1.43-1.34-1.94a33.18 33.18 0 0 0-16.36-1.79c-9.1 1.19-15.74 6-19.51 14.34a28.79 28.79 0 0 0-.18 23.62 21 21 0 0 0 12.7 12 27.75 27.75 0 0 0 11.81 1.34 33.34 33.34 0 0 0 13.21-3.77 1.07 1.07 0 0 0 .68-1.1c-.08-3.45-.01-6.91-.01-10.47z"/><path class="cls-6" d="M334.27 85.76v-24a18.24 18.24 0 0 1 2.38-9.48 8.73 8.73 0 0 1 9.35-4.4 12.83 12.83 0 0 1 5 1.87V38.47c0-.39-.27-.44-.53-.51a13.41 13.41 0 0 0-6.57-.34c-4.39.89-7.21 3.69-9.09 7.61-.17.36-.33.73-.49 1.1h-.12v-.67-6.65c0-.54-.14-.71-.69-.71h-10c-.58 0-.67.19-.67.71v46.93c0 .61.2.71.75.7h9.77c.76-.02.91-.23.91-.88z"/><path class="cls-8" d="M312.35 97.79c.05-.4-.13-.51-.52-.5h-4.51c-.63 0-.76.16-.75.77v21.2a15.43 15.43 0 0 0-3.06-3.34c-3.19-2.41-6.84-2.74-10.62-2.15-5.49.85-9.25 4.06-11.45 9a24.87 24.87 0 0 0-.82 18.26c1.85 5.68 5.76 9.25 11.88 9.85 5.77.56 10.51-1.28 13.68-6.38.09-.14.11-.36.39-.38v5.26c0 .58.1.81.74.78 1.41-.06 2.82-.06 4.23 0 .7 0 .82-.21.82-.85V98.15a2.71 2.71 0 0 1-.01-.36zM306 138.28c-1.37 4.11-3.93 7-8.4 7.67-5.72.8-10-2-11.55-7.55a20 20 0 0 1 .72-13.63 10.42 10.42 0 0 1 15.69-4.5 9.84 9.84 0 0 1 4.1 7.82v3.4a20.61 20.61 0 0 1-.56 6.79z"/><path class="cls-6" d="M355.81 99.73a20.59 20.59 0 0 0-9.71-2.14h-13.93c-.61 0-.8.13-.8.78v50.53c0 .58.14.74.72.72q2.32-.06 4.64 0c.6 0 .77-.12.76-.75v-18.09c0-.66.1-.92.84-.88 1.43.07 2.86 0 4.3 0a31 31 0 0 0 7.3-.57 16.38 16.38 0 0 0 11.54-8.59 17.24 17.24 0 0 0 1.53-10.26 13.22 13.22 0 0 0-7.19-10.75zm.46 17.39c-1.21 4-4.17 6.1-8.13 6.95a19.27 19.27 0 0 1-4.06.41h-5.89c-.56 0-.74-.12-.73-.71v-10-10c0-.5.07-.73.66-.71 3 .09 6-.13 9 .15a13.66 13.66 0 0 1 4.6 1.19 8.07 8.07 0 0 1 4.56 5.35 13.29 13.29 0 0 1-.01 7.36zm162.18-3.97a16.12 16.12 0 0 0-10.81-1.21 15.9 15.9 0 0 0-11.75 9.91 24.4 24.4 0 0 0 .13 19.53 14.05 14.05 0 0 0 10.32 8.53 24.74 24.74 0 0 0 10.18 0 18.08 18.08 0 0 0 6.84-2.71c.24-.16.5-.28.5-.67v-5.25l-.67.48a18.13 18.13 0 0 1-11.59 3.66 10.85 10.85 0 0 1-10.28-7 17.37 17.37 0 0 1-1.06-5.27c0-.62.13-.77.74-.76h24.95c.16 0 .46-.07.46-.42a37.44 37.44 0 0 0-.59-8.62c-1.06-4.42-3.18-8.09-7.37-10.2zm1.2 14.25H501c-.57 0-.73-.07-.61-.7.73-3.72 2.38-6.84 5.72-8.84a9.07 9.07 0 0 1 14 6.89c.1.66.1 1.33.18 2s-.12.65-.64.65zM395 121c-.93-4.69-3.54-7.84-8.29-9a21.18 21.18 0 0 0-7-.35 22.64 22.64 0 0 0-9.55 3 .88.88 0 0 0-.48.88v4.85c0 .17-.08.37.14.52l.48-.37a18.12 18.12 0 0 1 11.87-4.05 6.58 6.58 0 0 1 6.7 5.15 17.26 17.26 0 0 1 .53 3.62c0 .49-.11.68-.61.75-2.45.32-4.89.66-7.34 1a43.15 43.15 0 0 0-6.94 1.26c-3.29 1-6 2.78-7.49 6.08a13.28 13.28 0 0 0-1 6.23 9.8 9.8 0 0 0 6.6 8.9 15.08 15.08 0 0 0 6.21.79 11.91 11.91 0 0 0 8.88-4.48c.54-.67 1-1.39 1.64-2.23v5.38c0 .43.12.55.55.54h4.71c.58 0 .72-.16.72-.73v-23.22A23.68 23.68 0 0 0 395 121zm-7.15 19.58A9.88 9.88 0 0 1 376.5 145a5.91 5.91 0 0 1-4.25-6.42 13.81 13.81 0 0 1 .2-1.58 4.86 4.86 0 0 1 2.62-3.46 18.94 18.94 0 0 1 6.24-1.7c2.56-.36 5.12-.69 7.67-1.06.41-.06.53 0 .51.42v2.41a12.33 12.33 0 0 1-1.61 7zm-119.1-54.73V62.42 39.06c0-.62-.16-.77-.77-.76h-9.84c-.54 0-.7.14-.7.69v46.93c0 .55.15.69.69.69h9.84c.62 0 .78-.14.78-.76z"/><path class="cls-7" d="M245.6 114.27a21 21 0 0 0-9.47-.46c-5.83 1-10.23 4-12.6 9.45a22.93 22.93 0 0 0-.61 16.84 15.16 15.16 0 0 0 9.64 9.83 20 20 0 0 0 8.95.91 16 16 0 0 0 12.81-8.11 21.36 21.36 0 0 0 2.55-11.4 25 25 0 0 0-.79-5.89c-1.54-5.56-4.84-9.49-10.48-11.17zm4.53 24.29a10.12 10.12 0 0 1-9.7 7.52c-3.9.21-7.31-.85-9.88-4a13.62 13.62 0 0 1-2.88-7.66c-.06-.69-.07-1.38-.09-1.8a18.8 18.8 0 0 1 1.29-7.38c2.27-5.27 6.78-7.27 11.95-6.84 5.83.49 8.92 4.38 9.84 9.7a21.93 21.93 0 0 1-.53 10.46z"/><path class="cls-6" d="M485.3 120.5c-1.06-3.81-3.12-6.84-7-8.15-5.33-1.79-12.22-.84-16.29 5.23l-.66 1c-.22-.26-.14-.5-.14-.71v-4.85c0-.46-.14-.58-.59-.57h-4.85c-.44 0-.54.14-.54.56v36.05c0 .46.13.59.59.58h4.64c.63 0 .75-.18.75-.77v-20.1a18.46 18.46 0 0 1 .26-3.1c.73-4.28 4-8.5 8.89-9 4.05-.39 7.41 1.07 8.87 5.39a19.55 19.55 0 0 1 .88 6.35v20.52c0 .55.14.7.69.69h4.57c.6 0 .71-.19.71-.74v-21.91a23.8 23.8 0 0 0-.78-6.47zm-37.21 25.99v-2.31a7 7 0 0 1-4.47 1.23 4.44 4.44 0 0 1-4.62-3.93 14.61 14.61 0 0 1-.28-3v-20.45c0-.5.11-.67.64-.66h8.11c.46 0 .66-.08.64-.6q-.05-1.9 0-3.81c0-.5-.16-.61-.63-.61h-8.18c-.45 0-.59-.12-.58-.58v-6.59-3.8c-1.82.58-3.57 1.16-5.33 1.69a.75.75 0 0 0-.64.87v7.69c0 .59-.17.72-.73.71h-5.06c-.42 0-.62.07-.61.56v3.88c0 .47.14.58.59.57H432c.64 0 .75.19.74.77v21.42a17.26 17.26 0 0 0 .42 3.92c.63 2.73 2 5 4.68 6a13.22 13.22 0 0 0 9.54 0 .88.88 0 0 0 .7-1c-.08-.58.01-1.28.01-1.97z"/><path class="cls-9" d="M271.07 97.87c.07-.44-.1-.59-.56-.58h-4.37c-.63 0-.8.15-.8.79v51.35c0 .57.13.75.72.73 1.38 0 2.77-.06 4.16 0 .7 0 .86-.16.86-.86V98.16a1.89 1.89 0 0 1-.01-.29z"/><path class="cls-10" d="M554 113c0-.54-.21-.73-.67-.83-4.15-.89-7.63.16-10.32 3.52a21.69 21.69 0 0 0-2.44 4.28v-.67-6c0-.74-.22-.88-.89-.85-1.13.05-2.26 0-3.4 0-1.7 0-1.7 0-1.7 1.67v34.66c0 .73.21.88.88.85 1.41-.05 2.82-.07 4.23 0 .76 0 .89-.23.88-.92v-14.14c0-2.08-.08-4.16.11-6.23a14.57 14.57 0 0 1 2.76-7.85 7.49 7.49 0 0 1 6.78-3.16 7.31 7.31 0 0 1 3.76 1.2c-.04-1.96-.07-3.76.02-5.53zm-129.31-.82a10.32 10.32 0 0 0-5.94.18 11 11 0 0 0-6.38 6.63c-.14.33-.26.66-.39 1h-.15v-.65-6.24c0-.5-.09-.68-.64-.67h-4.71c-.47 0-.63.11-.63.61v36c0 .51.18.61.64.6h4.71c.56 0 .63-.19.63-.68v-16.15c0-1.5 0-3 .12-4.5a14.54 14.54 0 0 1 2.78-7.85 7.47 7.47 0 0 1 6.73-3.13 7.13 7.13 0 0 1 3.79 1.22v-5.85c.01-.46-.31-.47-.56-.52z"/><path class="cls-6" d="M259 29.67a7.94 7.94 0 0 0 5.32 1.06A6.38 6.38 0 0 0 270 23c-.66-3.11-3.37-5.18-6.9-5.18a6.8 6.8 0 0 0-1.62.15 6.2 6.2 0 0 0-5 4.91 6.32 6.32 0 0 0 2.52 6.79z"/></svg>