<svg viewBox="0 0 50 50" xmlns="http://www.w3.org/2000/svg"><path d="m24.87 4.64a20.36 20.36 0 0 0 -8.18 39 18 18 0 0 1 .36-4.64l2.62-11.09a7.82 7.82 0 0 1 -.67-3.25c0-3 1.75-5.27 3.92-5.27 1.86 0 2.75 1.39 2.75 3.05 0 1.87-1.19 4.65-1.8 7.23a3.15 3.15 0 0 0 3.22 3.92c3.85 0 6.45-5 6.45-10.82 0-4.47-3-7.81-8.47-7.81a9.64 9.64 0 0 0 -10 9.75 5.88 5.88 0 0 0 1.34 4 1 1 0 0 1 .29 1.13c-.1.38-.32 1.28-.41 1.64a.7.7 0 0 1 -1 .5c-2.85-1.16-4.17-4.27-4.17-7.77 0-5.79 4.88-12.72 14.55-12.72 7.77 0 12.89 5.62 12.89 11.66 0 8-4.44 14-11 14a5.82 5.82 0 0 1 -5-2.53s-1.18 4.69-1.43 5.59a17.6 17.6 0 0 1 -2 4.37 20.36 20.36 0 1 0 5.74-39.94z" fill="#fff"/></svg>