<svg id="Layer_1" data-name="Layer 1" xmlns="http://www.w3.org/2000/svg" viewBox="0 0 120 57.35"><defs><style>.cls-1,.cls-2{fill:#b0b0b0}.cls-1{fill-rule:evenodd}</style></defs><title>icon-sprite</title><path class="cls-1" d="M46.68 46.81H48a2.58 2.58 0 0 0 1.83-.47 2.14 2.14 0 0 0 .7-1.52 1.77 1.77 0 0 0-.74-1.44 2.4 2.4 0 0 0-1.48-.31h-1.75l-1.05 6.28h.74l.43-2.54zm.11-.63l.43-2.49h1.32a1.24 1.24 0 0 1 .7.19 1.08 1.08 0 0 1 .43.93 1.28 1.28 0 0 1-.61 1.19c-.27.16-.51.2-1.4.2zm7.41 3.16v-.2a5.09 5.09 0 0 1 .12-.86 17.36 17.36 0 0 0 .35-2.5c0-.74-.78-1.25-1.87-1.25a2.09 2.09 0 0 0-2 1l.66.31a1.4 1.4 0 0 1 1.36-.82c.66 0 1 .31 1 .9a2.34 2.34 0 0 1 0 .47h-.7a5.36 5.36 0 0 0-1.56.15 1.52 1.52 0 0 0-1.25 1.48 1.39 1.39 0 0 0 1.48 1.36 2 2 0 0 0 1.72-1.05 2.2 2.2 0 0 0-.08.7v.24zM53.77 47a2.25 2.25 0 0 1-.39 1 1.8 1.8 0 0 1-1.44.89.73.73 0 0 1-.82-.78 1 1 0 0 1 .62-.9 3.22 3.22 0 0 1 1.4-.24h.62zM56 49.34l.19-1.05a7.14 7.14 0 0 1 .47-1.83c.35-.78.82-1.17 1.48-1.17h.2l.12-.74h-.16c-.74 0-1.21.39-1.72 1.36l.2-1.21h-.7l-.78 4.64zm4.05-4.09h1.05l.08-.55h-1.05l.2-1.21-.7.08-.19 1.13h-.7l-.12.55h.7L59 47.43a4.86 4.86 0 0 0-.12 1c0 .66.39 1 1.17 1h.67l.08-.58h-.63c-.39 0-.58-.19-.58-.51a4.84 4.84 0 0 1 .08-.58l.43-2.53zM65 49.34l.43-2.69a3.38 3.38 0 0 0 .12-.78 1.36 1.36 0 0 0-1.4-1.33 1.88 1.88 0 0 0-1.64 1.17l.2-1h-.62l-.78 4.64H62l.27-1.68a4.92 4.92 0 0 1 .55-1.71 1.41 1.41 0 0 1 1.18-.83.82.82 0 0 1 .86.86 6.64 6.64 0 0 1-.08.66l-.46 2.69zM69.6 48c-.47.66-.78.89-1.36.89-.78 0-1.25-.58-1.25-1.44a1.23 1.23 0 0 1 0-.35h3.39a2.91 2.91 0 0 0 0-.55 1.77 1.77 0 0 0-1.83-2 2.56 2.56 0 0 0-2.38 2.81 1.91 1.91 0 0 0 1.95 2.1 2.2 2.2 0 0 0 2-1.21L69.6 48zm-2.5-1.44a1.58 1.58 0 0 1 1.48-1.44 1.14 1.14 0 0 1 1.17 1.21v.23zm4.57 2.78l.16-1.05a7.07 7.07 0 0 1 .47-1.83 1.65 1.65 0 0 1 1.48-1.17H74l.12-.74h-.16c-.74 0-1.17.39-1.72 1.36l.24-1.21h-.74l-.78 4.64zM21.69 31.68h-3V33h1.37a1.12 1.12 0 0 1-1.17 1.25c-1 0-1.48-.82-1.48-2.3s.51-2.42 1.4-2.42a1.15 1.15 0 0 1 1.05.58 1.54 1.54 0 0 1 .2.74l1.64-.23a2.71 2.71 0 0 0-2.85-2.49c-1.95 0-3.19 1.48-3.19 3.86 0 2.22 1.16 3.67 3 3.67a2.19 2.19 0 0 0 2-1 3.72 3.72 0 0 1 .27.86h.78v-3.9zm4.76-3.51a2.78 2.78 0 0 0-2.34 1 4.32 4.32 0 0 0-.82 2.69 4.51 4.51 0 0 0 .82 2.73 2.73 2.73 0 0 0 2.26 1.05 2.83 2.83 0 0 0 2.34-1.09 4.74 4.74 0 0 0 0-5.38 2.61 2.61 0 0 0-2.22-1zm0 1.4a1 1 0 0 1 1 .58 4.37 4.37 0 0 1 .29 1.85c0 1.56-.43 2.34-1.33 2.34s-1.33-.78-1.33-2.34.43-2.38 1.33-2.38z"/><path class="cls-1" d="M32.96 34.13L32.96 28.29 31.21 28.29 31.21 35.58 35.84 35.58 35.84 34.13 32.96 34.13 32.96 34.13z"/><path class="cls-1" d="M37.32 28.29v7.29h2.5a3.2 3.2 0 0 0 2.57-1.05 4 4 0 0 0 .9-2.61 3.77 3.77 0 0 0-.94-2.61 3.17 3.17 0 0 0-2.81-1zM39 29.61h.7a1.54 1.54 0 0 1 1.3.59 2.94 2.94 0 0 1 .51 1.68 3.19 3.19 0 0 1-.51 1.75 1.58 1.58 0 0 1-1.32.59H39v-4.6zM54.24 31a3.32 3.32 0 0 0-.62-1.75 2.69 2.69 0 0 0-2.34-1 2.86 2.86 0 0 0-2.42 1.09 3.94 3.94 0 0 0-.86 2.57c0 2.3 1.29 3.78 3.24 3.78a2.82 2.82 0 0 0 2.42-1.17 2.72 2.72 0 0 0 .58-1.52l-1.68-.08c-.16.94-.59 1.37-1.29 1.37-.94 0-1.37-.7-1.37-2.3s.43-2.42 1.33-2.42a1 1 0 0 1 1 .62 2.21 2.21 0 0 1 .2.9l1.81-.09z"/><path class="cls-1" d="M61.03 29.65L61.03 28.29 55.8 28.29 55.8 35.58 61.03 35.58 61.03 34.13 57.56 34.13 57.56 32.53 60.29 32.53 60.29 31.17 57.56 31.17 57.56 29.65 61.03 29.65 61.03 29.65z"/><path class="cls-1" d="M64.38 32.69h1.21l1.13 2.89h1.91l-1.36-3.23a1.52 1.52 0 0 0 .66-.43 1.94 1.94 0 0 0 .58-1.44 2.27 2.27 0 0 0-.74-1.72 2.89 2.89 0 0 0-1.91-.47h-3.2v7.29h1.72v-2.89zm0-3.12h1c.66 0 .82 0 1 .2a.82.82 0 0 1 .35.7.92.92 0 0 1-.43.82 1.51 1.51 0 0 1-.9.16h-1.02v-1.88z"/><path class="cls-1" d="M75.1 28.29L69.72 28.29 69.72 29.73 71.56 29.73 71.56 35.58 73.27 35.58 73.27 29.73 75.1 29.73 75.1 28.29 75.1 28.29z"/><path class="cls-1" d="M76.43 35.58L78.11 35.58 78.11 28.29 76.43 28.29 76.43 35.58 76.43 35.58z"/><path class="cls-1" d="M85.36 29.73L85.36 28.29 80.17 28.29 80.17 35.58 81.96 35.58 81.96 32.73 84.66 32.73 84.66 31.37 81.96 31.37 81.96 29.73 85.36 29.73 85.36 29.73z"/><path class="cls-1" d="M86.84 35.58L88.55 35.58 88.55 28.29 86.84 28.29 86.84 35.58 86.84 35.58z"/><path class="cls-1" d="M95.84 29.65L95.84 28.29 90.62 28.29 90.62 35.58 95.84 35.58 95.84 34.13 92.33 34.13 92.33 32.53 95.06 32.53 95.06 31.17 92.33 31.17 92.33 29.65 95.84 29.65 95.84 29.65z"/><path class="cls-1" d="M97.44 28.29v7.29h2.5a3.2 3.2 0 0 0 2.57-1.05 4 4 0 0 0 .9-2.61 3.77 3.77 0 0 0-.93-2.61 3.17 3.17 0 0 0-2.81-1zm1.67 1.32h.74a1.51 1.51 0 0 1 1.29.58 3 3 0 0 1 .51 1.68 3.2 3.2 0 0 1-.51 1.75 1.58 1.58 0 0 1-1.32.59h-.7v-4.6z"/><path class="cls-2" d="M15.73 38.48H103.45V40.07H15.73z"/><path class="cls-1" d="M17.06 17l-1.29 5.81h4.13L21.38 17l.43-1.83V17l.19 5.79h3L27.85 17l.9-1.83-.39 1.83-1.29 5.81h4.09L32.45 17l.74-3.27 1.13-5.19h-5.65l-2.49 5.19-1.33 2.81-.08-2.81-.15-5.19h-5.69l-1.13 5.17-.74 3.29zM38 13.71l.35-1.52h-3.83l-.35 1.52-.74 3.29-1.29 5.81H36L37.28 17l.72-3.29zm10.48 0a4.36 4.36 0 0 0-3.7-1.76 6.86 6.86 0 0 0-5.11 1.76A7 7 0 0 0 37.75 17c-.75 2.9.51 6 4.25 6.1 5.34.12 6.55-4.13 6.55-4.21h-4c-.12.2-.66 1.56-1.83 1.52-1.48 0-1.6-1.83-1-3.43.47-1.32 1.36-2.49 2.41-2.53 1.25 0 1.13 1.56 1.09 1.72h3.88a3.86 3.86 0 0 0-.62-2.46zm8.23 0l.46-1.71a6.86 6.86 0 0 0-1.83.27 3.94 3.94 0 0 0-1.75 1.21l.31-1.33h-3.48l-.31 1.52-.74 3.33L48 22.79h3.66l.91-3.79a6.7 6.7 0 0 1 .78-2 2.84 2.84 0 0 1 2.5-1.52 5 5 0 0 0-.59 1.52c-.74 2.92.59 6 4.52 6.16a6.78 6.78 0 0 0 6.31-3.47c-.12 1.21.43 3.47 5.34 3.51 5.58.08 6-3.47 6-4.21a2.71 2.71 0 0 0-.82-2c-.93-.86-2.45-1-3.86-1.32-1.75-.39-1.4-1.71.12-1.71 1.68 0 1.29 1.36 1.29 1.36h3.66a4.19 4.19 0 0 0-.12-1.6c-.35-.94-1.4-1.91-4.44-2-2.14 0-4.21.51-5.07 2a3 3 0 0 0-.43 1.21 2.52 2.52 0 0 0 .52 2.07A6.9 6.9 0 0 0 72 18.62c2.11.35 1.48 2.11-.08 2.14-2.27 0-1.72-1.6-1.72-1.6h-7.1L66.29 18c.31-.12.51-.19.59-.5A3 3 0 0 0 67 17a5 5 0 0 0-.7-3.27 4.79 4.79 0 0 0-3.9-1.91 6.86 6.86 0 0 0-5.22 1.91 7.94 7.94 0 0 0-.58.62l.16-.62zm32.21 0a4.69 4.69 0 0 0-3.82-1.91 6.81 6.81 0 0 0-5.23 1.91A7.1 7.1 0 0 0 78 17c-.74 2.89.59 6 4.56 6.16A6.77 6.77 0 0 0 89.69 17a5 5 0 0 0-.78-3.27zm13.92 0l.31-1.52h-1.85l.58-2.54h-3.54l-.55 2.54h-2.26l.08-.27c.16-.78.23-1.21 1.44-1.21l.43-2s-3-.35-4.17.54c-.82.62-1.09 1.37-1.48 2.92H90l-.35 1.52-.2 1h1.95L90.85 17l-1.29 5.81h3.78l1.3-5.81.5-2.3h2.11l-.51 2.3-.66 3c-.31 1.41.2 2 .66 2.34 1 .74 4.1.35 4.1.35l.58-2.42s-1.52.19-1.68-.23a1.79 1.79 0 0 1 0-.78l.51-2.3.51-2.3h1.79l.23-1zm1.21 0a1.42 1.42 0 0 1-.08-.43 1 1 0 0 1 1-1 1 1 0 0 1 1 1 .81.81 0 0 1-.12.43 1 1 0 0 1-.9.55 1 1 0 0 1-.9-.55zm2 0a1.36 1.36 0 0 0 .08-.43 1.17 1.17 0 0 0-2.34 0 .8.8 0 0 0 .12.43 1.15 1.15 0 0 0 1.05.74 1.19 1.19 0 0 0 1.09-.74zm-1.44 0l.12-.39h.23l.16.39v.12h.2v-.12l-.16-.39c.2 0 .35-.16.35-.35a.31.31 0 0 0-.35-.35h-.47l-.23 1.09v.12h.19v-.12zm.74-.78c0 .24-.23.24-.39.24h-.2l.08-.39h.27c.16 0 .23 0 .23.16zM39.16 8.52H35.3l-.51 2.34h3.86l.51-2.34zM59.23 17c.51-1.52 1.6-2.88 2.85-2.73 1.05.19 1.32 1.4 1.09 2.73-.31 1.79-1.56 3.78-3.12 3.43-1.25-.23-1.32-1.91-.82-3.43zM82 17c.51-1.52 1.64-2.88 2.85-2.73 1.05.19 1.32 1.4 1.09 2.73-.27 1.79-1.56 3.78-3.12 3.43-1.28-.25-1.36-1.93-.82-3.43z"/></svg>