<svg id="Layer_1" data-name="Layer 1" xmlns="http://www.w3.org/2000/svg" viewBox="0 0 120 57.35"><defs><style>.cls-1,.cls-2{fill:#b0b0b0}.cls-1{fill-rule:evenodd}</style></defs><title>icon-sprite</title><path class="cls-1" d="M41.2 11.78h1.17v5.6h3.5v1.07H41.2zm8.69 6.78a3.45 3.45 0 1 1 3.49-3.46 3.39 3.39 0 0 1-3.49 3.46zm0-5.82a2.25 2.25 0 0 0-2.25 2.36 2.29 2.29 0 0 0 2.27 2.38 2.25 2.25 0 0 0 2.25-2.36 2.29 2.29 0 0 0-2.27-2.38zm9.57-.96h1.15v6.66h-1L56 13.7v4.74h-1.19v-6.66h1.09l3.57 4.61zm5.35 6.67h-2.48v-6.67h2.48a3.34 3.34 0 1 1 0 6.66zm0-5.6H63.5v4.53h1.31a2.17 2.17 0 0 0 2.31-2.26 2.19 2.19 0 0 0-2.31-2.27zM73 18.56a3.45 3.45 0 1 1 3.49-3.46A3.39 3.39 0 0 1 73 18.56zm0-5.82a2.25 2.25 0 0 0-2.25 2.36A2.29 2.29 0 0 0 73 17.48a2.25 2.25 0 0 0 2.25-2.36A2.29 2.29 0 0 0 73 12.74zm9.52-.96h1.15v6.66h-1L79 13.7v4.74h-1.13v-6.66H79l3.57 4.61zM44.48 26.12L42.35 23v4.76H41.2v-6.67h1.25l2 3.15 2-3.15h1.25v6.66h-1.12V23zm9.93-3.98h-3.77v1.73H54v1h-3.36v1.79h3.82v1h-5v-6.57h4.94zm4.25 5.62h-1.18v-5.58h-2.11v-1.09h5.41v1.09h-2.12zm7.63 0l-1.64-2.32h-1.46v2.32H62v-6.67h3c1.53 0 2.48.81 2.48 2.11a2 2 0 0 1-1.59 2l1.8 2.52zm-1.4-5.6h-1.7v2.24h1.71c.84 0 1.37-.44 1.37-1.12s-.51-1.12-1.38-1.12zm7.19 5.71a3.45 3.45 0 1 1 3.49-3.46 3.39 3.39 0 0 1-3.49 3.46zm0-5.82a2.25 2.25 0 0 0-2.25 2.36 2.29 2.29 0 0 0 2.27 2.39 2.25 2.25 0 0 0 2.25-2.36 2.29 2.29 0 0 0-2.27-2.38zm7.41 3.57h-1.33v2.14H77v-6.67h2.63a2.24 2.24 0 0 1 2.53 2.24c-.01 1.51-1.16 2.29-2.67 2.29zm0-3.46h-1.33v2.4h1.36c.89 0 1.44-.49 1.44-1.2s-.56-1.2-1.43-1.2zm7.04 5.71A3.45 3.45 0 1 1 90 24.42a3.39 3.39 0 0 1-3.47 3.45zm0-5.82a2.25 2.25 0 0 0-2.25 2.36 2.29 2.29 0 0 0 2.27 2.38 2.25 2.25 0 0 0 2.25-2.36 2.29 2.29 0 0 0-2.27-2.37zm4.92-.96h1.17v5.6h3.5v1.07h-4.67zm7.13 0v6.66h-1.17v-6.66zm4.6 6.67H102v-5.58h-2.12v-1.09h5.41v1.09h-2.11zm8.82 0h-1.24l-.68-1.61H107l-.69 1.61h-1.2L108 21h1.09zm-3.49-5.31l-1.14 2.67h2.29zm9.34-1.36H119v6.66h-1L114.34 23v4.74h-1.15v-6.65h1.09l3.57 4.61zM46.8 34.19a2.66 2.66 0 0 1-2.87 3 2.63 2.63 0 0 1-2.84-2.93v-3.85h1.17v3.79c0 1.24.64 1.9 1.69 1.9s1.68-.63 1.68-1.86v-3.83h1.17zm6.26-3.78h1.15v6.66h-1l-3.68-4.74v4.74h-1.12v-6.66h1.09L53.06 35zm4.11 0v6.66H56v-6.66zm6.51 0h1.27l-2.77 6.71h-1l-2.77-6.71h1.29l2 5.12zM71 31.45h-3.74v1.73h3.34v1h-3.34V36h3.82v1h-5v-6.59H71zm5.74 5.62l-1.64-2.32h-1.46v2.32h-1.17v-6.66h3c1.53 0 2.48.81 2.48 2.11a2 2 0 0 1-1.59 2l1.8 2.52zm-1.4-5.6h-1.7v2.24h1.71c.84 0 1.37-.44 1.37-1.12s-.51-1.12-1.37-1.12zm6.58 1.74c1.41.34 2.14.85 2.14 2s-1 2-2.38 2a4.11 4.11 0 0 1-2.78-1.07l.7-.84a3.07 3.07 0 0 0 2.1.87c.72 0 1.18-.33 1.18-.85s-.27-.74-1.5-1c-1.42-.34-2.22-.76-2.22-2a2 2 0 0 1 2.28-1.94 3.69 3.69 0 0 1 2.42.84l-.63.89a3 3 0 0 0-1.81-.69c-.69 0-1.09.35-1.09.8s.32.68 1.59.99zm4.77-2.8v6.66h-1.18v-6.66zm4.59 6.66H90.1v-5.58H88v-1.08h5.4v1.09h-2.12zm6.5 0H96.6v-2.63l-2.65-4h1.38l1.87 3 1.89-3h1.34l-2.65 4zm-51.9 9.79h-.59l-.57-1.29h-2.66l-.58 1.29h-.56l2.22-4.91h.52zm-2.49-4.27l-1.11 2.49h2.22zm5.39 4.35a2.52 2.52 0 0 1 0-5 2.54 2.54 0 0 1 1.9.77l-.38.4a2.12 2.12 0 0 0-1.53-.67 2 2 0 0 0 0 4 2.12 2.12 0 0 0 1.57-.7l.36.36a2.54 2.54 0 0 1-1.92.84zm5.01 0a2.52 2.52 0 0 1 0-5 2.54 2.54 0 0 1 1.9.77l-.38.4a2.12 2.12 0 0 0-1.53-.67 2 2 0 0 0 0 4 2.12 2.12 0 0 0 1.57-.7l.36.36a2.54 2.54 0 0 1-1.92.84zm6.43-4.46h-3v1.66h2.66v.5h-2.63v1.71h3v.5H56.7V42h3.52zm1.14-.48h.55v4.37h2.74v.51h-3.29zm7.84.48h-3v1.66h2.66v.5h-2.64v1.71h3v.5h-3.55V42h3.53zm4.5 4.38L72.28 45h-1.39v1.89h-.55V42h2.1c1.07 0 1.76.58 1.76 1.46a1.43 1.43 0 0 1-1.32 1.43l1.5 2zm-1.3-4.37h-1.5v2h1.5c.73 0 1.25-.38 1.25-1s-.47-1-1.25-1zm7.52 4.37h-.59l-.57-1.29H76.1l-.58 1.29H75l2.22-4.91h.52zm-2.49-4.27l-1.11 2.49h2.22zm4.67 4.27h-.56v-4.37H79.9V42h3.83v.51H82.1zm4.59.08a2.52 2.52 0 1 1 2.49-2.53 2.45 2.45 0 0 1-2.49 2.53zm0-4.53a1.92 1.92 0 0 0-1.91 2 1.94 1.94 0 0 0 1.92 2 1.92 1.92 0 0 0 1.91-2 1.94 1.94 0 0 0-1.92-2zm7.02 4.45L92.29 45H90.9v1.89h-.55V42h2.1c1.07 0 1.76.58 1.76 1.46a1.43 1.43 0 0 1-1.32 1.43l1.5 2zm-1.3-4.37H90.9v2h1.5c.73 0 1.25-.38 1.25-1s-.46-1-1.25-1z"/><circle class="cls-2" cx="19.48" cy="11.81" r="1"/><circle class="cls-2" cx="19.48" cy="15.08" r="1"/><circle class="cls-2" cx="19.48" cy="18.35" r="1"/><circle class="cls-2" cx="19.48" cy="21.47" r="1"/><circle class="cls-2" cx="23.48" cy="13.87" r="1" transform="rotate(-75 23.482 13.867)"/><circle class="cls-2" cx="22.63" cy="17.03" r="1" transform="rotate(-75 22.633 17.025)"/><circle class="cls-2" cx="21.79" cy="20.19" r="1" transform="rotate(-75 21.79 20.188)"/><circle class="cls-2" cx="27.98" cy="14.08" r="1" transform="rotate(-60 27.976 14.085)"/><circle class="cls-2" cx="26.34" cy="16.92" r="1" transform="rotate(-60 26.34 16.917)"/><circle class="cls-2" cx="24.7" cy="19.75" r="1" transform="rotate(-60 24.706 19.749)"/><circle class="cls-2" cx="23.15" cy="22.45" r="1" transform="rotate(-60 23.146 22.45)"/><circle class="cls-2" cx="30.41" cy="17.87" r="1" transform="rotate(-45 30.413 17.873)"/><circle class="cls-2" cx="28.1" cy="20.18" r="1" transform="rotate(-45 28.1 20.18)"/><circle class="cls-2" cx="25.78" cy="22.5" r="1" transform="rotate(-45 25.78 22.501)"/><circle class="cls-2" cx="34.2" cy="20.31" r="1" transform="rotate(-30 34.2 20.304)"/><circle class="cls-2" cx="31.36" cy="21.94" r="1" transform="matrix(.87 -.5 .5 .87 -6.77 18.62)"/><circle class="cls-2" cx="28.53" cy="23.58" r="1" transform="matrix(.87 -.5 .5 .87 -7.97 17.42)"/><circle class="cls-2" cx="25.83" cy="25.13" r="1" transform="rotate(-30 25.824 25.14)"/><circle class="cls-2" cx="34.41" cy="24.8" r="1" transform="rotate(-15 34.404 24.814)"/><circle class="cls-2" cx="31.25" cy="25.65" r="1" transform="rotate(-15 31.244 25.634)"/><circle class="cls-2" cx="28.09" cy="26.49" r="1" transform="rotate(-15 28.079 26.492)"/><circle class="cls-2" cx="36.47" cy="28.8" r="1"/><circle class="cls-2" cx="33.2" cy="28.8" r="1"/><circle class="cls-2" cx="29.93" cy="28.8" r="1"/><circle class="cls-2" cx="26.81" cy="28.8" r="1"/><circle class="cls-2" cx="34.41" cy="32.8" r="1" transform="rotate(-75 34.41 32.802)"/><circle class="cls-2" cx="31.25" cy="31.96" r="1" transform="rotate(-75 31.252 31.952)"/><circle class="cls-2" cx="28.09" cy="31.11" r="1" transform="rotate(-75 28.09 31.11)"/><circle class="cls-2" cx="34.2" cy="37.3" r="1" transform="rotate(-60 34.194 37.294)"/><circle class="cls-2" cx="31.36" cy="35.66" r="1" transform="rotate(-60 31.362 35.659)"/><circle class="cls-2" cx="28.53" cy="34.03" r="1" transform="rotate(-60 28.53 34.024)"/><circle class="cls-2" cx="25.83" cy="32.47" r="1" transform="rotate(-60 25.837 32.469)"/><circle class="cls-2" cx="30.41" cy="39.73" r="1" transform="rotate(-45 30.409 39.734)"/><circle class="cls-2" cx="28.1" cy="37.42" r="1" transform="rotate(-45 28.1 37.42)"/><circle class="cls-2" cx="25.78" cy="35.11" r="1" transform="rotate(-45 25.78 35.102)"/><circle class="cls-2" cx="27.98" cy="43.52" r="1" transform="rotate(-30 27.98 43.517)"/><circle class="cls-2" cx="26.34" cy="40.69" r="1" transform="rotate(-30 26.34 40.678)"/><circle class="cls-2" cx="24.7" cy="37.85" r="1" transform="rotate(-30 24.696 37.857)"/><circle class="cls-2" cx="23.15" cy="35.16" r="1" transform="rotate(-30 23.139 35.16)"/><circle class="cls-2" cx="23.48" cy="43.74" r="1" transform="rotate(-15 23.49 43.739)"/><circle class="cls-2" cx="22.63" cy="40.57" r="1" transform="rotate(-15 22.632 40.573)"/><circle class="cls-2" cx="21.79" cy="37.41" r="1" transform="rotate(-15 21.773 37.408)"/><circle class="cls-2" cx="19.48" cy="45.8" r="1"/><circle class="cls-2" cx="19.48" cy="42.52" r="1"/><circle class="cls-2" cx="19.48" cy="39.25" r="1"/><circle class="cls-2" cx="19.48" cy="36.14" r="1"/><circle class="cls-2" cx="15.48" cy="43.74" r="1" transform="rotate(-75 15.482 43.735)"/><circle class="cls-2" cx="16.32" cy="40.57" r="1" transform="rotate(-75 16.325 40.572)"/><circle class="cls-2" cx="17.17" cy="37.41" r="1" transform="rotate(-75 17.174 37.414)"/><circle class="cls-2" cx="10.98" cy="43.52" r="1" transform="rotate(-60 10.98 43.521)"/><circle class="cls-2" cx="12.62" cy="40.69" r="1" transform="rotate(-60 12.616 40.69)"/><circle class="cls-2" cx="14.25" cy="37.85" r="1" transform="rotate(-60 14.256 37.849)"/><circle class="cls-2" cx="15.81" cy="35.16" r="1" transform="rotate(-60 15.81 35.155)"/><circle class="cls-2" cx="8.55" cy="39.73" r="1" transform="rotate(-45 8.547 39.73)"/><circle class="cls-2" cx="10.86" cy="37.42" r="1" transform="rotate(-45 10.86 37.421)"/><circle class="cls-2" cx="13.17" cy="35.11" r="1" transform="rotate(-45 13.174 35.113)"/><circle class="cls-2" cx="4.76" cy="37.3" r="1" transform="rotate(-30 4.766 37.297)"/><circle class="cls-2" cx="7.6" cy="35.66" r="1" transform="rotate(-30 7.605 35.658)"/><circle class="cls-2" cx="10.43" cy="34.03" r="1" transform="rotate(-30 10.421 34.032)"/><circle class="cls-2" cx="13.13" cy="32.47" r="1" transform="rotate(-30 13.118 32.475)"/><circle class="cls-2" cx="4.55" cy="32.8" r="1" transform="rotate(-15 4.527 32.82)"/><circle class="cls-2" cx="7.71" cy="31.96" r="1" transform="rotate(-15 7.692 31.961)"/><circle class="cls-2" cx="10.87" cy="31.11" r="1" transform="rotate(-15 10.858 31.103)"/><circle class="cls-2" cx="2.49" cy="28.8" r="1"/><circle class="cls-2" cx="5.76" cy="28.8" r="1"/><circle class="cls-2" cx="9.03" cy="28.8" r="1"/><circle class="cls-2" cx="12.14" cy="28.8" r="1"/><circle class="cls-2" cx="4.55" cy="24.8" r="1" transform="rotate(-75 4.542 24.802)"/><circle class="cls-2" cx="7.71" cy="25.65" r="1" transform="rotate(-75 7.705 25.645)"/><circle class="cls-2" cx="10.87" cy="26.49" r="1" transform="rotate(-75 10.863 26.494)"/><circle class="cls-2" cx="4.76" cy="20.31" r="1" transform="rotate(-60 4.767 20.304)"/><circle class="cls-2" cx="7.6" cy="21.94" r="1" transform="rotate(-60 7.599 21.939)"/><circle class="cls-2" cx="10.43" cy="23.58" r="1" transform="rotate(-60 10.43 23.574)"/><circle class="cls-2" cx="13.13" cy="25.13" r="1" transform="rotate(-60 13.124 25.129)"/><circle class="cls-2" cx="8.55" cy="17.87" r="1" transform="rotate(-45 8.551 17.868)"/><circle class="cls-2" cx="10.86" cy="20.18" r="1" transform="rotate(-45 10.86 20.182)"/><circle class="cls-2" cx="13.17" cy="22.5" r="1" transform="rotate(-45 13.18 22.5)"/><circle class="cls-2" cx="10.98" cy="14.08" r="1" transform="rotate(-30 10.986 14.084)"/><circle class="cls-2" cx="12.62" cy="16.92" r="1" transform="rotate(-30 12.625 16.923)"/><circle class="cls-2" cx="14.25" cy="19.75" r="1" transform="rotate(-30 14.246 19.757)"/><circle class="cls-2" cx="15.81" cy="22.45" r="1" transform="rotate(-30 15.803 22.454)"/><circle class="cls-2" cx="15.48" cy="13.87" r="1" transform="rotate(-15 15.484 13.862)"/><circle class="cls-2" cx="16.32" cy="17.03" r="1" transform="rotate(-15 16.343 17.027)"/><circle class="cls-2" cx="17.17" cy="20.19" r="1" transform="matrix(.97 -.26 .26 .97 -4.64 5.13)"/></svg>