<svg viewBox="0 0 50 50" xmlns="http://www.w3.org/2000/svg"><g fill="#fff"><path d="m46.95 25.06v8.74a12.85 12.85 0 0 1 -8.89 12.48 14.2 14.2 0 0 1 -4.29.67c-5.87.05-11.77.05-17.61.05a12.93 12.93 0 0 1 -12.88-10.2 13.67 13.67 0 0 1 -.31-3c0-5.85 0-11.7 0-17.55a13 13 0 0 1 13.03-13.25h17.8a12.93 12.93 0 0 1 12.83 10.22 14.6 14.6 0 0 1 .3 3c.07 2.97.02 5.91.02 8.84zm-21.95-18.06c-3 0-5.88 0-8.79 0a10.45 10.45 0 0 0 -2.17.2 8.86 8.86 0 0 0 -7.04 8.87q0 8.93 0 17.86a9.3 9.3 0 0 0 .22 2 8.85 8.85 0 0 0 8.78 7.07q8.93 0 17.86 0a9.29 9.29 0 0 0 2-.2 8.86 8.86 0 0 0 7.08-8.85q0-8.93 0-17.86a9.28 9.28 0 0 0 -.2-2 8.87 8.87 0 0 0 -8.79-7.09c-3 0-5.95 0-8.95 0z"/><path d="m36.95 25a12 12 0 1 1 -12-12 12 12 0 0 1 12 12zm-4 0a8 8 0 1 0 -8 8 8 8 0 0 0 8-8z"/><path d="m38.57 13.2a1.81 1.81 0 1 1 -1.77-1.82 1.82 1.82 0 0 1 1.77 1.82z"/></g></svg>