<svg viewBox="0 0 50 50" xmlns="http://www.w3.org/2000/svg"><path d="m41.88 16.66v1.09c0 11.16-8.49 24-24 24a23.88 23.88 0 0 1 -12.88-3.75 16.5 16.5 0 0 0 2 .12 16.92 16.92 0 0 0 10.48-3.61 8.45 8.45 0 0 1 -7.88-5.86 8.58 8.58 0 0 0 1.59.16 8.35 8.35 0 0 0 2.22-.3 8.45 8.45 0 0 1 -6.81-8.32s0-.07 0-.1a8.35 8.35 0 0 0 3.82 1.05 8.45 8.45 0 0 1 -2.61-11.27 24 24 0 0 0 17.4 8.82 8.32 8.32 0 0 1 -.21-1.92 8.44 8.44 0 0 1 14.59-5.77 17 17 0 0 0 5.36-2 8.48 8.48 0 0 1 -3.71 4.67 16.53 16.53 0 0 0 4.85-1.33 17.25 17.25 0 0 1 -4.21 4.32z" fill="#b0b0b0"/></svg>