<svg viewBox="0 0 120 16.16" xmlns="http://www.w3.org/2000/svg"><g fill="#003056"><path d="m10.8 15.21h-9.8v-14.21h2.52v11.69h7.28z"/><path d="m21.52 15.49a6.28 6.28 0 0 1 -6.27-6.27v-8.22h2.52v8.22a3.75 3.75 0 1 0 7.51 0v-8.22h2.52v8.22a6.28 6.28 0 0 1 -6.28 6.27z"/><path d="m40.72 15.51a7.38 7.38 0 0 1 0-14.76 7.31 7.31 0 0 1 5.37 2.32l-1.84 1.73a4.86 4.86 0 1 0 -3.53 8.2 4.82 4.82 0 0 0 3.54-1.53l1.83 1.73a7.31 7.31 0 0 1 -5.37 2.31z"/><path d="m94.8 15.51a7.38 7.38 0 1 1 0-14.76 7.31 7.31 0 0 1 5.37 2.32l-1.83 1.73a4.82 4.82 0 0 0 -3.54-1.53 4.86 4.86 0 1 0 0 9.72 4.81 4.81 0 0 0 3.53-1.53l1.83 1.73a7.31 7.31 0 0 1 -5.36 2.32z"/><path d="m51.59 1h2.52v14.21h-2.52z"/><path d="m79.18 1h2.52v14.21h-2.52z"/><path d="m66.4 15.23h-5.52v-14.23h5.52a7.1 7.1 0 1 1 0 14.21zm-3-2.51h3a4.59 4.59 0 1 0 0-9.18h-3z"/><path d="m111.7 4.16-1.37-3.13-6.22 14.19h2.75l1.1-2.52h4.96l-1.1-2.52h-2.76z"/></g><path d="m116.55 15.22h2.75l-6.22-14.19h-2.75z" fill="#7daed3"/></svg>