<svg viewBox="0 0 120 57.35" xmlns="http://www.w3.org/2000/svg"><g fill="#b0b0b0" fill-rule="evenodd"><path d="m68.49 5.29h.32a9.62 9.62 0 0 1 -2.41 7.23 7.5 7.5 0 0 1 -6.59 3.09 9.31 9.31 0 0 1 2.45-7 10.65 10.65 0 0 1 6.23-3.32z"/><path d="m78.13 38.15v.09a25.92 25.92 0 0 1 -3.73 7.18c-1.4 1.96-3.17 4.58-6.27 4.58-2.69 0-4.47-1.73-7.23-1.77-2.92 0-4.52 1.44-7.18 1.82h-.91c-2-.28-3.53-1.83-4.68-3.23a28.26 28.26 0 0 1 -6.5-16.27v-2c.21-4.88 2.58-8.85 5.73-10.77a9.69 9.69 0 0 1 6.5-1.5 16 16 0 0 1 3.14.92 8.89 8.89 0 0 0 3.18 1 7.69 7.69 0 0 0 2.23-.68c2.2-.79 4.35-1.7 7.18-1.27a10 10 0 0 1 7.32 4.36 9.4 9.4 0 0 0 -4.77 9.32 9.63 9.63 0 0 0 5.99 8.22z"/></g></svg>