<svg viewBox="0 0 120 57.35" xmlns="http://www.w3.org/2000/svg"><g fill="#ed6c05"><path d="m62.65 13.62c.72-.89 3.91-.7 6.73 1.29l7.62 5.84c1.38 1.14 3.15 1.07 5.31.09l6-2.73c4.09-1.71 6.78-3.11 8.23-3.44 4.12-1.33 4.79.17 2.38 1.78l-13.88 8.7c-4.77 3-3.6 4.53-3.43 8l.94 12.79a2.52 2.52 0 0 1 -2 2.45 18.15 18.15 0 0 1 -3.9 0 2.52 2.52 0 0 1 -2.08-2.31l.91-12.84c.14-2.43.68-5.73-1.52-7.55-2.5-2.17-5-4.86-7.51-7-1.11-1.69-4.85-3.77-3.8-5.07z"/><path d="m85.86 11.33a10.5 10.5 0 0 0 -5.44-.91 8.89 8.89 0 0 0 -4 1.26 4.26 4.26 0 0 0 -1.42 1.79c-.3 1.14-.3 2.08.4 2.57a4.86 4.86 0 0 0 3.76.84c1.22-.24 2.67-.61 3.9-.8-1.15.84-2.53 1.61-3.69 2.39a21.15 21.15 0 0 0 4.33 0c2.31-.7 3.86-1.4 4.47-3.32.31-1.67-.64-2.87-2.31-3.82zm-6.26 2.92c-.84 0-1.52-.45-1.52-1s.68-1 1.52-1 1.52.45 1.52 1-.7 1-1.52 1zm4.74.45c-.89 0-1.63-.54-1.63-1.19s.73-1.19 1.63-1.19 1.66.55 1.66 1.2a1.48 1.48 0 0 1 -1.66 1.19z"/><path d="m63.91 27.19c2.59-1.75 4.05-1.59 4.39.12 0 2.25.72 3.37 2.39 3.41 1.07.31 1.59.82 1.57 1.75 0 .75-.35 1.29-1.61 1.64a2.34 2.34 0 0 0 -2.31 2.27c.05 2.52.09 5 .14 7.55 0 1.12.87 1.56 2.24 1.28.4-.09 1-.42 1.42-.26.12 2.08-.47 3.51-2.6 3.5a33.06 33.06 0 0 1 -3.72 0c-2-.52-2.76-2.29-2.78-4.89s0-4.95 0-7.41c-.05-1.17-.77-1.85-2.17-2a1.56 1.56 0 0 1 -1.33-1.82 1.7 1.7 0 0 1 1.64-1.57 1.78 1.78 0 0 0 1.91-1.76 2.72 2.72 0 0 1 .82-1.81z"/><path d="m40.51 32.81a2.3 2.3 0 0 1 2-2.13 4.57 4.57 0 0 1 1.38 0c1 .07 1.82.44 1.85 1s0 .72 0 1.15l1.22-1.26c3.11-2.39 5.61-1.54 8-.21a5.33 5.33 0 0 1 2.31 4.44v10.54c-.21 1.14-1 1.83-2.53 1.9a2.43 2.43 0 0 1 -2.74-1.71l-.2-10.83c-.26-1.1-1-1.92-2.81-2.13-2.06.26-3.15 1.52-3.22 3.76 0 3-.05 6.08-.07 9.11a2.86 2.86 0 0 1 -1.87 1.8l-1.7-.14a2.59 2.59 0 0 1 -1.7-1.66c.04-4.56.06-9.08.08-13.63z"/><path d="m33.34 23c1.89-.05 2.76.77 2.78 2.29-.09 1.7-1.17 2.27-2.8 2.2s-2.73-.58-2.74-2.22a2.44 2.44 0 0 1 2.76-2.27z"/><path d="m30.58 32.78a2.49 2.49 0 0 1 2.74-2.13c1.9 0 2.46.94 2.64 2.13v13.54a2.28 2.28 0 0 1 -2.64 1.8c-1.43.16-2.24-.4-2.57-2.13-.05-4.35-.17-8.86-.17-13.21z"/></g></svg>