<svg id="Layer_1" data-name="Lucidica Icon Sprite" xmlns="http://www.w3.org/2000/svg"><defs><style>.cls-1{fill:none;stroke-linecap:round;stroke-linejoin:round;stroke-width:5px}.cls-3{fill:#fff}.orange .cls-1{stroke:#ff4000}.orange .cls-2{fill:#ff4000}.light-blue .cls-1{stroke:#56a0d3}.light-blue .cls-2{fill:#56a0d3}.dark-blue .cls-1{stroke:#0b2b47}.dark-blue .cls-2{fill:#0b2b47}.light-grey .cls-1{stroke:#b0b0b0}.light-grey .cls-2{fill:#b0b0b0}</style></defs><symbol id="icon-cloud-office-light-blue" class="light-blue"><use/></symbol><symbol id="icon-crm-light-blue" class="light-blue"><use/></symbol><symbol id="icon-digital-marketing-light-blue" class="light-blue"><use/></symbol><symbol id="icon-team-light-blue" class="light-blue"><use/></symbol><symbol id="icon-cloud-office-dark-blue" class="dark-blue"><use/></symbol><symbol id="icon-crm-dark-blue" class="dark-blue"><use/></symbol><symbol id="icon-digital-marketing-dark-blue" class="dark-blue"><use/></symbol><symbol id="icon-team-dark-blue" class="dark-blue"><use/></symbol><symbol id="icon-cloud-office-orange" class="orange"><use/></symbol><symbol id="icon-crm-orange" class="orange"><use/></symbol><symbol id="icon-digital-marketing-orange" class="orange"><use/></symbol><symbol id="icon-team-orange" class="orange"><use/></symbol><symbol id="icon-cloud-office" viewBox="0 0 120 120"><circle class="cls-1" cx="60" cy="60" r="57"/><path class="cls-2" d="M32.09 80.87L68.03 93.73 87.96 87.3 87.96 33.62 68.03 26.91 32.09 40.78 32.09 80.87z"/><path class="cls-3" d="M32.09 80.88L44.96 75.51 44.96 43.93 68.25 38.56 68.25 85.58 32.09 80.88z"/></symbol><symbol id="icon-crm" viewBox="0 0 120 120"><circle class="cls-1" cx="60" cy="60" r="57"/><path class="cls-1" d="M34.56 83h-6.75a9 9 0 0 1-9-9V59.07a9 9 0 0 1 9-9h35.7a9 9 0 0 1 9 9V74a9 9 0 0 1-9 9H46.06l-13.5 11.28z"/><path class="cls-1" d="M72.51 68.05H77l13.5 11.28L88.51 68h6.75a9 9 0 0 0 9-9V44.12a9 9 0 0 0-9-9h-35.7a9 9 0 0 0-9 9v6"/><circle class="cls-1" cx="45.49" cy="66.52" r=".74"/><circle class="cls-1" cx="55.49" cy="66.52" r=".74"/><circle class="cls-1" cx="35.49" cy="66.52" r=".74"/></symbol><symbol id="icon-digital-marketing" viewBox="0 0 120 120"><circle class="cls-1" cx="60" cy="60" r="57"/><path class="cls-1" d="M69.74 35.23c-9.48 9.48-40.27 10.25-40.27 10.25a8.58 8.58 0 0 0-7.28 8.46v8.12a8.58 8.58 0 0 0 7.23 8.47s28.88-1.15 40.27 10.25c8.11 8.1 8.11-53.62.05-45.55z"/><path class="cls-1" d="M45.2 71.81l2 9.71a5.7 5.7 0 0 1-4.49 6.69 5.7 5.7 0 0 1-6.71-4.5l-2.32-13.19m42.65-18.19a6.65 6.65 0 0 1 0 13.31"/><path class="cls-1" d="M92.18 58.98L103.67 58.98"/><path class="cls-1" d="M86.55 45.63L97.47 38.56"/><path class="cls-1" d="M86.55 72.34L97.47 79.4"/></symbol><symbol id="icon-team" viewBox="0 0 120 120"><circle class="cls-1" cx="60" cy="60" r="57"/><path class="cls-1" d="M76.2 47.24H85a7.44 7.44 0 0 1 2.44.41l8 2.78a7.44 7.44 0 0 1 4.88 5.72l2.37 13.33a7.44 7.44 0 0 1-2.82 7.22L93 81.93M80.62 40.59c-4.44 0-7.54-5.46-7.54-10.36a7.54 7.54 0 0 1 15.07 0c.01 6-3.15 10.36-7.53 10.36zM25.26 86.92l-6-4.58A6.51 6.51 0 0 1 16.77 76l2.07-11.67a6.51 6.51 0 0 1 4.27-5l7-2.44a6.51 6.51 0 0 1 2.14-.36h7a4.37 4.37 0 0 1 1.46.25l3.74 1.33M29.49 39.12a6.6 6.6 0 0 1 13.2 0c0 4.29-2.71 9.07-6.6 9.07s-6.6-3.82-6.6-9.07zM40.4 94.15a4.89 4.89 0 0 1-4.6-6.52l4.75-13.41a4.89 4.89 0 0 1 3.05-3l10.57-3.54a4.89 4.89 0 0 1 1.55-.25h9.66a4.89 4.89 0 0 1 1.6.27l10.34 3.6a4.89 4.89 0 0 1 3 2.93l4.92 13.35a4.89 4.89 0 0 1-4.58 6.57M60.54 60.79c-4.44 0-7.54-5.47-7.54-10.37a7.54 7.54 0 0 1 15.07 0c.01 6.01-3.16 10.37-7.53 10.37z"/></symbol></svg>