<svg id="Layer_1" data-name="Layer 1" xmlns="http://www.w3.org/2000/svg" viewBox="0 0 202 27.75"><defs><style>.cls-1{fill:#003768;}.cls-2{fill:#569fd3;}</style></defs><title>lucidica-logo</title><polygon class="cls-1" points="17.57 26.23 1 26.23 1 1.43 5.26 1.43 5.26 21.84 17.57 21.84 17.57 26.23"/><path class="cls-1" d="M35.69,26.72A10.79,10.79,0,0,1,25.09,15.77V1.48h4.26V15.77a6.35,6.35,0,1,0,12.7,0V1.48H46.3V15.77A10.79,10.79,0,0,1,35.69,26.72"/><path class="cls-1" d="M68.15,26.75A12.7,12.7,0,0,1,55.68,13.87,12.7,12.7,0,0,1,68.15,1a12.18,12.18,0,0,1,9.08,4.06l-3.1,3a8,8,0,0,0-6-2.68,8.36,8.36,0,0,0-8.22,8.48,8.36,8.36,0,0,0,8.22,8.48,8,8,0,0,0,6-2.67l3.1,3a12.19,12.19,0,0,1-9.08,4.06"/><path class="cls-1" d="M159.59,26.75a12.7,12.7,0,0,1-12.48-12.88A12.7,12.7,0,0,1,159.59,1a12.18,12.18,0,0,1,9.07,4.06l-3.1,3a8,8,0,0,0-6-2.68,8.36,8.36,0,0,0-8.22,8.48,8.36,8.36,0,0,0,8.22,8.48,8,8,0,0,0,6-2.67l3.1,3a12.19,12.19,0,0,1-9.07,4.06"/><rect class="cls-1" x="86.52" y="1.43" width="4.26" height="24.8"/><rect class="cls-1" x="133.17" y="1.43" width="4.26" height="24.8"/><path class="cls-1" d="M111.57,26.25h-9.34V1.45h9.34a12.23,12.23,0,0,1,12,12.4,12.22,12.22,0,0,1-12,12.4m-5.09-4.39h5.09a7.9,7.9,0,0,0,7.76-8,7.9,7.9,0,0,0-7.76-8h-5.09v16Z"/><polygon class="cls-1" points="188.16 6.95 185.84 1.48 175.32 26.24 179.97 26.24 181.83 21.85 190.22 21.85 188.36 17.45 183.7 17.45 188.16 6.95"/><polygon class="cls-2" points="196.35 26.24 201 26.24 190.48 1.48 185.84 1.48 196.35 26.24"/></svg>