<svg id="Layer_1" data-name="Layer 1" xmlns="http://www.w3.org/2000/svg" viewBox="0 0 120 120"><defs><style>.cls-1{fill:none;stroke-linecap:round;stroke-linejoin:round;stroke:#ff4000;stroke-width:5px;}</style></defs><title>icon</title><circle class="cls-1" cx="60" cy="60" r="57"/><line class="cls-1" x1="30.49" y1="38.53" x2="45.51" y2="38.53"/><line class="cls-1" x1="30.49" y1="46.37" x2="40.5" y2="46.37"/><rect class="cls-1" x="40.5" y="40.27" width="63.61" height="41.03"/><line class="cls-1" x1="72.31" y1="81.3" x2="72.31" y2="92.43"/><line class="cls-1" x1="83.83" y1="93.39" x2="60.78" y2="93.39"/><polyline class="cls-1" points="53.26 81.3 53.26 93.62 23.15 93.62 23.15 29.32 53.26 29.32 53.26 40.27"/><polyline class="cls-1" points="53.26 81.3 53.26 93.62 23.15 93.62 23.15 29.32 53.26 29.32 53.26 40.27"/><circle class="cls-1" cx="32.31" cy="83.25" r="0.51"/><line class="cls-1" x1="30.49" y1="38.53" x2="45.51" y2="38.53"/><line class="cls-1" x1="30.49" y1="38.53" x2="45.51" y2="38.53"/><line class="cls-1" x1="30.49" y1="46.37" x2="40.5" y2="46.37"/><line class="cls-1" x1="30.49" y1="46.37" x2="40.5" y2="46.37"/><rect class="cls-1" x="40.5" y="40.27" width="63.61" height="41.03"/><rect class="cls-1" x="40.5" y="40.27" width="63.61" height="41.03"/><line class="cls-1" x1="72.31" y1="81.3" x2="72.31" y2="92.43"/><line class="cls-1" x1="72.31" y1="81.3" x2="72.31" y2="92.43"/><line class="cls-1" x1="83.83" y1="93.39" x2="60.78" y2="93.39"/><line class="cls-1" x1="83.83" y1="93.39" x2="60.78" y2="93.39"/></svg>