<svg id="Layer_1" data-name="Layer 1" xmlns="http://www.w3.org/2000/svg" viewBox="0 0 120 120"><defs><style>.cls-1{fill:none;stroke:#7daed3;stroke-linecap:round;stroke-linejoin:round;stroke-width:5px;}.cls-2{fill:#7daed3;}</style></defs><title>icon-sprite</title><circle class="cls-1" cx="60" cy="60" r="57"/><path class="cls-2" d="M94.77,60.78a2.08,2.08,0,0,1-4.16,0A31.21,31.21,0,0,0,59.4,29.57a2.08,2.08,0,1,1,0-4.16A35.37,35.37,0,0,1,94.77,60.78Zm-12.48,0a2.08,2.08,0,0,1-4.16,0A18.72,18.72,0,0,0,59.4,42.05a2.08,2.08,0,1,1,0-4.16A22.88,22.88,0,0,1,82.29,60.78Zm1,26.2-7,7c-6.24,6.24-26.24-2-37.15-12.87S20,50.19,26.28,44l7-7a4.85,4.85,0,0,1,7.27.37l9.28,11.34a5.6,5.6,0,0,1-.36,7.42L45,60.5a2.17,2.17,0,0,0-.32,2.37c.12.23.21.4.36.66.26.45.58,1,1,1.53a35.09,35.09,0,0,0,9.17,9.16c.57.38,1.08.7,1.53,1l.5.27a2.25,2.25,0,0,0,2.51-.24l4.42-4.42a5.61,5.61,0,0,1,7.42-.36l11.34,9.28A4.85,4.85,0,0,1,83.29,87ZM42.09,57.56l4.42-4.42a1.45,1.45,0,0,0,.08-1.84L37.32,40a.69.69,0,0,0-1.1-.07l-7,7c-3.91,3.91,3.43,21.82,12.87,31.26S69.44,94.94,73.36,91l7-7a.69.69,0,0,0-.07-1.1L68.95,73.65a1.45,1.45,0,0,0-1.84.08l-4.42,4.42a6.34,6.34,0,0,1-7.35,1,23.58,23.58,0,0,1-2.47-1.49A39.25,39.25,0,0,1,42.58,67.38a23.59,23.59,0,0,1-1.48-2.45A6.32,6.32,0,0,1,42.09,57.56Z"/></svg>