<svg id="Layer_1" data-name="Layer 1" xmlns="http://www.w3.org/2000/svg" viewBox="0 0 120 120"><defs><style>.cls-1{fill:none;stroke:#ffffff;stroke-linecap:round;stroke-linejoin:round;stroke-width:5px;}.cls-2{fill:#ffffff;}</style></defs><title>icon</title><circle class="cls-1" cx="60" cy="60" r="57"/><path class="cls-2" d="M86.44,42.4l-2.55-3.17a5.45,5.45,0,0,1-1-2.9l.18-4a5.13,5.13,0,0,0-3.52-4.93L75.7,26.3a4.94,4.94,0,0,1-2.46-1.76L71,21.19A5,5,0,0,0,66.9,19a5.53,5.53,0,0,0-1.67.26l-3.7,1.67a3.89,3.89,0,0,1-1.5.18h0a3.51,3.51,0,0,1-1.5-.26l-3.78-1.41a5,5,0,0,0-1.58-.26A4.83,4.83,0,0,0,49,21.37l-2.2,3.34a4.94,4.94,0,0,1-2.46,1.76l-3.87,1.06A4.85,4.85,0,0,0,37,32.46l.18,4a5.72,5.72,0,0,1-1,2.9l-2.55,3a4.89,4.89,0,0,0,0,6.07l2.55,3.17a5.45,5.45,0,0,1,1,2.9l-.18,4a5.13,5.13,0,0,0,3.52,4.93l3.87,1.06a5.34,5.34,0,0,1,1.23.62l-5.55,36.09a3.53,3.53,0,0,0,.7,3,2.86,2.86,0,0,0,2.2,1,3.83,3.83,0,0,0,2-.62L54,99.44a2.09,2.09,0,0,1,1.06-.26,2.81,2.81,0,0,1,1.58.44l7.92,6.6a4,4,0,0,0,2.46,1c1.41,0,3-1.06,3-3.52l.09-8.36a1.27,1.27,0,0,1,.62.18l5.28,2.64a3.25,3.25,0,0,0,4.14-.62,3.51,3.51,0,0,0,.53-3.08L74.2,65.2a3.89,3.89,0,0,1,1.32-.7l3.87-1.06a4.85,4.85,0,0,0,3.52-4.93v-4a5.72,5.72,0,0,1,1-2.9l2.55-3.17A5.15,5.15,0,0,0,86.44,42.4ZM59.15,96.71a6.14,6.14,0,0,0-4-1.32,6.81,6.81,0,0,0-3,.7L44,100.76l4.84-31.51.26.35a5,5,0,0,0,4.14,2.2,5.53,5.53,0,0,0,1.67-.26l3.78-1.41a4.37,4.37,0,0,1,3,0l3.78,1.41a4,4,0,0,0,1.41.26l-.44,30.81ZM72.53,92a4.77,4.77,0,0,0-2.2-.53l.26-21.3A1.58,1.58,0,0,0,71,69.6l.26-.44,5.55,25ZM83.45,46.1l-2.55,3.17a8.8,8.8,0,0,0-1.76,5.46l.18,4a1.45,1.45,0,0,1-.7,1.06l-3.87,1.06a9.4,9.4,0,0,0-4.67,3.34l-2.2,3.34a1.14,1.14,0,0,1-1,.44.32.32,0,0,1-.26-.09l-3.78-1.41a9.81,9.81,0,0,0-5.81,0l-3.78,1.41c-.09,0-.18.09-.26.09a1.26,1.26,0,0,1-1-.44l-2.2-3.34a8.9,8.9,0,0,0-4.67-3.34l-3.87-1.06a1.06,1.06,0,0,1-.7-1.06l.18-4A9.18,9.18,0,0,0,39,49.27L36.44,46.1a1.06,1.06,0,0,1,0-1.23L39,41.7a8.8,8.8,0,0,0,1.76-5.46l-.18-4a1.45,1.45,0,0,1,.7-1.06l3.87-1.06a9.4,9.4,0,0,0,4.67-3.34L52,23.39A1.14,1.14,0,0,1,53,23a.32.32,0,0,1,.26.09L57,24.45a9.6,9.6,0,0,0,2.9.44h0a9.6,9.6,0,0,0,2.9-.44L66.63,23c.09,0,.18-.09.26-.09a1.26,1.26,0,0,1,1,.44l2.2,3.34a8.9,8.9,0,0,0,4.67,3.34l3.87,1.06a1.06,1.06,0,0,1,.7,1.06l-.18,4a9.18,9.18,0,0,0,1.76,5.46l2.55,3.17A1.06,1.06,0,0,1,83.45,46.1Z"/><path class="cls-1" d="M69.87,49.2a11.28,11.28,0,0,1-10,5.88,10.89,10.89,0,0,1-9.94-5.87"/><ellipse class="cls-2" cx="53.5" cy="39.74" rx="2.35" ry="2.3"/><ellipse class="cls-2" cx="66.44" cy="39.74" rx="2.35" ry="2.3"/></svg>