<svg id="Layer_1" data-name="Layer 1" xmlns="http://www.w3.org/2000/svg" viewBox="0 0 120 120"><defs><style>.cls-1{fill:none;stroke:#ff4000;stroke-linecap:round;stroke-linejoin:round;stroke-width:5px;}</style></defs><title>icon</title><circle class="cls-1" cx="60" cy="60" r="57"/><path class="cls-1" d="M34.56,83H27.81a9,9,0,0,1-9-9V59.07a9,9,0,0,1,9-9h35.7a9,9,0,0,1,9,9V74a9,9,0,0,1-9,9H46.06L32.56,94.28Z"/><path class="cls-1" d="M72.51,68.05H77l13.5,11.28L88.51,68h6.75a9,9,0,0,0,9-9V44.12a9,9,0,0,0-9-9H59.56a9,9,0,0,0-9,9v6"/><circle class="cls-1" cx="45.49" cy="66.52" r="0.74"/><circle class="cls-1" cx="55.49" cy="66.52" r="0.74"/><circle class="cls-1" cx="35.49" cy="66.52" r="0.74"/></svg>