<svg id="Layer_1" data-name="Layer 1" xmlns="http://www.w3.org/2000/svg" viewBox="0 0 119.95 119.95"><defs><style>.cls-1{fill:none;stroke:#56a0d3;stroke-linecap:round;stroke-linejoin:round;stroke-width:5px;}</style></defs><title>icon-team</title><circle class="cls-1" cx="59.98" cy="59.98" r="57.5"/><path class="cls-1" d="M76.2,47.24H85a7.44,7.44,0,0,1,2.44.41l8,2.78a7.44,7.44,0,0,1,4.88,5.72l2.37,13.33a7.44,7.44,0,0,1-2.82,7.22L93,81.93" transform="translate(-0.02 -0.02)"/><path class="cls-1" d="M80.62,40.59c-4.44,0-7.54-5.46-7.54-10.36a7.54,7.54,0,0,1,15.07,0C88.16,36.23,85,40.59,80.62,40.59Z" transform="translate(-0.02 -0.02)"/><path class="cls-1" d="M25.26,86.92l-6-4.58A6.51,6.51,0,0,1,16.77,76l2.07-11.67a6.51,6.51,0,0,1,4.27-5l7-2.44a6.51,6.51,0,0,1,2.14-.36h7a4.37,4.37,0,0,1,1.46.25l3.74,1.33" transform="translate(-0.02 -0.02)"/><path class="cls-1" d="M29.49,39.12a6.6,6.6,0,0,1,13.2,0c0,4.29-2.71,9.07-6.6,9.07S29.49,44.37,29.49,39.12Z" transform="translate(-0.02 -0.02)"/><path class="cls-1" d="M40.4,94.15h0a4.89,4.89,0,0,1-4.6-6.52l4.75-13.41a4.89,4.89,0,0,1,3.05-3l10.57-3.54a4.89,4.89,0,0,1,1.55-.25h9.66a4.89,4.89,0,0,1,1.6.27l10.34,3.6a4.89,4.89,0,0,1,3,2.93l4.92,13.35a4.89,4.89,0,0,1-4.58,6.57h0" transform="translate(-0.02 -0.02)"/><path class="cls-1" d="M60.54,60.79C56.1,60.79,53,55.32,53,50.42a7.54,7.54,0,0,1,15.07,0C68.08,56.43,64.91,60.79,60.54,60.79Z" transform="translate(-0.02 -0.02)"/></svg>