<svg id="Layer_1" data-name="Layer 1" xmlns="http://www.w3.org/2000/svg" viewBox="0 0 120 120"><defs><style>.cls-1{fill:none;stroke:#56a0d3;stroke-linecap:round;stroke-linejoin:round;stroke-width:5px;}.cls-2{fill:#56a0d3;}</style></defs><title>icon</title><circle class="cls-1" cx="60" cy="60" r="57"/><path class="cls-2" d="M72.76,80.85A53.09,53.09,0,0,0,83.6,83.94c1.25.17,2.85.36,4-.33,1.76-1.07,2.36-3.85,2.26-5.72a8.35,8.35,0,0,0-1.59-4.67c-.67-.81-1.69-.74-2.64-.88a20.07,20.07,0,0,1-3-.69,25.49,25.49,0,0,1-10.54-6.79A25.2,25.2,0,0,1,70,62.38a12,12,0,0,0-4.63-3.68,9.6,9.6,0,1,0-13.09-.1,11.28,11.28,0,0,0-4.68,3.52c-.3.43-.63.85-1,1.25a28.24,28.24,0,0,1-5.86,5.33A23.46,23.46,0,0,1,36,71.19a20.62,20.62,0,0,1-2.65.83c-1,.25-2.08.29-3.12.5-1.62.33-2.31,2.64-2.6,4a7.79,7.79,0,0,0,1,5.89,3.41,3.41,0,0,0,3.21,1.63,19.1,19.1,0,0,0,4.56-.67,74.42,74.42,0,0,0,8.12-2.56v6.28a2.16,2.16,0,0,0,2.16,2.16h0a2.16,2.16,0,0,0,2.16-2.16V70.31a8.63,8.63,0,0,1,8.63-8.63h2.3a8.63,8.63,0,0,1,8.63,8.63V87.13a2.16,2.16,0,0,0,2.16,2.16h0a2.16,2.16,0,0,0,2.16-2.16ZM58.84,46.18a5.45,5.45,0,1,1-5.45,5.45A5.51,5.51,0,0,1,58.84,46.18ZM32.05,80h0a4.09,4.09,0,0,1,0-3.46,26.5,26.5,0,0,0,12.72-5.56v5.42C39.69,78.24,34,80,32.05,80Zm53.24,0a19,19,0,0,1-5-1.06c-2.58-.74-5.13-1.61-7.64-2.55V70.94A26.52,26.52,0,0,0,85.32,76.5a4.08,4.08,0,0,1,0,3.46Z"/><path class="cls-2" d="M71.86,33.24a7.77,7.77,0,0,1,1-3.75,8.56,8.56,0,0,1,7.67-4.4,8.83,8.83,0,0,1,4.35,1A7.41,7.41,0,0,1,87.84,29a7.7,7.7,0,0,1,1,3.9,6.76,6.76,0,0,1-.59,2.91,9,9,0,0,1-1.39,2.15q-.81.91-2.9,3.05A12.28,12.28,0,0,0,83.06,42a4.28,4.28,0,0,0-.52.84,4.41,4.41,0,0,0-.26.76c-.06.25-.16.7-.28,1.34q-.32,2-2,2a1.94,1.94,0,0,1-1.49-.66,2.84,2.84,0,0,1-.6-2,8.22,8.22,0,0,1,.44-2.84,7.42,7.42,0,0,1,1.17-2.11,28.61,28.61,0,0,1,2-2.16q1.09-1.09,1.57-1.65a5.58,5.58,0,0,0,.82-1.24,3.36,3.36,0,0,0,.33-1.48,3.7,3.7,0,0,0-1-2.63,3.43,3.43,0,0,0-2.61-1.07,3.35,3.35,0,0,0-2.75,1.08,9.1,9.1,0,0,0-1.5,3.19q-.58,2.21-2.19,2.2a2,2,0,0,1-1.61-.77A2.52,2.52,0,0,1,71.86,33.24Z"/><circle class="cls-2" cx="80.09" cy="52.32" r="3.32"/></svg>