<svg id="Layer_1" data-name="Layer 1" xmlns="http://www.w3.org/2000/svg" viewBox="0 0 120 120"><defs><style>.cls-1{fill:none;stroke:#ff4000;stroke-linecap:round;stroke-linejoin:round;stroke-width:5px;}.cls-2{fill:#ff4000;}</style></defs><title>icon</title><circle class="cls-1" cx="60" cy="60" r="57"/><path class="cls-2" d="M87.48,76.19a8.9,8.9,0,0,0-8.61,6.67H77.1a.74.74,0,0,1-.74-.74V67.42a14.33,14.33,0,0,0,4.62-26v-.09A15.31,15.31,0,0,0,54.34,31a11.24,11.24,0,0,0-3.09-.43A11.44,11.44,0,0,0,40,40.28a14.33,14.33,0,0,0,5.19,27.48V82.12a.74.74,0,0,1-.74.74H42.7a8.9,8.9,0,1,0,0,4.45h1.77a5.19,5.19,0,0,0,5.19-5.19V67.79h8.9v8.7a8.9,8.9,0,1,0,4.45,0v-8.7h8.9V82.12a5.19,5.19,0,0,0,5.19,5.19h1.77a8.9,8.9,0,1,0,8.61-11.12ZM34.09,89.54a4.45,4.45,0,1,1,4.45-4.45A4.45,4.45,0,0,1,34.09,89.54Zm31.14-4.45a4.45,4.45,0,1,1-4.45-4.45A4.45,4.45,0,0,1,65.23,85.09ZM35.8,53.45a9.84,9.84,0,0,1,7-9.45,2.22,2.22,0,0,0,1.56-2.1A7,7,0,0,1,51.26,35a6.88,6.88,0,0,1,2.85.64,2.22,2.22,0,0,0,2.73-.74,10.86,10.86,0,0,1,19.67,6.37,11,11,0,0,1-.06,1.1,2.22,2.22,0,0,0,1.2,2.22,9.88,9.88,0,0,1-4.46,18.7H45.68A9.9,9.9,0,0,1,35.8,53.45ZM87.48,89.54a4.45,4.45,0,1,1,4.45-4.45A4.45,4.45,0,0,1,87.48,89.54Z"/></svg>