<svg xmlns="http://www.w3.org/2000/svg" class="svg-obj" viewBox="0 0 120 120"><title>icon-team</title>
<path d="M60,120a60,60,0,1,1,60-60A60.07,60.07,0,0,1,60,120ZM60,5a55,55,0,1,0,55,55A55.06,55.06,0,0,0,60,5Z"/><path d="M93,84.43a2.5,2.5,0,0,1-1.51-4.49l6.88-5.23a4.92,4.92,0,0,0,1.87-4.79L97.87,56.59a4.94,4.94,0,0,0-3.24-3.8l-8-2.78A4.92,4.92,0,0,0,85,49.74H76.2a2.5,2.5,0,0,1,0-5H85a9.9,9.9,0,0,1,3.26.55l8,2.78a10,10,0,0,1,6.52,7.65L105.16,69a9.9,9.9,0,0,1-3.77,9.65L94.5,83.92A2.49,2.49,0,0,1,93,84.43Z"/><path d="M80.63,43.09c-6,0-10-6.65-10-12.86a10,10,0,0,1,20.07,0C90.66,37.68,86.44,43.09,80.63,43.09Zm0-17.9a5,5,0,0,0-5,5c0,3.64,2.2,7.86,5,7.86s5-3.31,5-7.86A5,5,0,0,0,80.63,25.19Z"/><path d="M25.26,89.42a2.49,2.49,0,0,1-1.51-.51l-6-4.58a9,9,0,0,1-3.42-8.75l2.07-11.67A9,9,0,0,1,22.29,57l7-2.44a9,9,0,0,1,3-.5h7a6.84,6.84,0,0,1,2.3.4l3.74,1.33a2.5,2.5,0,0,1-1.67,4.71l-3.74-1.33a1.86,1.86,0,0,0-.63-.11h-7a4,4,0,0,0-1.32.22l-7,2.44a4,4,0,0,0-2.63,3.09L19.23,76.45a4,4,0,0,0,1.52,3.89l6,4.58a2.5,2.5,0,0,1-1.51,4.49Z"/><path d="M36.09,50.69c-5.27,0-9.1-4.87-9.1-11.57a9.1,9.1,0,0,1,18.2,0C45.19,44.71,41.54,50.69,36.09,50.69Zm0-15.67a4.1,4.1,0,0,0-4.1,4.1c0,3.81,1.72,6.57,4.1,6.57,2.07,0,4.1-3.26,4.1-6.57A4.1,4.1,0,0,0,36.09,35Z"/><path d="M80.62,96.65a2.5,2.5,0,0,1,0-5,2.39,2.39,0,0,0,2.24-3.21L77.94,75.09a2.38,2.38,0,0,0-1.46-1.43l-10.34-3.6a2.39,2.39,0,0,0-.78-.13H55.7a2.39,2.39,0,0,0-.76.12L44.38,73.59a2.37,2.37,0,0,0-1.49,1.46L38.13,88.47a2.39,2.39,0,0,0,2.25,3.18,2.5,2.5,0,1,1,0,5h0a7.39,7.39,0,0,1-7-9.85l4.76-13.41a7.34,7.34,0,0,1,4.62-4.54l10.57-3.54a7.39,7.39,0,0,1,2.34-.38h9.66a7.35,7.35,0,0,1,2.43.41l10.34,3.59a7.36,7.36,0,0,1,4.5,4.42l4.92,13.35a7.39,7.39,0,0,1-6.93,9.94Z"/><path d="M60.54,63.29c-6,0-10-6.65-10-12.86a10,10,0,0,1,20.07,0C70.58,57.88,66.36,63.29,60.54,63.29Zm0-17.9a5,5,0,0,0-5,5c0,3.64,2.2,7.86,5,7.86s5-3.31,5-7.86A5,5,0,0,0,60.54,45.39Z"/>
</svg>