<svg id="Layer_1" data-name="Layer 1" xmlns="http://www.w3.org/2000/svg" viewBox="0 0 120 120"><defs><style>.cls-1{fill:none;stroke:#7daed3;stroke-linecap:round;stroke-linejoin:round;stroke-width:5px;}.cls-2{fill:#7daed3;}</style></defs><title>icon-sprite</title><circle class="cls-1" cx="60" cy="60" r="57"/><path class="cls-2" d="M89.33,41.87H31.6a5.43,5.43,0,0,0-5.43,5.43V77.72a5.43,5.43,0,0,0,5.43,5.43h2.65c.35,0,.69,0,1.08,0,16.09,0,32.17-.12,48.25.07a24.64,24.64,0,0,0,2.74-.11h3a5.43,5.43,0,0,0,5.43-5.42V47.3A5.43,5.43,0,0,0,89.33,41.87Zm-2.54,3.68s-17.17,11.67-24.84,17a2.17,2.17,0,0,1-3,.06L34,45.55ZM29.72,77V47.14L48.81,60.4Zm2.82,2.48L52.11,62.69,58,66.81a3.54,3.54,0,0,0,4.8,0l5.89-4.12L88.59,79.48ZM91,76.81,72.13,60,91,46.8Z"/></svg>