<svg id="Layer_1" data-name="Layer 1" xmlns="http://www.w3.org/2000/svg" viewBox="0 0 120 120"><defs><style>.cls-1,.cls-2{fill:none;stroke-linecap:round;stroke-linejoin:round;}.cls-1{stroke:#ff4000;stroke-width:5px;}.cls-2{stroke:#000;stroke-width:4.25px;}</style></defs><title>icon</title><circle class="cls-1" cx="60" cy="60" r="57"/><path class="cls-2" d="M69.74,35.23c-9.48,9.48-40.27,10.25-40.27,10.25a8.58,8.58,0,0,0-7.28,8.46v8.12a8.58,8.58,0,0,0,7.23,8.47s28.88-1.15,40.27,10.25C77.8,88.88,77.8,27.16,69.74,35.23Z"/><path class="cls-2" d="M45.2,71.81l2,9.71a5.7,5.7,0,0,1-4.49,6.69h0A5.7,5.7,0,0,1,36,83.71L33.68,70.52"/><path class="cls-2" d="M76.33,52.33a6.65,6.65,0,0,1,0,13.31"/><path class="cls-1" d="M69.74,35.23c-9.48,9.48-40.27,10.25-40.27,10.25a8.58,8.58,0,0,0-7.28,8.46v8.12a8.58,8.58,0,0,0,7.23,8.47s28.88-1.15,40.27,10.25C77.8,88.88,77.8,27.16,69.74,35.23Z"/><path class="cls-1" d="M45.2,71.81l2,9.71a5.7,5.7,0,0,1-4.49,6.69h0A5.7,5.7,0,0,1,36,83.71L33.68,70.52"/><path class="cls-1" d="M76.33,52.33a6.65,6.65,0,0,1,0,13.31"/><line class="cls-1" x1="92.18" y1="58.98" x2="103.67" y2="58.98"/><line class="cls-1" x1="86.55" y1="45.63" x2="97.47" y2="38.56"/><line class="cls-1" x1="86.55" y1="72.34" x2="97.47" y2="79.4"/></svg>