<svg id="Layer_1" data-name="Layer 1" xmlns="http://www.w3.org/2000/svg" viewBox="0 0 120 120"><defs><style>.cls-1{fill:none;stroke:#7daed3;stroke-linecap:round;stroke-linejoin:round;stroke-width:5px;}.cls-2{fill:#7daed3;}</style></defs><title>icon-sprite</title><circle class="cls-1" cx="60" cy="60" r="57"/><path class="cls-2" d="M60.4,45.52a9.1,9.1,0,1,0,9.06,9.14v0A9.1,9.1,0,0,0,60.4,45.52Zm0,14a4.85,4.85,0,1,1,4.81-4.9v0a4.85,4.85,0,0,1-4.81,4.86Z"/><path class="cls-2" d="M60.4,34.54a21.26,21.26,0,0,0-20.91,20,21.7,21.7,0,0,0,4.43,14.37L58.7,88.76a2.12,2.12,0,0,0,3.4,0L76.89,69a21.71,21.71,0,0,0,4.43-14.37A21.26,21.26,0,0,0,60.4,34.54ZM73.48,66.41,60.4,83.91,47.32,66.41a17.46,17.46,0,0,1-3.59-11.53c.53-7.89,6.91-16.07,16.68-16.07S76.55,47,77.07,54.86A17.46,17.46,0,0,1,73.48,66.41Z"/></svg>