<svg id="Layer_1" data-name="Layer 1" xmlns="http://www.w3.org/2000/svg" viewBox="0 0 120 120"><defs><style>.cls-1{fill:none;stroke:#56a0d3;stroke-linecap:round;stroke-linejoin:round;stroke-width:5px;}</style></defs><title>icon</title><circle class="cls-1" cx="60" cy="60" r="57"/><path class="cls-1" d="M76.05,47.35h8.74a7.37,7.37,0,0,1,2.42.41l7.93,2.76A7.37,7.37,0,0,1,100,56.19l2.35,13.21a7.37,7.37,0,0,1-2.8,7.16l-6.82,5.19"/><path class="cls-1" d="M80.45,40.76C76,40.76,73,35.34,73,30.48a7.47,7.47,0,0,1,14.94,0C87.92,36.44,84.77,40.76,80.45,40.76Z"/><path class="cls-1" d="M25.57,86.68l-6-4.54a6.45,6.45,0,0,1-2.45-6.27L19.2,64.31a6.45,6.45,0,0,1,4.24-5l6.94-2.41a6.45,6.45,0,0,1,2.12-.36h6.9a4.33,4.33,0,0,1,1.45.25l3.71,1.31"/><path class="cls-1" d="M29.76,39.3a6.54,6.54,0,0,1,13.08,0c0,4.25-2.69,9-6.54,9S29.76,44.51,29.76,39.3Z"/><path class="cls-1" d="M40.58,93.86h0A4.84,4.84,0,0,1,36,87.39L40.7,74.1a4.84,4.84,0,0,1,3-3l10.47-3.5a4.84,4.84,0,0,1,1.54-.25h9.58a4.84,4.84,0,0,1,1.59.27L77.16,71.2a4.84,4.84,0,0,1,3,2.9L85,87.34a4.84,4.84,0,0,1-4.54,6.52h0"/><path class="cls-1" d="M60.54,60.78c-4.4,0-7.47-5.41-7.47-10.27a7.47,7.47,0,0,1,14.94,0C68,56.46,64.87,60.78,60.54,60.78Z"/></svg>