<svg id="Layer_1" data-name="Layer 1" xmlns="http://www.w3.org/2000/svg" viewBox="0 0 120 57.35"><defs><style>.cls-1{fill:#b0b0b0;}</style></defs><title>icon-sprite</title><path class="cls-1" d="M74.14,36.1a1.5,1.5,0,0,0,.34,1.9c.63.42,1.59.22,2.46.28V35.49C75.73,35.5,74.56,35.42,74.14,36.1Z"/><path class="cls-1" d="M56.6,37.56h0c.41-1.37.9-2.68,1.24-4.07H55.25Q55.88,35.56,56.6,37.56Z"/><path class="cls-1" d="M65.48,35.65a1.59,1.59,0,0,0,.22,2.46,4.88,4.88,0,0,0,2.25.11v-3A3.45,3.45,0,0,0,65.48,35.65Z"/><path class="cls-1" d="M31.69,22.91v2.85c1.69.16,3.37-.18,3.3-1.57S33.3,22.84,31.69,22.91Z"/><path class="cls-1" d="M43.08,21.28a1.59,1.59,0,0,0-.22-2.41,4.88,4.88,0,0,0-2.25-.11v2.91A3.45,3.45,0,0,0,43.08,21.28Z"/><path class="cls-1" d="M34.65,19.58c-.23-1-1.58-.95-3-.95v2.79C33.43,21.53,35,21.3,34.65,19.58Z"/><path class="cls-1" d="M46.46,35.65a1.59,1.59,0,0,0,.22,2.46,4.88,4.88,0,0,0,2.25.11v-3A3.45,3.45,0,0,0,46.46,35.65Z"/><path class="cls-1" d="M23.87,9.5l.11,38H96.25V9.5Zm38.2,7.76h1.79V27.32H62.07Zm-9.44,0h7.43v1.5H57.3v8.56H55.42V18.76H52.63Zm-3.8,0h1.84V27.32H48.83Zm-10,0c3.19-.16,7.07-.25,6.53,3.45a2.29,2.29,0,0,1-1.9,1.9c1.62,1,2.12,3.09,3.13,4.7H44.67a21.76,21.76,0,0,1-1.13-2.17c-.6-1.15-1.21-2.08-2.93-2v4.13H38.84ZM30,27.31v-10C33,17,36.68,17,36.49,20.17a2.09,2.09,0,0,1-1.28,1.9c1.41.26,2.13,2.3,1.23,3.83S32.54,27.31,30,27.31ZM42,39.73l-2.26-4.3-2.4,4.3H35.68l3.16-6.14V29.7h1.79v3.88l3.18,6.14Zm8.74,0c-3.19.16-7.07.25-6.53-3.45a2.29,2.29,0,0,1,1.9-1.9c-1.65-1-2.15-3.09-3.15-4.71h1.92A21.74,21.74,0,0,1,46,31.8c.6,1.15,1.21,2.08,2.93,2V29.66h1.79Zm6.7,0H55.58L52,29.7h1.84L54.72,32h3.61l.78-2.26H61Zm12.26,0c-3.19.16-7.07.25-6.53-3.45a2.29,2.29,0,0,1,1.9-1.9c-1.59-1-2.09-3.09-3.09-4.71h1.92A21.75,21.75,0,0,1,65,31.8c.6,1.15,1.21,2.08,2.93,2V29.66h1.73ZM66.1,26.28A10.64,10.64,0,0,1,66.88,25c1,.94,4.44,1.42,4-.78a1.43,1.43,0,0,0-.67-.86c-1.47-.92-4.09-1.2-3.8-3.85s4.46-3.28,6.26-1.4a9.29,9.29,0,0,1-.78,1.23c-.59-.84-3.78-1.33-3.69.45.07,1.22,2.48,1.54,3.58,2.4l.23.24a3.12,3.12,0,0,1-.34,4.4A4.8,4.8,0,0,1,66.1,26.28ZM78.69,39.73c-2.49,0-5.42.26-6.29-1.51-.53-1.12-.14-3,1-3.35-2.16-.51-1.84-3.89-.16-4.75,1.48-.79,5.44-.22,5.44-.22Zm4.22,0H81.06V29.66H82.9Zm-.06-12.42H81v-4.4l-4-.05v4.46H75.25V17.26h1.82v4h4v-4H82.9Zm7.24,12.41H88.26V31.27h-4V29.66h5.81Z"/><path class="cls-1" d="M73.69,32.4C73.49,34,75.14,34.14,76.93,34V31.17C75.34,31.11,73.87,31.16,73.69,32.4Z"/></svg>