<svg id="Calque_1" data-name="Calque 1" xmlns="http://www.w3.org/2000/svg" viewBox="0 0 571.9 169.8"><defs><style>.cls-1{fill:#fefefe;opacity:0;}.cls-2{fill:#f34e24;}.cls-3{fill:#01a3ee;}.cls-4{fill:#80b800;}.cls-5{fill:#feb802;}.cls-6{fill:#737373;}.cls-7{fill:#d4a61a;}.cls-8{fill:#d5a61b;}.cls-9{fill:#d4a519;}.cls-10{fill:#747474;}</style></defs><title>Microsoft-gold-partner</title><rect class="cls-1" width="571.9" height="169.8"/><path class="cls-2" d="M81.53,79.69q0-31.68,0-63.36c0-.71-.17-.86-.86-.85q-32.1,0-64.19,0v65q32.1,0,64.19,0C81.36,80.54,81.53,80.39,81.53,79.69Z"/><path class="cls-3" d="M80.59,87.32H16.47v64.62q32.09,0,64.19,0c.68,0,.87-.14.87-.85q0-31.44,0-62.87C81.51,87.32,81.51,87.32,80.59,87.32Z"/><path class="cls-4" d="M152.15,15.47q-31.54,0-63.08,0c-.64,0-.79.16-.78.79q0,15.87,0,31.75t0,31.75c0,.64.17.78.79.78q31.54,0,63.08,0c.64,0,.78-.17.78-.79q0-31.75,0-63.5C152.94,15.61,152.77,15.47,152.15,15.47Z"/><path class="cls-5" d="M152.16,87.3q-31.54,0-63.09,0c-.63,0-.79.16-.79.79q0,31.54,0,63.09c0,.59.12.77.74.76q15.77,0,31.54,0t31.61,0c.61,0,.75-.15.75-.75q0-31.54,0-63.09C152.94,87.5,152.81,87.3,152.16,87.3Z"/><path class="cls-6" d="M173.62,85.68c0,.92,0,.92.94.92,3,0,6.06,0,9.08,0,.71,0,.88-.18.88-.88q0-21.6,0-43.19,0-3.67-.21-7.34c-.06-1-.1-2-.15-3.07a1.88,1.88,0,0,1,.27.63,50.09,50.09,0,0,0,1.45,4.83q9.92,24.24,19.9,48.46a.78.78,0,0,0,.87.56c2.08,0,4.16,0,6.24,0a.94.94,0,0,0,1.05-.71c5.42-13.41,10.88-26.8,16.28-40.22,1.59-4,3.47-7.8,4.49-12,.14-.58.31-1.15.47-1.72h.08c-.12,2.86-.34,5.72-.35,8.58,0,15.11,0,30.23-.06,45.34,0,.52.13.67.65.66,3.4,0,6.79,0,10.19,0,.64,0,.75-.2.75-.79q0-32.93,0-65.86c0-.61-.15-.77-.77-.77q-7.07,0-14.14,0a1.22,1.22,0,0,0-1.36.89Q225,32.8,219.79,45.5c-2.27,5.55-4.56,11.1-6.77,16.67-1,2.61-1.92,5.28-2.87,7.94-.28-.18-.28-.46-.36-.69-.75-2.16-1.4-4.35-2.24-6.47Q199,41.37,190.39,19.8a.81.81,0,0,0-.9-.61q-7.52,0-15,0c-.66,0-.84.15-.84.83q0,16.43,0,32.86T173.62,85.68Z"/><path class="cls-6" d="M538.62,86.71c5,1.76,9.9,1.3,14.78-.45.34-.12.38-.34.38-.64,0-2.84,0-5.68,0-8.53,0-.15.08-.36-.1-.44s-.29.1-.42.19a8.61,8.61,0,0,1-5.52,1.44,5,5,0,0,1-4.84-3.48,12.27,12.27,0,0,1-.58-4c0-7.58,0-15.16,0-22.74,0-.53.15-.65.66-.65,3.37,0,6.75,0,10.12,0,.53,0,.72-.11.71-.69q0-3.92,0-7.83c0-.54-.14-.71-.7-.7-3.33,0-6.66,0-10,0-.69,0-.82-.2-.82-.85,0-4.3,0-8.6,0-12.89,0-.56-.09-.71-.69-.52q-5.05,1.57-10.13,3.05a.77.77,0,0,0-.67.89c0,3.21,0,6.42,0,9.64,0,.35.06.67-.5.67q-8,0-16.08,0c-.4,0-.52-.13-.51-.52,0-1.46,0-2.91,0-4.37a17.71,17.71,0,0,1,.41-4.33c.64-2.61,2-4.53,4.79-5.19a10.77,10.77,0,0,1,6.88.88c.46.2.64.19.63-.39q0-4.37,0-8.73c0-.46-.17-.64-.59-.76a23.14,23.14,0,0,0-4.09-.68h-3.33l-1.37.17a16.35,16.35,0,0,0-14.71,16.08c-.08,2.31,0,4.62,0,6.93,0,.91,0,.91-.88.91-2.15,0-4.3,0-6.45,0-.52,0-.66.15-.66.67q0,4,0,7.9c0,.54.17.66.68.65,2.15,0,4.3,0,6.45,0,.7,0,.88.16.88.87,0,12.5,0,25,0,37.5,0,.61.15.78.77.77,3.23,0,6.47,0,9.7,0,1.12,0,1,.14,1-.94q0-18.68,0-37.36c0-.69.2-.83.85-.82q7.73,0,15.46,0c.62,0,.81.14.81.79q0,11.78,0,23.57a26.54,26.54,0,0,0,.66,6.25C532.47,82.11,534.57,85.27,538.62,86.71Z"/><path class="cls-6" d="M480.81,39.39a27.29,27.29,0,0,0-12-2.3,29.26,29.26,0,0,0-7.42.87c-8.08,2-13.74,6.8-16.35,14.81a31.52,31.52,0,0,0-.3,18.83A20.82,20.82,0,0,0,460,86.68a29.77,29.77,0,0,0,16.87-.19,21.13,21.13,0,0,0,14-12.44,31.35,31.35,0,0,0,1-21.88A20,20,0,0,0,480.81,39.39ZM480,70.83a11,11,0,0,1-10.67,7.48,12.23,12.23,0,0,1-13.31-10.22,20.84,20.84,0,0,1-.6-5.31A21.86,21.86,0,0,1,457,54c2.43-5.76,7.47-7.88,12.95-7.38a11.81,11.81,0,0,1,6.69,2.54,12,12,0,0,1,4,6.81A25.67,25.67,0,0,1,480,70.83Z"/><path class="cls-6" d="M385.71,38.27a30.69,30.69,0,0,0-19.27.58,21,21,0,0,0-12.69,11.83,30.72,30.72,0,0,0-2.27,12.62,28.93,28.93,0,0,0,.85,7c2,8,6.73,13.48,14.62,16.06a29.57,29.57,0,0,0,15.25.78c8.27-1.67,14.16-6.33,17.13-14.31a31.43,31.43,0,0,0,.78-19.8C398,45.55,393.22,40.48,385.71,38.27Zm2.41,32.22a11,11,0,0,1-10.85,7.82,13.12,13.12,0,0,1-8.61-2.46A13.35,13.35,0,0,1,364,68a20.77,20.77,0,0,1-.59-5,22.75,22.75,0,0,1,1.5-8.92c2.39-5.78,7.39-7.94,12.9-7.47a11.32,11.32,0,0,1,10.75,9.27A26,26,0,0,1,388.12,70.49Z"/><path class="cls-6" d="M407.31,85.38a33,33,0,0,0,15.12,2.31,21.54,21.54,0,0,0,9.69-3A14.16,14.16,0,0,0,437,65.76a15.19,15.19,0,0,0-6-5.34c-2.53-1.39-5.23-2.43-7.86-3.61A12.79,12.79,0,0,1,420,55a5,5,0,0,1-1.7-4.73,4.32,4.32,0,0,1,3.19-3.56,10.5,10.5,0,0,1,4.1-.5,21.25,21.25,0,0,1,10.16,3.3c.14.09.26.28.5.17,0-3.37,0-6.74,0-10.12,0-.42-.19-.53-.54-.64a39.33,39.33,0,0,0-7-1.56,25.23,25.23,0,0,0-12.54,1.34c-7,2.77-10.59,9-9.29,16.41a12.71,12.71,0,0,0,6.37,8.88,53.76,53.76,0,0,0,7.27,3.4,18.84,18.84,0,0,1,5,2.7,4.71,4.71,0,0,1,1.7,4.77,4.2,4.2,0,0,1-3.47,3.36,17.72,17.72,0,0,1-10-.63,24,24,0,0,1-7-3.72,1.24,1.24,0,0,0-.11.75c0,3.24,0,6.47,0,9.71A1,1,0,0,0,407.31,85.38Z"/><path class="cls-6" d="M313.39,39a30.61,30.61,0,0,0-20.11-.62A22,22,0,0,0,278.61,52a29.72,29.72,0,0,0-.88,19.76,20.89,20.89,0,0,0,13.7,14.52,30.35,30.35,0,0,0,16.13.8,20.26,20.26,0,0,0,6.28-2.29c.28-.16.54-.3.54-.72,0-3.33,0-6.65,0-10a1.42,1.42,0,0,0-.67.36c-4,2.65-8.27,4.32-13.15,3.75S292,75.22,290,70.71a18.86,18.86,0,0,1,.41-16.85,12.85,12.85,0,0,1,9.37-7,17,17,0,0,1,11,1.54,18.14,18.14,0,0,1,3.53,2.3,1.35,1.35,0,0,0,.1-.79c0-3.12,0-6.24,0-9.36A1.32,1.32,0,0,0,313.39,39Z"/><path class="cls-7" d="M214.07,135.44q0-5.37,0-10.75c0-.36,0-.65-.51-.65q-7.9,0-15.81,0c-.39,0-.52.12-.51.51,0,1.36,0,2.73,0,4.09,0,.54.13.7.68.69,3.19,0,6.38,0,9.57,0,.58,0,.73.16.73.73,0,4.14,0,8.27,0,12.41a1.2,1.2,0,0,1-.81,1.3,22.54,22.54,0,0,1-12.87,1.65c-6-.88-10.43-4-12.88-9.53a24.7,24.7,0,0,1-.38-19.81c2.47-6.16,7.08-10.13,13.73-11.22A25.62,25.62,0,0,1,212.43,108c.51.29.65.27.64-.35,0-1.48,0-3,0-4.44s0-1.43-1.34-1.94a33.18,33.18,0,0,0-16.36-1.79c-9.1,1.19-15.74,6-19.51,14.34a28.79,28.79,0,0,0-.18,23.62,21,21,0,0,0,12.7,12,27.75,27.75,0,0,0,11.81,1.34,33.34,33.34,0,0,0,13.21-3.77,1.07,1.07,0,0,0,.68-1.1C214,142.46,214.07,139,214.07,135.44Z"/><path class="cls-6" d="M334.27,85.76c0-8,0-16,0-24a18.24,18.24,0,0,1,2.38-9.48A8.73,8.73,0,0,1,346,47.88,12.83,12.83,0,0,1,351,49.75c0-3.85,0-7.56,0-11.28,0-.39-.27-.44-.53-.51a13.41,13.41,0,0,0-6.57-.34c-4.39.89-7.21,3.69-9.09,7.61-.17.36-.33.73-.49,1.1l-.12,0v-.67c0-2.22,0-4.44,0-6.65,0-.54-.14-.71-.69-.71q-5,0-10,0c-.58,0-.67.19-.67.71q0,23.46,0,46.93c0,.61.2.71.75.7,3.26,0,6.52,0,9.77,0C334.12,86.62,334.27,86.41,334.27,85.76Z"/><path class="cls-8" d="M312.35,97.79c.05-.4-.13-.51-.52-.5-1.5,0-3,0-4.51,0-.63,0-.76.16-.75.77,0,6.82,0,13.63,0,20.45v.75a15.43,15.43,0,0,0-3.06-3.34c-3.19-2.41-6.84-2.74-10.62-2.15-5.49.85-9.25,4.06-11.45,9a24.87,24.87,0,0,0-.82,18.26c1.85,5.68,5.76,9.25,11.88,9.85,5.77.56,10.51-1.28,13.68-6.38.09-.14.11-.36.39-.38,0,1.76,0,3.52,0,5.26,0,.58.1.81.74.78,1.41-.06,2.82-.06,4.23,0,.7,0,.82-.21.82-.85q0-25.58,0-51.16A2.71,2.71,0,0,1,312.35,97.79ZM306,138.28c-1.37,4.11-3.93,7-8.4,7.67-5.72.8-10-2-11.55-7.55a20,20,0,0,1,.72-13.63,10.42,10.42,0,0,1,15.69-4.5,9.84,9.84,0,0,1,4.1,7.82c0,1.13,0,2.26,0,3.4A20.61,20.61,0,0,1,306,138.28Z"/><path class="cls-6" d="M355.81,99.73a20.59,20.59,0,0,0-9.71-2.14c-4.64,0-9.29,0-13.93,0-.61,0-.8.13-.8.78q0,12.58,0,25.16t0,25.37c0,.58.14.74.72.72q2.32-.06,4.64,0c.6,0,.77-.12.76-.75,0-6,0-12.06,0-18.09,0-.66.1-.92.84-.88,1.43.07,2.86,0,4.3,0a31,31,0,0,0,7.3-.57,16.38,16.38,0,0,0,11.54-8.59A17.24,17.24,0,0,0,363,110.48,13.22,13.22,0,0,0,355.81,99.73Zm.46,17.39c-1.21,4-4.17,6.1-8.13,6.95a19.27,19.27,0,0,1-4.06.41c-2,0-3.93,0-5.89,0-.56,0-.74-.12-.73-.71,0-3.35,0-6.7,0-10s0-6.7,0-10c0-.5.07-.73.66-.71,3,.09,6-.13,9,.15a13.66,13.66,0,0,1,4.6,1.19,8.07,8.07,0,0,1,4.56,5.35A13.29,13.29,0,0,1,356.27,117.11Z"/><path class="cls-6" d="M518.45,113.15a16.12,16.12,0,0,0-10.81-1.21,15.9,15.9,0,0,0-11.75,9.91,24.4,24.4,0,0,0,.13,19.53,14.05,14.05,0,0,0,10.32,8.53,24.74,24.74,0,0,0,10.18,0,18.08,18.08,0,0,0,6.84-2.71c.24-.16.5-.28.5-.67,0-1.71,0-3.41,0-5.25l-.67.48a18.13,18.13,0,0,1-11.59,3.66,10.85,10.85,0,0,1-10.28-7,17.37,17.37,0,0,1-1.06-5.27c0-.62.13-.77.74-.76q12.23,0,24.47,0c.16,0,.32,0,.48,0s.46-.07.46-.42a37.44,37.44,0,0,0-.59-8.62C524.76,118.93,522.64,115.26,518.45,113.15Zm1.2,14.25c-3.12,0-6.24,0-9.36,0s-6.19,0-9.29,0c-.57,0-.73-.07-.61-.7.73-3.72,2.38-6.84,5.72-8.84a9.07,9.07,0,0,1,14,6.89c.1.66.1,1.33.18,2S520.17,127.4,519.65,127.4Z"/><path class="cls-6" d="M395,121c-.93-4.69-3.54-7.84-8.29-9a21.18,21.18,0,0,0-7-.35,22.64,22.64,0,0,0-9.55,3,.88.88,0,0,0-.48.88c0,1.62,0,3.23,0,4.85,0,.17-.08.37.14.52l.48-.37a18.12,18.12,0,0,1,11.87-4.05,6.58,6.58,0,0,1,6.7,5.15,17.26,17.26,0,0,1,.53,3.62c0,.49-.11.68-.61.75-2.45.32-4.89.66-7.34,1a43.15,43.15,0,0,0-6.94,1.26c-3.29,1-6,2.78-7.49,6.08a13.28,13.28,0,0,0-1,6.23,9.8,9.8,0,0,0,6.6,8.9,15.08,15.08,0,0,0,6.21.79,11.91,11.91,0,0,0,8.88-4.48c.54-.67,1-1.39,1.64-2.23,0,1.91,0,3.65,0,5.38,0,.43.12.55.55.54,1.57,0,3.14,0,4.71,0,.58,0,.72-.16.72-.73q0-11.61,0-23.22A23.68,23.68,0,0,0,395,121Zm-7.15,19.58A9.88,9.88,0,0,1,376.5,145a5.91,5.91,0,0,1-4.25-6.42,13.81,13.81,0,0,1,.2-1.58,4.86,4.86,0,0,1,2.62-3.46,18.94,18.94,0,0,1,6.24-1.7c2.56-.36,5.12-.69,7.67-1.06.41-.06.53,0,.51.42,0,.71,0,1.43,0,2.41A12.33,12.33,0,0,1,387.88,140.61Z"/><path class="cls-6" d="M268.75,85.85q0-11.71,0-23.43t0-23.36c0-.62-.16-.77-.77-.76q-4.92,0-9.84,0c-.54,0-.7.14-.7.69q0,23.46,0,46.93c0,.55.15.69.69.69q4.92,0,9.84,0C268.59,86.61,268.75,86.47,268.75,85.85Z"/><path class="cls-7" d="M245.6,114.27a21,21,0,0,0-9.47-.46c-5.83,1-10.23,4-12.6,9.45a22.93,22.93,0,0,0-.61,16.84,15.16,15.16,0,0,0,9.64,9.83,20,20,0,0,0,8.95.91,16,16,0,0,0,12.81-8.11,21.36,21.36,0,0,0,2.55-11.4,25,25,0,0,0-.79-5.89C254.54,119.88,251.24,115.95,245.6,114.27Zm4.53,24.29a10.12,10.12,0,0,1-9.7,7.52c-3.9.21-7.31-.85-9.88-4a13.62,13.62,0,0,1-2.88-7.66c-.06-.69-.07-1.38-.09-1.8a18.8,18.8,0,0,1,1.29-7.38c2.27-5.27,6.78-7.27,11.95-6.84,5.83.49,8.92,4.38,9.84,9.7A21.93,21.93,0,0,1,250.13,138.56Z"/><path class="cls-6" d="M485.3,120.5c-1.06-3.81-3.12-6.84-7-8.15-5.33-1.79-12.22-.84-16.29,5.23l-.66,1c-.22-.26-.14-.5-.14-.71,0-1.62,0-3.24,0-4.85,0-.46-.14-.58-.59-.57q-2.43,0-4.85,0c-.44,0-.54.14-.54.56q0,18,0,36.05c0,.46.13.59.59.58,1.55,0,3.1,0,4.64,0,.63,0,.75-.18.75-.77,0-6.7,0-13.4,0-20.1a18.46,18.46,0,0,1,.26-3.1c.73-4.28,4-8.5,8.89-9,4.05-.39,7.41,1.07,8.87,5.39a19.55,19.55,0,0,1,.88,6.35q0,10.26,0,20.52c0,.55.14.7.69.69,1.52,0,3.05,0,4.57,0,.6,0,.71-.19.71-.74q0-11,0-21.91A23.8,23.8,0,0,0,485.3,120.5Z"/><path class="cls-6" d="M448.09,146.49c0-.73,0-1.45,0-2.31a7,7,0,0,1-4.47,1.23,4.44,4.44,0,0,1-4.62-3.93,14.61,14.61,0,0,1-.28-3q0-10.23,0-20.45c0-.5.11-.67.64-.66,2.7,0,5.41,0,8.11,0,.46,0,.66-.08.64-.6q-.05-1.9,0-3.81c0-.5-.16-.61-.63-.61-2.73,0-5.45,0-8.18,0-.45,0-.59-.12-.58-.58,0-2.2,0-4.39,0-6.59,0-1.24,0-2.49,0-3.8-1.82.58-3.57,1.16-5.33,1.69a.75.75,0,0,0-.64.87c0,2.56,0,5.13,0,7.69,0,.59-.17.72-.73.71-1.69,0-3.37,0-5.06,0-.42,0-.62.07-.61.56,0,1.29,0,2.59,0,3.88,0,.47.14.58.59.57,1.69,0,3.37,0,5.06,0,.64,0,.75.19.74.77q0,10.71,0,21.42a17.26,17.26,0,0,0,.42,3.92c.63,2.73,2,5,4.68,6a13.22,13.22,0,0,0,9.54,0,.88.88,0,0,0,.7-1C448,147.88,448.09,147.18,448.09,146.49Z"/><path class="cls-9" d="M271.07,97.87c.07-.44-.1-.59-.56-.58-1.45,0-2.91,0-4.37,0-.63,0-.8.15-.8.79q0,12.79,0,25.57t0,25.78c0,.57.13.75.72.73,1.38,0,2.77-.06,4.16,0,.7,0,.86-.16.86-.86q0-25.57,0-51.14A1.89,1.89,0,0,1,271.07,97.87Z"/><path class="cls-10" d="M554,113c0-.54-.21-.73-.67-.83-4.15-.89-7.63.16-10.32,3.52a21.69,21.69,0,0,0-2.44,4.28v-.67c0-2,0-4,0-6,0-.74-.22-.88-.89-.85-1.13.05-2.26,0-3.4,0-1.7,0-1.7,0-1.7,1.67q0,17.33,0,34.66c0,.73.21.88.88.85,1.41-.05,2.82-.07,4.23,0,.76,0,.89-.23.88-.92,0-4.71,0-9.43,0-14.14,0-2.08-.08-4.16.11-6.23a14.57,14.57,0,0,1,2.76-7.85,7.49,7.49,0,0,1,6.78-3.16,7.31,7.31,0,0,1,3.76,1.2C553.94,116.57,553.91,114.77,554,113Z"/><path class="cls-10" d="M424.69,112.18a10.32,10.32,0,0,0-5.94.18,11,11,0,0,0-6.38,6.63c-.14.33-.26.66-.39,1l-.15,0v-.65c0-2.08,0-4.16,0-6.24,0-.5-.09-.68-.64-.67-1.57,0-3.14,0-4.71,0-.47,0-.63.11-.63.61q0,18,0,36c0,.51.18.61.64.6,1.57,0,3.14,0,4.71,0,.56,0,.63-.19.63-.68,0-5.38,0-10.77,0-16.15,0-1.5,0-3,.12-4.5a14.54,14.54,0,0,1,2.78-7.85,7.47,7.47,0,0,1,6.73-3.13,7.13,7.13,0,0,1,3.79,1.22c0-2,0-3.94,0-5.85C425.26,112.24,424.94,112.23,424.69,112.18Z"/><path class="cls-6" d="M259,29.67a7.94,7.94,0,0,0,5.32,1.06A6.38,6.38,0,0,0,270,23c-.66-3.11-3.37-5.18-6.9-5.18a6.8,6.8,0,0,0-1.62.15,6.2,6.2,0,0,0-5,4.91A6.32,6.32,0,0,0,259,29.67Z"/></svg>