<svg id="Layer_1" data-name="Layer 1" xmlns="http://www.w3.org/2000/svg" viewBox="0 0 50 50"><defs><style>.cls-1{fill:#fff;}</style></defs><title>icon-sprite</title><path class="cls-1" d="M41.88,16.66c0,.36,0,.73,0,1.09,0,11.16-8.49,24-24,24A23.88,23.88,0,0,1,5,38a16.5,16.5,0,0,0,2,.12,16.92,16.92,0,0,0,10.48-3.61,8.45,8.45,0,0,1-7.88-5.86,8.58,8.58,0,0,0,1.59.16,8.35,8.35,0,0,0,2.22-.3A8.45,8.45,0,0,1,6.6,20.19s0-.07,0-.1a8.35,8.35,0,0,0,3.82,1.05A8.45,8.45,0,0,1,7.81,9.87a24,24,0,0,0,17.4,8.82A8.32,8.32,0,0,1,25,16.77,8.44,8.44,0,0,1,39.59,11a17,17,0,0,0,5.36-2,8.48,8.48,0,0,1-3.71,4.67,16.53,16.53,0,0,0,4.85-1.33A17.25,17.25,0,0,1,41.88,16.66Z"/></svg>