<svg id="Layer_1" data-name="Layer 1" xmlns="http://www.w3.org/2000/svg" viewBox="0 0 120 57.35"><defs><style>.cls-1{fill:#ea4335;}.cls-2{fill:#fbbc05;}.cls-3{fill:#4285f4;}.cls-4{fill:#34a853;}</style></defs><title>icon-sprite</title><path class="cls-1" d="M53.41,31.55A8.58,8.58,0,1,1,44.83,23,8.45,8.45,0,0,1,53.41,31.55Zm-3.76,0a4.84,4.84,0,1,0-9.65,0,4.84,4.84,0,1,0,9.65,0Z"/><path class="cls-2" d="M71.92,31.55A8.58,8.58,0,1,1,63.34,23,8.45,8.45,0,0,1,71.92,31.55Zm-3.76,0a4.84,4.84,0,1,0-9.65,0,4.84,4.84,0,1,0,9.65,0Z"/><path class="cls-3" d="M89.66,23.51V38.87c0,6.32-3.73,8.9-8.13,8.9a8.14,8.14,0,0,1-7.58-5l3.27-1.36a4.72,4.72,0,0,0,4.31,3c2.82,0,4.57-1.74,4.57-5V38.15H86a5.82,5.82,0,0,1-4.5,1.94,8.56,8.56,0,0,1,0-17.1A5.93,5.93,0,0,1,86,24.91h.13V23.51h3.57Zm-3.3,8.07c0-3-2-5.21-4.57-5.21A5,5,0,0,0,77,31.58a4.91,4.91,0,0,0,4.76,5.15C84.35,36.73,86.36,34.56,86.36,31.58Z"/><path class="cls-4" d="M95.54,14.51V39.58H91.87V14.51Z"/><path class="cls-1" d="M109.81,34.36l2.92,1.94a8.51,8.51,0,0,1-7.13,3.79,8.37,8.37,0,0,1-8.49-8.55c0-5.09,3.66-8.55,8.07-8.55s6.61,3.53,7.32,5.44l.39,1-11.43,4.74a4.35,4.35,0,0,0,4.15,2.59,4.88,4.88,0,0,0,4.21-2.37Zm-9-3.08,7.64-3.17a3.31,3.31,0,0,0-3.17-1.81A4.69,4.69,0,0,0,100.84,31.28Z"/><path class="cls-3" d="M22.38,29.32V25.69H34.61a12,12,0,0,1,.18,2.19,12,12,0,0,1-3.14,8.49,12.14,12.14,0,0,1-9.26,3.73A13.47,13.47,0,0,1,8.91,26.82,13.47,13.47,0,0,1,22.39,13.54a12.65,12.65,0,0,1,9.1,3.66l-2.56,2.56a9.25,9.25,0,0,0-6.54-2.59,9.65,9.65,0,0,0,0,19.3,8.88,8.88,0,0,0,6.71-2.66,7.52,7.52,0,0,0,2-4.49Z"/></svg>