<svg id="Layer_1" data-name="Layer 1" xmlns="http://www.w3.org/2000/svg" viewBox="0 0 120 57.35"><defs><style>.cls-1{fill:#262626;}</style></defs><title>icon-sprite</title><path class="cls-1" d="M90.18,40.84a2.23,2.23,0,0,1-.29,3,2.42,2.42,0,0,1-3.19-.29l-5.07-6.52L76.7,43.45a2.27,2.27,0,0,1-3.19.29,2.12,2.12,0,0,1-.43-3l5.8-7.54-5.8-7.54a2.28,2.28,0,1,1,3.62-2.75l4.93,6.52,5.07-6.23a2.22,2.22,0,1,1,3.48,2.75L84.53,33.3ZM63.8,40A6.68,6.68,0,0,1,57,33.3a6.81,6.81,0,0,1,13.63,0A6.87,6.87,0,0,1,63.8,40Zm-20,0A6.68,6.68,0,0,1,37,33.3a6.81,6.81,0,0,1,13.63,0A6.68,6.68,0,0,1,43.79,40Zm20-17.69a11.22,11.22,0,0,0-9.86,5.8,11.28,11.28,0,0,0-10-5.8,11.92,11.92,0,0,0-6.81,2.17V15.18A2.23,2.23,0,0,0,35,13a2.26,2.26,0,0,0-2.32,2.17V33.45A11.11,11.11,0,0,0,43.79,44.32a11.41,11.41,0,0,0,10-5.94,11.35,11.35,0,0,0,9.86,5.94A11.2,11.2,0,0,0,75,33.16C75.11,27.21,70,22.28,63.8,22.28Z"/></svg>