<svg id="Layer_1" data-name="Layer 1" xmlns="http://www.w3.org/2000/svg" viewBox="0 0 50 50"><defs><style>.cls-1{fill:#fff;}</style></defs><title>icon-sprite</title><g id="RgLHAW"><path class="cls-1" d="M46.95,25.06c0,2.91,0,5.83,0,8.74a12.85,12.85,0,0,1-8.89,12.48,14.2,14.2,0,0,1-4.29.67C27.9,47,22,47,16.16,47A12.93,12.93,0,0,1,3.28,36.8a13.67,13.67,0,0,1-.31-3c0-5.85,0-11.7,0-17.55A13,13,0,0,1,16,3h17.8A12.93,12.93,0,0,1,46.63,13.22a14.6,14.6,0,0,1,.3,3C47,19.19,46.95,22.13,46.95,25.06ZM25,7C22,7,19.12,7,16.21,7a10.45,10.45,0,0,0-2.17.2A8.86,8.86,0,0,0,7,16.07q0,8.93,0,17.86a9.3,9.3,0,0,0,.22,2A8.85,8.85,0,0,0,16,43q8.93,0,17.86,0a9.29,9.29,0,0,0,2-.2,8.86,8.86,0,0,0,7.08-8.85q0-8.93,0-17.86a9.28,9.28,0,0,0-.2-2A8.87,8.87,0,0,0,33.95,7C30.95,7,28,7,25,7Z"/><path class="cls-1" d="M36.95,25a12,12,0,1,1-12-12A12,12,0,0,1,36.95,25Zm-4,0a8,8,0,1,0-8,8A8,8,0,0,0,32.95,25Z"/><path class="cls-1" d="M38.57,13.2a1.81,1.81,0,1,1-1.77-1.82A1.82,1.82,0,0,1,38.57,13.2Z"/></g></svg>