<svg id="Layer_1" data-name="Layer 1" xmlns="http://www.w3.org/2000/svg" viewBox="0 0 120 57.35"><defs><style>.cls-1{fill:#b0b0b0;}</style></defs><title>icon-sprite</title><path class="cls-1" d="M17,26.71V13.3c0-.15,0-.18-.18-.18H3.22V26.88H16.8C16.94,26.89,17,26.86,17,26.71Z"/><path class="cls-1" d="M16.78,28.33H3.21V42H16.8c.14,0,.18,0,.18-.18V28.52C17,28.33,17,28.33,16.78,28.33Z"/><path class="cls-1" d="M31.92,13.12H18.58c-.14,0-.17,0-.17.17q0,3.36,0,6.72t0,6.72c0,.14,0,.17.17.17H31.93c.14,0,.17,0,.17-.17V13.29C32.09,13.15,32.05,13.12,31.92,13.12Z"/><path class="cls-1" d="M31.93,28.32H18.58c-.13,0-.17,0-.17.17V41.84c0,.12,0,.16.16.16H31.93c.13,0,.16,0,.16-.16V28.49C32.09,28.36,32.06,28.32,31.93,28.32Z"/><path class="cls-1" d="M36.47,28c0,.19,0,.19.2.19h1.92c.15,0,.19,0,.19-.19V18.85q0-.78,0-1.55c0-.21,0-.42,0-.65a.4.4,0,0,1,.06.13,10.6,10.6,0,0,0,.31,1q2.1,5.13,4.21,10.25a.17.17,0,0,0,.18.12h1.32A.2.2,0,0,0,45,28c1.15-2.84,2.3-5.67,3.44-8.51a19.2,19.2,0,0,0,1-2.54c0-.12.07-.24.1-.36h0c0,.61-.07,1.21-.07,1.82q0,4.8,0,9.59c0,.11,0,.14.14.14h2.16c.14,0,.16,0,.16-.17V14.06c0-.13,0-.16-.16-.16h-3a.26.26,0,0,0-.29.19q-1.09,2.71-2.2,5.4c-.48,1.17-1,2.35-1.43,3.53-.21.55-.41,1.12-.61,1.68-.06,0-.06-.1-.08-.15-.16-.46-.3-.92-.47-1.37Q41.84,18.6,40,14a.17.17,0,0,0-.19-.13H36.65c-.14,0-.18,0-.18.18v7Q36.47,24.51,36.47,28Z"/><path class="cls-1" d="M113.7,28.2a4.53,4.53,0,0,0,3.13-.1c.07,0,.08-.07.08-.14v-1.8s0-.08,0-.09-.06,0-.09,0a1.82,1.82,0,0,1-1.17.3,1.06,1.06,0,0,1-1-.74,2.6,2.6,0,0,1-.12-.85V20c0-.11,0-.14.14-.14h2.14c.11,0,.15,0,.15-.15V18.08c0-.11,0-.15-.15-.15h-2.12c-.15,0-.17,0-.17-.18V15c0-.12,0-.15-.15-.11l-2.14.65a.16.16,0,0,0-.14.18h0v2c0,.07,0,.14-.11.14h-3.4c-.08,0-.11,0-.11-.11v-.92a3.75,3.75,0,0,1,.09-.92,1.33,1.33,0,0,1,1-1.1,2.28,2.28,0,0,1,1.46.19c.1,0,.14,0,.13-.08V13.13A.14.14,0,0,0,111,13a4.9,4.9,0,0,0-.87-.14h-.7l-.29,0a3.46,3.46,0,0,0-3.11,3.4c0,.49,0,1,0,1.47,0,.19,0,.19-.19.19h-1.36c-.11,0-.14,0-.14.14v1.67c0,.11,0,.14.14.14h1.36c.15,0,.19,0,.19.18V28c0,.13,0,.17.16.16h2.05c.24,0,.21,0,.21-.2V20.06c0-.15,0-.18.18-.17h3.27c.13,0,.17,0,.17.17v5a5.62,5.62,0,0,0,.14,1.32A2.29,2.29,0,0,0,113.7,28.2Z"/><path class="cls-1" d="M101.47,18.18a5.77,5.77,0,0,0-2.54-.49,6.19,6.19,0,0,0-1.57.18A4.55,4.55,0,0,0,93.9,21a6.67,6.67,0,0,0-.06,4,4.41,4.41,0,0,0,3.23,3.19,6.3,6.3,0,0,0,3.57,0,4.47,4.47,0,0,0,3-2.63,6.63,6.63,0,0,0,.21-4.63A4.23,4.23,0,0,0,101.47,18.18Zm-.17,6.65A2.33,2.33,0,0,1,99,26.42a2.59,2.59,0,0,1-2.82-2.16,4.41,4.41,0,0,1-.13-1.12,4.63,4.63,0,0,1,.33-1.86,2.53,2.53,0,0,1,2.74-1.56,2.5,2.5,0,0,1,1.42.54,2.54,2.54,0,0,1,.85,1.44A5.43,5.43,0,0,1,101.29,24.84Z"/><path class="cls-1" d="M81.34,17.95a6.49,6.49,0,0,0-4.08.12,4.44,4.44,0,0,0-2.69,2.5,6.5,6.5,0,0,0-.48,2.67,6.12,6.12,0,0,0,.18,1.48,4.47,4.47,0,0,0,3.09,3.4,6.26,6.26,0,0,0,3.23.17,4.59,4.59,0,0,0,3.62-3,6.65,6.65,0,0,0,.17-4.19A4.27,4.27,0,0,0,81.34,17.95Zm.51,6.82a2.33,2.33,0,0,1-2.3,1.65,2.78,2.78,0,0,1-1.82-.52,2.82,2.82,0,0,1-1-1.66,4.39,4.39,0,0,1-.12-1.06,4.81,4.81,0,0,1,.32-1.89,2.52,2.52,0,0,1,2.73-1.58,2.4,2.4,0,0,1,2.27,2A5.5,5.5,0,0,1,81.85,24.76Z"/><path class="cls-1" d="M85.91,27.91a7,7,0,0,0,3.2.49,4.56,4.56,0,0,0,2.05-.63,3,3,0,0,0,1-4,3.21,3.21,0,0,0-1.27-1.13c-.54-.29-1.11-.51-1.66-.76a2.71,2.71,0,0,1-.66-.38,1.06,1.06,0,0,1-.36-1,.91.91,0,0,1,.67-.75,2.22,2.22,0,0,1,.87-.11,4.5,4.5,0,0,1,2.15.7s.06.06.11,0V18.22c0-.09,0-.11-.11-.14a8.32,8.32,0,0,0-1.48-.33,5.34,5.34,0,0,0-2.65.28,3,3,0,0,0-2,3.47,2.69,2.69,0,0,0,1.35,1.88,11.38,11.38,0,0,0,1.54.72,4,4,0,0,1,1.06.57,1,1,0,0,1,.36,1,.89.89,0,0,1-.73.71,3.75,3.75,0,0,1-2.12-.13,5.08,5.08,0,0,1-1.48-.79.26.26,0,0,0,0,.16v2.05A.21.21,0,0,0,85.91,27.91Z"/><path class="cls-1" d="M66,18.1A6.48,6.48,0,0,0,61.79,18a4.66,4.66,0,0,0-3.1,2.88A6.29,6.29,0,0,0,58.5,25a4.42,4.42,0,0,0,2.9,3.07,6.42,6.42,0,0,0,3.41.17,4.29,4.29,0,0,0,1.33-.48c.06,0,.11-.06.11-.15V25.52a.3.3,0,0,0-.14.08,4.08,4.08,0,0,1-2.78.79,2.61,2.61,0,0,1-2.23-1.58,4,4,0,0,1,.09-3.57,2.72,2.72,0,0,1,2-1.48,3.6,3.6,0,0,1,2.33.33,3.84,3.84,0,0,1,.75.49.29.29,0,0,0,0-.17v-2A.28.28,0,0,0,66,18.1Z"/><path class="cls-1" d="M45,38.51V36.23c0-.08,0-.14-.11-.14H41.57c-.08,0-.11,0-.11.11v.87c0,.11,0,.15.14.15h2c.12,0,.15,0,.15.15V40a.25.25,0,0,1-.17.28,4.77,4.77,0,0,1-2.72.35,3.33,3.33,0,0,1-2.73-2,5.23,5.23,0,0,1-.08-4.19A3.64,3.64,0,0,1,41,32a5.42,5.42,0,0,1,3.69.66c.11.06.14.06.14-.07v-.94c0-.3,0-.3-.28-.41a7,7,0,0,0-3.46-.38,5,5,0,0,0-4.13,3,6.09,6.09,0,0,0,0,5,4.44,4.44,0,0,0,2.69,2.54,5.87,5.87,0,0,0,2.5.28,7.05,7.05,0,0,0,2.8-.8.23.23,0,0,0,.14-.23C45,40,45,39.26,45,38.51Z"/><path class="cls-1" d="M70.46,28V22.92a3.86,3.86,0,0,1,.5-2,1.85,1.85,0,0,1,2-.93,2.71,2.71,0,0,1,1.06.4V18c0-.08-.06-.09-.11-.11a2.84,2.84,0,0,0-1.39-.07,2.68,2.68,0,0,0-1.92,1.61l-.1.23h0V18.1c0-.11,0-.15-.15-.15H68.18c-.12,0-.14,0-.14.15V28c0,.13,0,.15.16.15h2.07C70.43,28.18,70.46,28.13,70.46,28Z"/><path class="cls-1" d="M65.82,30.54c0-.08,0-.11-.11-.11h-1c-.13,0-.16,0-.16.16v4.49a3.26,3.26,0,0,0-.65-.71,2.83,2.83,0,0,0-2.25-.45,3.06,3.06,0,0,0-2.42,1.9,5.26,5.26,0,0,0-.17,3.86,2.79,2.79,0,0,0,2.51,2.08,2.83,2.83,0,0,0,2.89-1.35s0-.08.08-.08v1.11c0,.12,0,.17.16.17q.45,0,.9,0c.15,0,.17,0,.17-.18V30.62A.57.57,0,0,1,65.82,30.54Zm-1.34,8.57a2.15,2.15,0,0,1-1.78,1.62,2.07,2.07,0,0,1-2.44-1.6,4.23,4.23,0,0,1,.15-2.88,2.2,2.2,0,0,1,3.32-1A2.08,2.08,0,0,1,64.6,37v.72A4.36,4.36,0,0,1,64.48,39.11Z"/><path class="cls-1" d="M75,31A4.36,4.36,0,0,0,73,30.5H70c-.13,0-.17,0-.17.17V41.36c0,.12,0,.16.15.15h1c.13,0,.16,0,.16-.16V37.52c0-.14,0-.19.18-.19s.61,0,.91,0a6.56,6.56,0,0,0,1.54-.12,3.47,3.47,0,0,0,2.44-1.82,3.65,3.65,0,0,0,.32-2.17A2.8,2.8,0,0,0,75,31Zm.1,3.68a2.1,2.1,0,0,1-1.72,1.47,4.08,4.08,0,0,1-.86.09H71.29c-.12,0-.16,0-.15-.15V31.81c0-.11,0-.15.14-.15.63,0,1.27,0,1.9,0a2.89,2.89,0,0,1,1,.25,1.71,1.71,0,0,1,1,1.13,2.81,2.81,0,0,1,0,1.56Z"/><path class="cls-1" d="M109.43,33.79a3.41,3.41,0,0,0-2.29-.26,3.36,3.36,0,0,0-2.49,2.1,5.16,5.16,0,0,0,0,4.13,3,3,0,0,0,2.18,1.8,5.23,5.23,0,0,0,2.15,0,3.83,3.83,0,0,0,1.45-.57c.05,0,.11-.06.11-.14V39.74l-.14.1a3.84,3.84,0,0,1-2.45.77,2.3,2.3,0,0,1-2.18-1.48,3.68,3.68,0,0,1-.22-1.12c0-.13,0-.16.16-.16H111a.09.09,0,0,0,.1-.09,7.92,7.92,0,0,0-.12-1.82A3,3,0,0,0,109.43,33.79Zm.25,3h-3.95c-.12,0-.15,0-.13-.15a2.63,2.63,0,0,1,1.21-1.87,1.92,1.92,0,0,1,3,1.46c0,.14,0,.28,0,.42S109.79,36.81,109.68,36.81Z"/><path class="cls-1" d="M83.31,35.45a2.24,2.24,0,0,0-1.75-1.9,4.48,4.48,0,0,0-1.48-.07,4.79,4.79,0,0,0-2,.63.19.19,0,0,0-.1.19v1s0,.08,0,.11l.1-.08a3.83,3.83,0,0,1,2.51-.86A1.39,1.39,0,0,1,82,35.59a3.65,3.65,0,0,1,.11.77c0,.1,0,.14-.13.16l-1.55.21A9.13,9.13,0,0,0,79,37a2.36,2.36,0,0,0-1.58,1.29,2.81,2.81,0,0,0-.21,1.32,2.07,2.07,0,0,0,1.4,1.88,3.19,3.19,0,0,0,1.31.17,2.52,2.52,0,0,0,1.88-.95c.11-.14.21-.29.35-.47v1.14c0,.09,0,.12.12.11h1c.12,0,.15,0,.15-.15V36.41A5,5,0,0,0,83.31,35.45ZM81.8,39.59a2.09,2.09,0,0,1-2.4.94,1.25,1.25,0,0,1-.9-1.36,2.92,2.92,0,0,1,0-.33,1,1,0,0,1,.55-.73,4,4,0,0,1,1.32-.36L82,37.52c.09,0,.11,0,.11.09v.51a2.61,2.61,0,0,1-.34,1.48Z"/><path class="cls-1" d="M56.6,28v-9.9c0-.13,0-.16-.16-.16H54.35c-.11,0-.15,0-.15.15V28c0,.12,0,.15.15.15h2.08C56.56,28.18,56.6,28.15,56.6,28Z"/><path class="cls-1" d="M51.7,34a4.44,4.44,0,0,0-2-.1,3.33,3.33,0,0,0-2.67,2,4.85,4.85,0,0,0-.13,3.56,3.21,3.21,0,0,0,2,2.08,4.23,4.23,0,0,0,1.89.19A3.39,3.39,0,0,0,53.54,40a4.52,4.52,0,0,0,.54-2.41,5.29,5.29,0,0,0-.17-1.25A3.16,3.16,0,0,0,51.7,34Zm1,5.14a2.14,2.14,0,0,1-2.05,1.59,2.36,2.36,0,0,1-2.09-.85,2.88,2.88,0,0,1-.61-1.62c0-.15,0-.29,0-.38a4,4,0,0,1,.27-1.56,2.35,2.35,0,0,1,2.53-1.45A2.23,2.23,0,0,1,52.77,37,4.64,4.64,0,0,1,52.66,39.17Z"/><path class="cls-1" d="M102.42,35.35a2.31,2.31,0,0,0-1.48-1.72,2.93,2.93,0,0,0-3.45,1.11l-.14.21a.19.19,0,0,1,0-.15v-1c0-.1,0-.12-.12-.12h-1c-.09,0-.11,0-.11.12v7.63c0,.1,0,.12.12.12h1c.13,0,.16,0,.16-.16V37.1a3.91,3.91,0,0,1,.06-.66,2.23,2.23,0,0,1,1.88-1.9,1.63,1.63,0,0,1,1.88,1.14,4.14,4.14,0,0,1,.19,1.34v4.34c0,.12,0,.15.15.15h1c.13,0,.15,0,.15-.16V36.71A5,5,0,0,0,102.42,35.35Z"/><path class="cls-1" d="M94.54,40.85v-.49a1.48,1.48,0,0,1-.95.26.94.94,0,0,1-1-.83,3.09,3.09,0,0,1-.06-.63V34.82c0-.11,0-.14.14-.14h1.72c.1,0,.14,0,.14-.13q0-.4,0-.81c0-.11,0-.13-.13-.13H92.68c-.1,0-.12,0-.12-.12V31.3l-1.13.36a.16.16,0,0,0-.14.18h0v1.63c0,.12,0,.15-.15.15H90.07c-.09,0-.13,0-.13.12v.82c0,.1,0,.12.12.12h1.07c.14,0,.16,0,.16.16v4.53a3.65,3.65,0,0,0,.09.83,1.63,1.63,0,0,0,1,1.27,2.8,2.8,0,0,0,2,0,.19.19,0,0,0,.15-.21A3.44,3.44,0,0,1,94.54,40.85Z"/><path class="cls-1" d="M57.09,30.56c0-.09,0-.12-.12-.12H56c-.13,0-.17,0-.17.17V41.47c0,.12,0,.16.15.15.29,0,.59,0,.88,0s.18,0,.18-.18V30.62A.4.4,0,0,1,57.09,30.56Z"/><path class="cls-1" d="M117,33.76a.15.15,0,0,0-.14-.18,2,2,0,0,0-2.18.74,4.59,4.59,0,0,0-.52.91V33.82c0-.16,0-.19-.19-.18s-.48,0-.72,0-.36,0-.36.35v7.33c0,.15,0,.19.19.18.3,0,.6,0,.9,0s.19,0,.19-.19v-3c0-.44,0-.88,0-1.32a3.08,3.08,0,0,1,.58-1.66,1.58,1.58,0,0,1,1.43-.67,1.55,1.55,0,0,1,.8.25C116.94,34.51,116.93,34.13,117,33.76Z"/><path class="cls-1" d="M89.59,33.59a2.18,2.18,0,0,0-1.26,0A2.33,2.33,0,0,0,87,35l-.08.21h0V33.78c0-.11,0-.14-.14-.14h-1c-.1,0-.13,0-.13.13v7.62c0,.11,0,.13.14.13h1c.12,0,.13,0,.13-.14V38c0-.32,0-.63,0-1a3.08,3.08,0,0,1,.59-1.66,1.58,1.58,0,0,1,1.42-.66,1.51,1.51,0,0,1,.8.26V33.7C89.71,33.6,89.64,33.6,89.59,33.59Z"/><path class="cls-1" d="M54.53,16.13a1.68,1.68,0,0,0,1.13.22,1.35,1.35,0,0,0,1.2-1.64,1.41,1.41,0,0,0-1.46-1.1,1.44,1.44,0,0,0-.34,0,1.31,1.31,0,0,0-1.06,1A1.34,1.34,0,0,0,54.53,16.13Z"/></svg>