<svg id="Layer_1" data-name="Layer 1" xmlns="http://www.w3.org/2000/svg" viewBox="0 0 120 16.16"><defs><style>.cls-1{fill:#003056;}.cls-2{fill:#7daed3;}</style></defs><title>icon-sprite</title><polygon class="cls-1" points="10.8 15.21 1 15.21 1 1 3.52 1 3.52 12.69 10.8 12.69 10.8 15.21"/><path class="cls-1" d="M21.52,15.49a6.28,6.28,0,0,1-6.27-6.27V1h2.52V9.22a3.75,3.75,0,1,0,7.51,0V1h2.52V9.22A6.28,6.28,0,0,1,21.52,15.49Z"/><path class="cls-1" d="M40.72,15.51a7.38,7.38,0,0,1,0-14.76,7.31,7.31,0,0,1,5.37,2.32L44.25,4.8A4.86,4.86,0,1,0,40.72,13a4.82,4.82,0,0,0,3.54-1.53l1.83,1.73A7.31,7.31,0,0,1,40.72,15.51Z"/><path class="cls-1" d="M94.8,15.51A7.38,7.38,0,1,1,94.8.75a7.31,7.31,0,0,1,5.37,2.32L98.34,4.8A4.82,4.82,0,0,0,94.8,3.27a4.86,4.86,0,1,0,0,9.72,4.81,4.81,0,0,0,3.53-1.53l1.83,1.73A7.31,7.31,0,0,1,94.8,15.51Z"/><rect class="cls-1" x="51.59" y="1" width="2.52" height="14.21"/><rect class="cls-1" x="79.18" y="1" width="2.52" height="14.21"/><path class="cls-1" d="M66.4,15.23H60.88V1H66.4a7.1,7.1,0,1,1,0,14.21Zm-3-2.51h3a4.59,4.59,0,1,0,0-9.18h-3Z"/><polygon class="cls-1" points="111.7 4.16 110.33 1.03 104.11 15.22 106.86 15.22 107.96 12.7 112.92 12.7 111.82 10.18 109.06 10.18 111.7 4.16"/><polygon class="cls-2" points="116.55 15.22 119.3 15.22 113.08 1.03 110.33 1.03 116.55 15.22"/></svg>