<svg id="Layer_1" data-name="Layer 1" xmlns="http://www.w3.org/2000/svg" viewBox="0 0 120 57.35"><defs><style>.cls-1{fill:#ed6c05;}</style></defs><title>icon-sprite</title><path id="y" class="cls-1" d="M62.65,13.62c.72-.89,3.91-.7,6.73,1.29L77,20.75c1.38,1.14,3.15,1.07,5.31.09l6-2.73c4.09-1.71,6.78-3.11,8.23-3.44,4.12-1.33,4.79.17,2.38,1.78l-13.88,8.7c-4.77,3-3.6,4.53-3.43,8l.94,12.79a2.52,2.52,0,0,1-2,2.45,18.15,18.15,0,0,1-3.9,0,2.52,2.52,0,0,1-2.08-2.31l.91-12.84c.14-2.43.68-5.73-1.52-7.55-2.5-2.17-5-4.86-7.51-7C65.34,17,61.6,14.92,62.65,13.62Z"/><path id="figure-head" class="cls-1" d="M85.86,11.33a10.5,10.5,0,0,0-5.44-.91,8.89,8.89,0,0,0-4,1.26A4.26,4.26,0,0,0,75,13.47c-.3,1.14-.3,2.08.4,2.57a4.86,4.86,0,0,0,3.76.84c1.22-.24,2.67-.61,3.9-.8-1.15.84-2.53,1.61-3.69,2.39a21.15,21.15,0,0,0,4.33,0c2.31-.7,3.86-1.4,4.47-3.32C88.48,13.48,87.53,12.28,85.86,11.33ZM79.6,14.25c-.84,0-1.52-.45-1.52-1s.68-1,1.52-1,1.52.45,1.52,1S80.42,14.25,79.6,14.25Zm4.74.45c-.89,0-1.63-.54-1.63-1.19s.73-1.19,1.63-1.19S86,12.87,86,13.52A1.48,1.48,0,0,1,84.34,14.71Z"/><path id="t" class="cls-1" d="M63.91,27.19c2.59-1.75,4.05-1.59,4.39.12,0,2.25.72,3.37,2.39,3.41,1.07.31,1.59.82,1.57,1.75,0,.75-.35,1.29-1.61,1.64a2.34,2.34,0,0,0-2.31,2.27c.05,2.52.09,5,.14,7.55,0,1.12.87,1.56,2.24,1.28.4-.09,1-.42,1.42-.26.12,2.08-.47,3.51-2.6,3.5a33.06,33.06,0,0,1-3.72,0c-2-.52-2.76-2.29-2.78-4.89s0-4.95,0-7.41c-.05-1.17-.77-1.85-2.17-2a1.56,1.56,0,0,1-1.33-1.82,1.7,1.7,0,0,1,1.64-1.57A1.78,1.78,0,0,0,63.09,29,2.72,2.72,0,0,1,63.91,27.19Z"/><path id="n" class="cls-1" d="M40.51,32.81a2.3,2.3,0,0,1,2-2.13,4.57,4.57,0,0,1,1.38,0c1,.07,1.82.44,1.85,1s0,.72,0,1.15l1.22-1.26c3.11-2.39,5.61-1.54,8-.21a5.33,5.33,0,0,1,2.31,4.44c0,3.51,0,7,0,10.54-.21,1.14-1,1.83-2.53,1.9A2.43,2.43,0,0,1,52,46.53L51.8,35.7c-.26-1.1-1-1.92-2.81-2.13-2.06.26-3.15,1.52-3.22,3.76,0,3-.05,6.08-.07,9.11a2.86,2.86,0,0,1-1.87,1.8l-1.7-.14a2.59,2.59,0,0,1-1.7-1.66C40.47,41.88,40.49,37.36,40.51,32.81Z"/><path id="dot" class="cls-1" d="M33.34,23c1.89-.05,2.76.77,2.78,2.29-.09,1.7-1.17,2.27-2.8,2.2s-2.73-.58-2.74-2.22A2.44,2.44,0,0,1,33.34,23Z"/><path id="i" class="cls-1" d="M30.58,32.78a2.49,2.49,0,0,1,2.74-2.13c1.9,0,2.46.94,2.64,2.13,0,4.51,0,9,0,13.54a2.28,2.28,0,0,1-2.64,1.8c-1.43.16-2.24-.4-2.57-2.13C30.7,41.64,30.58,37.13,30.58,32.78Z"/></svg>