<svg id="Layer_1" data-name="Layer 1" xmlns="http://www.w3.org/2000/svg" viewBox="0 0 120 57.35"><defs><style>.cls-1{fill:#212121;}</style></defs><title>icon-sprite</title><path class="cls-1" d="M41.2,11.78h1.17v5.6h3.5v1.07H41.2Z"/><path class="cls-1" d="M49.89,18.56a3.45,3.45,0,1,1,3.49-3.46A3.39,3.39,0,0,1,49.89,18.56Zm0-5.82a2.25,2.25,0,0,0-2.25,2.36,2.29,2.29,0,0,0,2.27,2.38,2.25,2.25,0,0,0,2.25-2.36A2.29,2.29,0,0,0,49.89,12.74Z"/><path class="cls-1" d="M59.46,11.78h1.15v6.66h-1L56,13.7v4.74H54.81V11.78h1.09l3.57,4.61Z"/><path class="cls-1" d="M64.81,18.45H62.33V11.78h2.48a3.34,3.34,0,1,1,0,6.66Zm0-5.6H63.5v4.53h1.31a2.17,2.17,0,0,0,2.31-2.26A2.19,2.19,0,0,0,64.81,12.85Z"/><path class="cls-1" d="M73,18.56a3.45,3.45,0,1,1,3.49-3.46A3.39,3.39,0,0,1,73,18.56Zm0-5.82a2.25,2.25,0,0,0-2.25,2.36A2.29,2.29,0,0,0,73,17.48a2.25,2.25,0,0,0,2.25-2.36A2.29,2.29,0,0,0,73,12.74Z"/><path class="cls-1" d="M82.52,11.78h1.15v6.66h-1L79,13.7v4.74H77.87V11.78H79l3.57,4.61Z"/><path class="cls-1" d="M44.48,26.12h0L42.35,23v4.76H41.2V21.09h1.25l2,3.15,2-3.15h1.25v6.66H46.58V23Z"/><path class="cls-1" d="M54.41,22.14H50.64v1.73H54v1H50.64v1.79h3.82v1h-5V21.09h4.94Z"/><path class="cls-1" d="M58.66,27.76H57.48V22.18H55.37V21.09h5.41v1.09H58.66Z"/><path class="cls-1" d="M66.29,27.76l-1.64-2.32H63.19v2.32H62V21.09h3c1.53,0,2.48.81,2.48,2.11a2,2,0,0,1-1.59,2l1.8,2.52Zm-1.4-5.6h-1.7V24.4H64.9c.84,0,1.37-.44,1.37-1.12S65.76,22.16,64.89,22.16Z"/><path class="cls-1" d="M72.08,27.87a3.45,3.45,0,1,1,3.49-3.46A3.39,3.39,0,0,1,72.08,27.87Zm0-5.82a2.25,2.25,0,0,0-2.25,2.36A2.29,2.29,0,0,0,72.1,26.8a2.25,2.25,0,0,0,2.25-2.36A2.29,2.29,0,0,0,72.08,22.06Z"/><path class="cls-1" d="M79.49,25.62H78.16v2.14H77V21.09h2.63a2.24,2.24,0,0,1,2.53,2.24C82.15,24.84,81,25.62,79.49,25.62Zm0-3.46H78.16v2.4h1.36c.89,0,1.44-.49,1.44-1.2S80.4,22.16,79.53,22.16Z"/><path class="cls-1" d="M86.53,27.87A3.45,3.45,0,1,1,90,24.42,3.39,3.39,0,0,1,86.53,27.87Zm0-5.82a2.25,2.25,0,0,0-2.25,2.36,2.29,2.29,0,0,0,2.27,2.38,2.25,2.25,0,0,0,2.25-2.36A2.29,2.29,0,0,0,86.53,22.06Z"/><path class="cls-1" d="M91.45,21.09h1.17v5.6h3.5v1.07H91.45Z"/><path class="cls-1" d="M98.58,21.09v6.66H97.41V21.09Z"/><path class="cls-1" d="M103.18,27.76H102V22.18H99.88V21.09h5.41v1.09h-2.11Z"/><path class="cls-1" d="M112,27.76h-1.24l-.68-1.61H107l-.69,1.61h-1.2L108,21h1.09Zm-3.49-5.31-1.14,2.67h2.29Z"/><path class="cls-1" d="M117.85,21.09H119v6.66h-1L114.34,23v4.74h-1.15V21.09h1.09l3.57,4.61Z"/><path class="cls-1" d="M46.8,34.19a2.66,2.66,0,0,1-2.87,3,2.63,2.63,0,0,1-2.84-2.93V30.41h1.17V34.2c0,1.24.64,1.9,1.69,1.9s1.68-.63,1.68-1.86V30.41H46.8Z"/><path class="cls-1" d="M53.06,30.41h1.15v6.66h-1l-3.68-4.74v4.74H48.41V30.41h1.09L53.06,35Z"/><path class="cls-1" d="M57.17,30.41v6.66H56V30.41Z"/><path class="cls-1" d="M63.68,30.41h1.27l-2.77,6.71h-1l-2.77-6.71h1.29l2,5.12Z"/><path class="cls-1" d="M71,31.45H67.26v1.73H70.6v1H67.26V36h3.82v1h-5V30.41H71Z"/><path class="cls-1" d="M76.74,37.07l-1.64-2.32H73.64v2.32H72.47V30.41h3c1.53,0,2.48.81,2.48,2.11a2,2,0,0,1-1.59,2l1.8,2.52Zm-1.4-5.6h-1.7v2.24h1.71c.84,0,1.37-.44,1.37-1.12S76.21,31.47,75.35,31.47Z"/><path class="cls-1" d="M81.92,33.21c1.41.34,2.14.85,2.14,2s-1,2-2.38,2a4.11,4.11,0,0,1-2.78-1.07l.7-.84a3.07,3.07,0,0,0,2.1.87c.72,0,1.18-.33,1.18-.85s-.27-.74-1.5-1c-1.42-.34-2.22-.76-2.22-2a2,2,0,0,1,2.28-1.94,3.69,3.69,0,0,1,2.42.84l-.63.89a3,3,0,0,0-1.81-.69c-.69,0-1.09.35-1.09.8S80.65,32.9,81.92,33.21Z"/><path class="cls-1" d="M86.69,30.41v6.66H85.51V30.41Z"/><path class="cls-1" d="M91.28,37.07H90.1V31.49H88V30.41H93.4v1.09H91.28Z"/><path class="cls-1" d="M97.78,37.07H96.6V34.44l-2.65-4h1.38l1.87,3,1.89-3h1.34l-2.65,4Z"/><path class="cls-1" d="M45.88,46.86h-.59l-.57-1.29H42.06l-.58,1.29h-.56l2.22-4.91h.52Zm-2.49-4.27-1.11,2.49H44.5Z"/><path class="cls-1" d="M48.78,46.94a2.52,2.52,0,0,1,0-5,2.54,2.54,0,0,1,1.9.77l-.38.4a2.12,2.12,0,0,0-1.53-.67,2,2,0,0,0,0,4,2.12,2.12,0,0,0,1.57-.7l.36.36A2.54,2.54,0,0,1,48.78,46.94Z"/><path class="cls-1" d="M53.79,46.94a2.52,2.52,0,0,1,0-5,2.54,2.54,0,0,1,1.9.77l-.38.4a2.12,2.12,0,0,0-1.53-.67,2,2,0,0,0,0,4,2.12,2.12,0,0,0,1.57-.7l.36.36A2.54,2.54,0,0,1,53.79,46.94Z"/><path class="cls-1" d="M60.22,42.48h-3v1.66h2.66v.5H57.25v1.71h3v.5H56.7V42h3.52Z"/><path class="cls-1" d="M61.36,42h.55v4.37h2.74v.51H61.36Z"/><path class="cls-1" d="M69.2,42.48h-3v1.66h2.66v.5H66.22v1.71h3v.5H65.67V42H69.2Z"/><path class="cls-1" d="M73.7,46.86,72.28,45H70.89v1.89h-.55V42h2.1c1.07,0,1.76.58,1.76,1.46a1.43,1.43,0,0,1-1.32,1.43l1.5,2Zm-1.3-4.37h-1.5v2h1.5c.73,0,1.25-.38,1.25-1S73.18,42.49,72.4,42.49Z"/><path class="cls-1" d="M79.92,46.86h-.59l-.57-1.29H76.1l-.58,1.29H75l2.22-4.91h.52Zm-2.49-4.27-1.11,2.49h2.22Z"/><path class="cls-1" d="M82.1,46.86h-.56V42.49H79.9V42h3.83v.51H82.1Z"/><path class="cls-1" d="M86.69,46.94a2.52,2.52,0,1,1,2.49-2.53A2.45,2.45,0,0,1,86.69,46.94Zm0-4.53a1.92,1.92,0,0,0-1.91,2,1.94,1.94,0,0,0,1.92,2,1.92,1.92,0,0,0,1.91-2A1.94,1.94,0,0,0,86.69,42.41Z"/><path class="cls-1" d="M93.71,46.86,92.29,45H90.9v1.89h-.55V42h2.1c1.07,0,1.76.58,1.76,1.46a1.43,1.43,0,0,1-1.32,1.43l1.5,2Zm-1.3-4.37H90.9v2h1.5c.73,0,1.25-.38,1.25-1S93.19,42.49,92.4,42.49Z"/><circle class="cls-1" cx="19.48" cy="11.81" r="1"/><circle class="cls-1" cx="19.48" cy="15.08" r="1"/><circle class="cls-1" cx="19.48" cy="18.35" r="1"/><circle class="cls-1" cx="19.48" cy="21.47" r="1"/><circle class="cls-1" cx="23.48" cy="13.87" r="1" transform="translate(4.01 32.96) rotate(-75)"/><circle class="cls-1" cx="22.63" cy="17.03" r="1" transform="translate(0.33 34.48) rotate(-75)"/><circle class="cls-1" cx="21.79" cy="20.19" r="1" transform="translate(-3.35 36.01) rotate(-75)"/><circle class="cls-1" cx="27.98" cy="14.08" r="1" transform="translate(1.79 31.27) rotate(-60)"/><circle class="cls-1" cx="26.34" cy="16.92" r="1" transform="translate(-1.48 31.27) rotate(-60)"/><circle class="cls-1" cx="24.7" cy="19.75" r="1" transform="translate(-4.75 31.27) rotate(-60)"/><circle class="cls-1" cx="23.15" cy="22.45" r="1" transform="translate(-7.87 31.27) rotate(-60)"/><circle class="cls-1" cx="30.41" cy="17.87" r="1" transform="translate(-3.73 26.74) rotate(-45)"/><circle class="cls-1" cx="28.1" cy="20.18" r="1" transform="translate(-6.04 25.78) rotate(-45)"/><circle class="cls-1" cx="25.78" cy="22.5" r="1" transform="translate(-8.36 24.82) rotate(-45)"/><circle class="cls-1" cx="34.2" cy="20.31" r="1" transform="translate(-5.57 19.82) rotate(-30)"/><circle class="cls-1" cx="31.36" cy="21.94" r="1" transform="matrix(0.87, -0.5, 0.5, 0.87, -6.77, 18.62)"/><circle class="cls-1" cx="28.53" cy="23.58" r="1" transform="matrix(0.87, -0.5, 0.5, 0.87, -7.97, 17.42)"/><circle class="cls-1" cx="25.83" cy="25.13" r="1" transform="translate(-9.11 16.28) rotate(-30)"/><circle class="cls-1" cx="34.41" cy="24.8" r="1" transform="translate(-5.25 9.75) rotate(-15)"/><circle class="cls-1" cx="31.25" cy="25.65" r="1" transform="translate(-5.57 8.96) rotate(-15)"/><circle class="cls-1" cx="28.09" cy="26.49" r="1" transform="translate(-5.9 8.17) rotate(-15)"/><circle class="cls-1" cx="36.47" cy="28.8" r="1"/><circle class="cls-1" cx="33.2" cy="28.8" r="1"/><circle class="cls-1" cx="29.93" cy="28.8" r="1"/><circle class="cls-1" cx="26.81" cy="28.8" r="1"/><circle class="cls-1" cx="34.41" cy="32.8" r="1" transform="translate(-6.18 57.55) rotate(-75)"/><circle class="cls-1" cx="31.25" cy="31.96" r="1" transform="translate(-7.7 53.87) rotate(-75)"/><circle class="cls-1" cx="28.09" cy="31.11" r="1" transform="translate(-9.23 50.19) rotate(-75)"/><circle class="cls-1" cx="34.2" cy="37.3" r="1" transform="translate(-15.2 48.26) rotate(-60)"/><circle class="cls-1" cx="31.36" cy="35.66" r="1" transform="translate(-15.2 44.99) rotate(-60)"/><circle class="cls-1" cx="28.53" cy="34.03" r="1" transform="translate(-15.2 41.72) rotate(-60)"/><circle class="cls-1" cx="25.83" cy="32.47" r="1" transform="translate(-15.2 38.61) rotate(-60)"/><circle class="cls-1" cx="30.41" cy="39.73" r="1" transform="translate(-19.19 33.14) rotate(-45)"/><circle class="cls-1" cx="28.1" cy="37.42" r="1" transform="translate(-18.23 30.83) rotate(-45)"/><circle class="cls-1" cx="25.78" cy="35.11" r="1" transform="translate(-17.27 28.51) rotate(-45)"/><circle class="cls-1" cx="27.98" cy="43.52" r="1" transform="translate(-18.01 19.82) rotate(-30)"/><circle class="cls-1" cx="26.34" cy="40.69" r="1" transform="translate(-16.81 18.62) rotate(-30)"/><circle class="cls-1" cx="24.7" cy="37.85" r="1" transform="translate(-15.62 17.42) rotate(-30)"/><circle class="cls-1" cx="23.15" cy="35.16" r="1" transform="translate(-14.48 16.28) rotate(-30)"/><circle class="cls-1" cx="23.48" cy="43.74" r="1" transform="translate(-10.52 7.57) rotate(-15)"/><circle class="cls-1" cx="22.63" cy="40.57" r="1" transform="translate(-9.73 7.24) rotate(-15)"/><circle class="cls-1" cx="21.79" cy="37.41" r="1" transform="translate(-8.94 6.91) rotate(-15)"/><circle class="cls-1" cx="19.48" cy="45.8" r="1"/><circle class="cls-1" cx="19.48" cy="42.52" r="1"/><circle class="cls-1" cx="19.48" cy="39.25" r="1"/><circle class="cls-1" cx="19.48" cy="36.14" r="1"/><circle class="cls-1" cx="15.48" cy="43.74" r="1" transform="translate(-30.77 47.37) rotate(-75)"/><circle class="cls-1" cx="16.32" cy="40.57" r="1" transform="translate(-27.09 45.84) rotate(-75)"/><circle class="cls-1" cx="17.17" cy="37.41" r="1" transform="translate(-23.41 44.32) rotate(-75)"/><circle class="cls-1" cx="10.98" cy="43.52" r="1" transform="translate(-32.2 31.27) rotate(-60)"/><circle class="cls-1" cx="12.62" cy="40.69" r="1" transform="translate(-28.93 31.27) rotate(-60)"/><circle class="cls-1" cx="14.25" cy="37.85" r="1" transform="translate(-25.65 31.27) rotate(-60)"/><circle class="cls-1" cx="15.81" cy="35.16" r="1" transform="translate(-22.54 31.27) rotate(-60)"/><circle class="cls-1" cx="8.55" cy="39.73" r="1" transform="translate(-25.59 17.68) rotate(-45)"/><circle class="cls-1" cx="10.86" cy="37.42" r="1" transform="translate(-23.28 18.64) rotate(-45)"/><circle class="cls-1" cx="13.17" cy="35.11" r="1" transform="translate(-20.97 19.6) rotate(-45)"/><circle class="cls-1" cx="4.76" cy="37.3" r="1" transform="translate(-18.01 7.38) rotate(-30)"/><circle class="cls-1" cx="7.6" cy="35.66" r="1" transform="translate(-16.81 8.58) rotate(-30)"/><circle class="cls-1" cx="10.43" cy="34.03" r="1" transform="translate(-15.62 9.77) rotate(-30)"/><circle class="cls-1" cx="13.13" cy="32.47" r="1" transform="translate(-14.48 10.91) rotate(-30)"/><circle class="cls-1" cx="4.55" cy="32.8" r="1" transform="translate(-8.34 2.29) rotate(-15)"/><circle class="cls-1" cx="7.71" cy="31.96" r="1" transform="translate(-8.01 3.08) rotate(-15)"/><circle class="cls-1" cx="10.87" cy="31.11" r="1" transform="translate(-7.68 3.87) rotate(-15)"/><circle class="cls-1" cx="2.49" cy="28.8" r="1"/><circle class="cls-1" cx="5.76" cy="28.8" r="1"/><circle class="cls-1" cx="9.03" cy="28.8" r="1"/><circle class="cls-1" cx="12.14" cy="28.8" r="1"/><circle class="cls-1" cx="4.55" cy="24.8" r="1" transform="translate(-20.59 22.77) rotate(-75)"/><circle class="cls-1" cx="7.71" cy="25.65" r="1" transform="translate(-19.06 26.45) rotate(-75)"/><circle class="cls-1" cx="10.87" cy="26.49" r="1" transform="translate(-17.54 30.13) rotate(-75)"/><circle class="cls-1" cx="4.76" cy="20.31" r="1" transform="translate(-15.2 14.28) rotate(-60)"/><circle class="cls-1" cx="7.6" cy="21.94" r="1" transform="translate(-15.2 17.55) rotate(-60)"/><circle class="cls-1" cx="10.43" cy="23.58" r="1" transform="translate(-15.2 20.82) rotate(-60)"/><circle class="cls-1" cx="13.13" cy="25.13" r="1" transform="translate(-15.2 23.93) rotate(-60)"/><circle class="cls-1" cx="8.55" cy="17.87" r="1" transform="translate(-10.13 11.28) rotate(-45)"/><circle class="cls-1" cx="10.86" cy="20.18" r="1" transform="translate(-11.09 13.59) rotate(-45)"/><circle class="cls-1" cx="13.17" cy="22.5" r="1" transform="translate(-12.05 15.91) rotate(-45)"/><circle class="cls-1" cx="10.98" cy="14.08" r="1" transform="translate(-5.57 7.38) rotate(-30)"/><circle class="cls-1" cx="12.62" cy="16.92" r="1" transform="translate(-6.77 8.58) rotate(-30)"/><circle class="cls-1" cx="14.25" cy="19.75" r="1" transform="translate(-7.97 9.77) rotate(-30)"/><circle class="cls-1" cx="15.81" cy="22.45" r="1" transform="translate(-9.11 10.91) rotate(-30)"/><circle class="cls-1" cx="15.48" cy="13.87" r="1" transform="translate(-3.06 4.48) rotate(-15)"/><circle class="cls-1" cx="16.32" cy="17.03" r="1" transform="translate(-3.85 4.81) rotate(-15)"/><circle class="cls-1" cx="17.17" cy="20.19" r="1" transform="matrix(0.97, -0.26, 0.26, 0.97, -4.64, 5.13)"/></svg>